solid OpenSCAD_Model
  facet normal -1 0 0
    outer loop
      vertex -5 10 -8
      vertex -5 6 -4
      vertex -5 10 2
    endloop
  endfacet
  facet normal -1 0 0
    outer loop
      vertex -5 10 -8
      vertex -5 -6 -4
      vertex -5 6 -4
    endloop
  endfacet
  facet normal -1 0 0
    outer loop
      vertex -5 -10 -8
      vertex -5 -6 -4
      vertex -5 10 -8
    endloop
  endfacet
  facet normal -1 0 0
    outer loop
      vertex -5 -10 2
      vertex -5 -6 -4
      vertex -5 -10 -8
    endloop
  endfacet
  facet normal -1 0 0
    outer loop
      vertex -5 -6 -4
      vertex -5 -10 2
      vertex -5 -6 2
    endloop
  endfacet
  facet normal -1 -0 0
    outer loop
      vertex -5 10 2
      vertex -5 6 -4
      vertex -5 6 2
    endloop
  endfacet
  facet normal -0 0 1
    outer loop
      vertex -5 -6 2
      vertex 5 -10 2
      vertex 5 -6 2
    endloop
  endfacet
  facet normal 0 0 1
    outer loop
      vertex 5 -10 2
      vertex -5 -6 2
      vertex -5 -10 2
    endloop
  endfacet
  facet normal -0 0 1
    outer loop
      vertex -5 10 2
      vertex 5 6 2
      vertex 5 10 2
    endloop
  endfacet
  facet normal 0 0 1
    outer loop
      vertex 5 6 2
      vertex -5 10 2
      vertex -5 6 2
    endloop
  endfacet
  facet normal 1 0 0
    outer loop
      vertex 5 -6 2
      vertex 5 -10 2
      vertex 5 -6 -4
    endloop
  endfacet
  facet normal 1 0 0
    outer loop
      vertex 5 6 -4
      vertex 5 10 2
      vertex 5 6 2
    endloop
  endfacet
  facet normal 1 0 0
    outer loop
      vertex 5 10 2
      vertex 5 6 -4
      vertex 5 10 -8
    endloop
  endfacet
  facet normal 1 -0 0
    outer loop
      vertex 5 -6 -4
      vertex 5 10 -8
      vertex 5 6 -4
    endloop
  endfacet
  facet normal 1 0 0
    outer loop
      vertex 5 -6 -4
      vertex 5 -10 -8
      vertex 5 10 -8
    endloop
  endfacet
  facet normal 1 0 0
    outer loop
      vertex 5 -10 -8
      vertex 5 -6 -4
      vertex 5 -10 2
    endloop
  endfacet
  facet normal 0 1 -0
    outer loop
      vertex 5 10 -8
      vertex -5 10 2
      vertex 5 10 2
    endloop
  endfacet
  facet normal 0 1 0
    outer loop
      vertex -5 10 2
      vertex 5 10 -8
      vertex -5 10 -8
    endloop
  endfacet
  facet normal 0 0 -1
    outer loop
      vertex 5 -10 -8
      vertex 2.07107 -2.5 -8
      vertex 5 10 -8
    endloop
  endfacet
  facet normal 0 0 -1
    outer loop
      vertex 5 -10 -8
      vertex -2.07107 -2.5 -8
      vertex 2.07107 -2.5 -8
    endloop
  endfacet
  facet normal -0 0 -1
    outer loop
      vertex -2.07107 -2.5 -8
      vertex -5 -10 -8
      vertex -2.07107 2.5 -8
    endloop
  endfacet
  facet normal 0 0 -1
    outer loop
      vertex -5 -10 -8
      vertex -2.07107 -2.5 -8
      vertex 5 -10 -8
    endloop
  endfacet
  facet normal 0 0 -1
    outer loop
      vertex 2.07107 2.5 -8
      vertex 5 10 -8
      vertex 2.07107 -2.5 -8
    endloop
  endfacet
  facet normal 0 0 -1
    outer loop
      vertex -2.07107 2.5 -8
      vertex 5 10 -8
      vertex 2.07107 2.5 -8
    endloop
  endfacet
  facet normal 0 0 -1
    outer loop
      vertex -2.07107 2.5 -8
      vertex -5 10 -8
      vertex 5 10 -8
    endloop
  endfacet
  facet normal 0 0 -1
    outer loop
      vertex -5 10 -8
      vertex -2.07107 2.5 -8
      vertex -5 -10 -8
    endloop
  endfacet
  facet normal 0 -1 0
    outer loop
      vertex -5 -10 -8
      vertex 5 -10 2
      vertex -5 -10 2
    endloop
  endfacet
  facet normal 0 -1 -0
    outer loop
      vertex 5 -10 2
      vertex -5 -10 -8
      vertex 5 -10 -8
    endloop
  endfacet
  facet normal 0 -1 0
    outer loop
      vertex -5 6 -4
      vertex 5 6 2
      vertex -5 6 2
    endloop
  endfacet
  facet normal 0 -1 -0
    outer loop
      vertex 5 6 2
      vertex -5 6 -4
      vertex 5 6 -4
    endloop
  endfacet
  facet normal 0 0 1
    outer loop
      vertex 5 6 -4
      vertex 1 2.5 -4
      vertex 5 -6 -4
    endloop
  endfacet
  facet normal 0 0 1
    outer loop
      vertex 5 6 -4
      vertex -1 2.5 -4
      vertex 1 2.5 -4
    endloop
  endfacet
  facet normal 0 0 1
    outer loop
      vertex -1 2.5 -4
      vertex -5 6 -4
      vertex -1 -2.5 -4
    endloop
  endfacet
  facet normal -0 0 1
    outer loop
      vertex -5 6 -4
      vertex -1 2.5 -4
      vertex 5 6 -4
    endloop
  endfacet
  facet normal -0 0 1
    outer loop
      vertex 1 -2.5 -4
      vertex 5 -6 -4
      vertex 1 2.5 -4
    endloop
  endfacet
  facet normal -0 0 1
    outer loop
      vertex -1 -2.5 -4
      vertex 5 -6 -4
      vertex 1 -2.5 -4
    endloop
  endfacet
  facet normal 0 0 1
    outer loop
      vertex -1 -2.5 -4
      vertex -5 -6 -4
      vertex 5 -6 -4
    endloop
  endfacet
  facet normal 0 0 1
    outer loop
      vertex -5 -6 -4
      vertex -1 -2.5 -4
      vertex -5 6 -4
    endloop
  endfacet
  facet normal 0 1 -0
    outer loop
      vertex 5 -6 -4
      vertex -5 -6 2
      vertex 5 -6 2
    endloop
  endfacet
  facet normal 0 1 0
    outer loop
      vertex -5 -6 2
      vertex 5 -6 -4
      vertex -5 -6 -4
    endloop
  endfacet
  facet normal 0 1 -0
    outer loop
      vertex 0 2.5 -10.0711
      vertex -2.07107 2.5 -8
      vertex 2.07107 2.5 -8
    endloop
  endfacet
  facet normal 0 1 0
    outer loop
      vertex 1 2.5 -4
      vertex -1 2.5 -4
      vertex 0 2.5 -3
    endloop
  endfacet
  facet normal 0.707107 0 0.707107
    outer loop
      vertex 0 2.5 -3
      vertex 1 -2.5 -4
      vertex 1 2.5 -4
    endloop
  endfacet
  facet normal 0.707107 0 0.707107
    outer loop
      vertex 1 -2.5 -4
      vertex 0 2.5 -3
      vertex 0 -2.5 -3
    endloop
  endfacet
  facet normal 0.707107 0 -0.707107
    outer loop
      vertex 2.07107 -2.5 -8
      vertex 0 2.5 -10.0711
      vertex 2.07107 2.5 -8
    endloop
  endfacet
  facet normal 0.707107 0 -0.707107
    outer loop
      vertex 0 2.5 -10.0711
      vertex 2.07107 -2.5 -8
      vertex 0 -2.5 -10.0711
    endloop
  endfacet
  facet normal -0.707107 0 0.707107
    outer loop
      vertex -1 2.5 -4
      vertex 0 -2.5 -3
      vertex 0 2.5 -3
    endloop
  endfacet
  facet normal -0.707107 0 0.707107
    outer loop
      vertex 0 -2.5 -3
      vertex -1 2.5 -4
      vertex -1 -2.5 -4
    endloop
  endfacet
  facet normal -0.707107 0 -0.707107
    outer loop
      vertex 0 -2.5 -10.0711
      vertex -2.07107 2.5 -8
      vertex 0 2.5 -10.0711
    endloop
  endfacet
  facet normal -0.707107 -0 -0.707107
    outer loop
      vertex -2.07107 2.5 -8
      vertex 0 -2.5 -10.0711
      vertex -2.07107 -2.5 -8
    endloop
  endfacet
  facet normal 0 -1 -0
    outer loop
      vertex 0 -2.5 -3
      vertex -1 -2.5 -4
      vertex 1 -2.5 -4
    endloop
  endfacet
  facet normal -0 -1 0
    outer loop
      vertex 2.07107 -2.5 -8
      vertex -2.07107 -2.5 -8
      vertex 0 -2.5 -10.0711
    endloop
  endfacet
endsolid OpenSCAD_Model
