solid OpenSCAD_Model
  facet normal -1 0 0
    outer loop
      vertex -5 10 -1
      vertex -5 6 3
      vertex -5 10 9
    endloop
  endfacet
  facet normal -1 0 0
    outer loop
      vertex -5 10 -1
      vertex -5 -6 3
      vertex -5 6 3
    endloop
  endfacet
  facet normal -1 0 0
    outer loop
      vertex -5 -10 -1
      vertex -5 -6 3
      vertex -5 10 -1
    endloop
  endfacet
  facet normal -1 0 0
    outer loop
      vertex -5 -10 9
      vertex -5 -6 3
      vertex -5 -10 -1
    endloop
  endfacet
  facet normal -1 0 0
    outer loop
      vertex -5 -6 3
      vertex -5 -10 9
      vertex -5 -6 9
    endloop
  endfacet
  facet normal -1 -0 0
    outer loop
      vertex -5 10 9
      vertex -5 6 3
      vertex -5 6 9
    endloop
  endfacet
  facet normal -0 0 1
    outer loop
      vertex -5 -6 9
      vertex 5 -10 9
      vertex 5 -6 9
    endloop
  endfacet
  facet normal 0 0 1
    outer loop
      vertex 5 -10 9
      vertex -5 -6 9
      vertex -5 -10 9
    endloop
  endfacet
  facet normal -0 0 1
    outer loop
      vertex -5 10 9
      vertex 5 6 9
      vertex 5 10 9
    endloop
  endfacet
  facet normal 0 0 1
    outer loop
      vertex 5 6 9
      vertex -5 10 9
      vertex -5 6 9
    endloop
  endfacet
  facet normal 1 0 0
    outer loop
      vertex 5 -6 9
      vertex 5 -10 9
      vertex 5 -6 3
    endloop
  endfacet
  facet normal 1 0 0
    outer loop
      vertex 5 6 3
      vertex 5 10 9
      vertex 5 6 9
    endloop
  endfacet
  facet normal 1 0 0
    outer loop
      vertex 5 10 9
      vertex 5 6 3
      vertex 5 10 -1
    endloop
  endfacet
  facet normal 1 -0 0
    outer loop
      vertex 5 -6 3
      vertex 5 10 -1
      vertex 5 6 3
    endloop
  endfacet
  facet normal 1 0 0
    outer loop
      vertex 5 -6 3
      vertex 5 -10 -1
      vertex 5 10 -1
    endloop
  endfacet
  facet normal 1 0 0
    outer loop
      vertex 5 -10 -1
      vertex 5 -6 3
      vertex 5 -10 9
    endloop
  endfacet
  facet normal 0 1 -0
    outer loop
      vertex 5 10 -1
      vertex -5 10 9
      vertex 5 10 9
    endloop
  endfacet
  facet normal 0 1 0
    outer loop
      vertex -5 10 9
      vertex 5 10 -1
      vertex -5 10 -1
    endloop
  endfacet
  facet normal 0 0 -1
    outer loop
      vertex 5 -10 -1
      vertex 2.07107 -2.5 -1
      vertex 5 10 -1
    endloop
  endfacet
  facet normal 0 0 -1
    outer loop
      vertex 5 -10 -1
      vertex -2.07107 -2.5 -1
      vertex 2.07107 -2.5 -1
    endloop
  endfacet
  facet normal -0 0 -1
    outer loop
      vertex -2.07107 -2.5 -1
      vertex -5 -10 -1
      vertex -2.07107 2.5 -1
    endloop
  endfacet
  facet normal 0 0 -1
    outer loop
      vertex -5 -10 -1
      vertex -2.07107 -2.5 -1
      vertex 5 -10 -1
    endloop
  endfacet
  facet normal 0 0 -1
    outer loop
      vertex 2.07107 2.5 -1
      vertex 5 10 -1
      vertex 2.07107 -2.5 -1
    endloop
  endfacet
  facet normal 0 0 -1
    outer loop
      vertex -2.07107 2.5 -1
      vertex 5 10 -1
      vertex 2.07107 2.5 -1
    endloop
  endfacet
  facet normal 0 0 -1
    outer loop
      vertex -2.07107 2.5 -1
      vertex -5 10 -1
      vertex 5 10 -1
    endloop
  endfacet
  facet normal 0 0 -1
    outer loop
      vertex -5 10 -1
      vertex -2.07107 2.5 -1
      vertex -5 -10 -1
    endloop
  endfacet
  facet normal 0 -1 0
    outer loop
      vertex -5 -10 -1
      vertex 5 -10 9
      vertex -5 -10 9
    endloop
  endfacet
  facet normal 0 -1 -0
    outer loop
      vertex 5 -10 9
      vertex -5 -10 -1
      vertex 5 -10 -1
    endloop
  endfacet
  facet normal 0 -1 0
    outer loop
      vertex -5 6 3
      vertex 5 6 9
      vertex -5 6 9
    endloop
  endfacet
  facet normal 0 -1 -0
    outer loop
      vertex 5 6 9
      vertex -5 6 3
      vertex 5 6 3
    endloop
  endfacet
  facet normal 0 0 1
    outer loop
      vertex 5 6 3
      vertex 1 2.5 3
      vertex 5 -6 3
    endloop
  endfacet
  facet normal 0 0 1
    outer loop
      vertex 5 6 3
      vertex -1 2.5 3
      vertex 1 2.5 3
    endloop
  endfacet
  facet normal 0 0 1
    outer loop
      vertex -1 2.5 3
      vertex -5 6 3
      vertex -1 -2.5 3
    endloop
  endfacet
  facet normal -0 0 1
    outer loop
      vertex -5 6 3
      vertex -1 2.5 3
      vertex 5 6 3
    endloop
  endfacet
  facet normal -0 0 1
    outer loop
      vertex 1 -2.5 3
      vertex 5 -6 3
      vertex 1 2.5 3
    endloop
  endfacet
  facet normal -0 0 1
    outer loop
      vertex -1 -2.5 3
      vertex 5 -6 3
      vertex 1 -2.5 3
    endloop
  endfacet
  facet normal 0 0 1
    outer loop
      vertex -1 -2.5 3
      vertex -5 -6 3
      vertex 5 -6 3
    endloop
  endfacet
  facet normal 0 0 1
    outer loop
      vertex -5 -6 3
      vertex -1 -2.5 3
      vertex -5 6 3
    endloop
  endfacet
  facet normal 0 1 -0
    outer loop
      vertex 5 -6 3
      vertex -5 -6 9
      vertex 5 -6 9
    endloop
  endfacet
  facet normal 0 1 0
    outer loop
      vertex -5 -6 9
      vertex 5 -6 3
      vertex -5 -6 3
    endloop
  endfacet
  facet normal 0 1 -0
    outer loop
      vertex 0 2.5 -3.07107
      vertex -2.07107 2.5 -1
      vertex 2.07107 2.5 -1
    endloop
  endfacet
  facet normal 0 1 0
    outer loop
      vertex 1 2.5 3
      vertex -1 2.5 3
      vertex 0 2.5 4
    endloop
  endfacet
  facet normal 0.707107 0 0.707107
    outer loop
      vertex 0 2.5 4
      vertex 1 -2.5 3
      vertex 1 2.5 3
    endloop
  endfacet
  facet normal 0.707107 0 0.707107
    outer loop
      vertex 1 -2.5 3
      vertex 0 2.5 4
      vertex 0 -2.5 4
    endloop
  endfacet
  facet normal 0.707107 0 -0.707107
    outer loop
      vertex 2.07107 -2.5 -1
      vertex 0 2.5 -3.07107
      vertex 2.07107 2.5 -1
    endloop
  endfacet
  facet normal 0.707107 0 -0.707107
    outer loop
      vertex 0 2.5 -3.07107
      vertex 2.07107 -2.5 -1
      vertex 0 -2.5 -3.07107
    endloop
  endfacet
  facet normal -0.707107 0 0.707107
    outer loop
      vertex -1 2.5 3
      vertex 0 -2.5 4
      vertex 0 2.5 4
    endloop
  endfacet
  facet normal -0.707107 0 0.707107
    outer loop
      vertex 0 -2.5 4
      vertex -1 2.5 3
      vertex -1 -2.5 3
    endloop
  endfacet
  facet normal -0.707107 0 -0.707107
    outer loop
      vertex 0 -2.5 -3.07107
      vertex -2.07107 2.5 -1
      vertex 0 2.5 -3.07107
    endloop
  endfacet
  facet normal -0.707107 -0 -0.707107
    outer loop
      vertex -2.07107 2.5 -1
      vertex 0 -2.5 -3.07107
      vertex -2.07107 -2.5 -1
    endloop
  endfacet
  facet normal 0 -1 -0
    outer loop
      vertex 0 -2.5 4
      vertex -1 -2.5 3
      vertex 1 -2.5 3
    endloop
  endfacet
  facet normal -0 -1 0
    outer loop
      vertex 2.07107 -2.5 -1
      vertex -2.07107 -2.5 -1
      vertex 0 -2.5 -3.07107
    endloop
  endfacet
endsolid OpenSCAD_Model
