solid OpenSCAD_Model
  facet normal 0.866026 0.5 0
    outer loop
      vertex 9.13545 4.06737 15
      vertex 8.09017 5.87785 -15
      vertex 8.09017 5.87785 15
    endloop
  endfacet
  facet normal 0.866026 0.5 0
    outer loop
      vertex 8.09017 5.87785 -15
      vertex 9.13545 4.06737 15
      vertex 9.13545 4.06737 -15
    endloop
  endfacet
  facet normal -0.951057 0.309017 0
    outer loop
      vertex -9.78148 2.07912 -15
      vertex -9.13545 4.06737 15
      vertex -9.13545 4.06737 -15
    endloop
  endfacet
  facet normal -0.951057 0.309017 0
    outer loop
      vertex -9.13545 4.06737 15
      vertex -9.78148 2.07912 -15
      vertex -9.78148 2.07912 15
    endloop
  endfacet
  facet normal 0.743145 0.669131 0
    outer loop
      vertex 8.09017 5.87785 15
      vertex 6.69131 7.43145 -15
      vertex 6.69131 7.43145 15
    endloop
  endfacet
  facet normal 0.743145 0.669131 0
    outer loop
      vertex 6.69131 7.43145 -15
      vertex 8.09017 5.87785 15
      vertex 8.09017 5.87785 -15
    endloop
  endfacet
  facet normal 0.406737 0.913545 -0
    outer loop
      vertex 5 8.66025 -15
      vertex 3.09017 9.51056 15
      vertex 5 8.66025 15
    endloop
  endfacet
  facet normal 0.406737 0.913545 0
    outer loop
      vertex 3.09017 9.51056 15
      vertex 5 8.66025 -15
      vertex 3.09017 9.51056 -15
    endloop
  endfacet
  facet normal -0.406737 0.913545 0
    outer loop
      vertex -3.09017 9.51056 -15
      vertex -5 8.66025 15
      vertex -3.09017 9.51056 15
    endloop
  endfacet
  facet normal -0.406737 0.913545 0
    outer loop
      vertex -5 8.66025 15
      vertex -3.09017 9.51056 -15
      vertex -5 8.66025 -15
    endloop
  endfacet
  facet normal 0.994522 -0.104529 0
    outer loop
      vertex 9.78148 -2.07912 15
      vertex 10 0 -15
      vertex 10 0 15
    endloop
  endfacet
  facet normal 0.994522 -0.104529 0
    outer loop
      vertex 10 0 -15
      vertex 9.78148 -2.07912 15
      vertex 9.78148 -2.07912 -15
    endloop
  endfacet
  facet normal 0.587785 0.809017 -0
    outer loop
      vertex 6.69131 7.43145 -15
      vertex 5 8.66025 15
      vertex 6.69131 7.43145 15
    endloop
  endfacet
  facet normal 0.587785 0.809017 0
    outer loop
      vertex 5 8.66025 15
      vertex 6.69131 7.43145 -15
      vertex 5 8.66025 -15
    endloop
  endfacet
  facet normal 0 1 -0
    outer loop
      vertex 1.04528 9.94522 -15
      vertex -1.04528 9.94522 15
      vertex 1.04528 9.94522 15
    endloop
  endfacet
  facet normal 0 1 0
    outer loop
      vertex -1.04528 9.94522 15
      vertex 1.04528 9.94522 -15
      vertex -1.04528 9.94522 -15
    endloop
  endfacet
  facet normal -0.994522 0.104529 0
    outer loop
      vertex -10 0 -15
      vertex -9.78148 2.07912 15
      vertex -9.78148 2.07912 -15
    endloop
  endfacet
  facet normal -0.994522 0.104529 0
    outer loop
      vertex -9.78148 2.07912 15
      vertex -10 0 -15
      vertex -10 0 15
    endloop
  endfacet
  facet normal -0.866026 0.5 0
    outer loop
      vertex -9.13545 4.06737 -15
      vertex -8.09017 5.87785 15
      vertex -8.09017 5.87785 -15
    endloop
  endfacet
  facet normal -0.866026 0.5 0
    outer loop
      vertex -8.09017 5.87785 15
      vertex -9.13545 4.06737 -15
      vertex -9.13545 4.06737 15
    endloop
  endfacet
  facet normal -0.587785 0.809017 0
    outer loop
      vertex -5 8.66025 -15
      vertex -6.69131 7.43145 15
      vertex -5 8.66025 15
    endloop
  endfacet
  facet normal -0.587785 0.809017 0
    outer loop
      vertex -6.69131 7.43145 15
      vertex -5 8.66025 -15
      vertex -6.69131 7.43145 -15
    endloop
  endfacet
  facet normal -0.207911 0.978148 0
    outer loop
      vertex -1.04528 9.94522 -15
      vertex -3.09017 9.51056 15
      vertex -1.04528 9.94522 15
    endloop
  endfacet
  facet normal -0.207911 0.978148 0
    outer loop
      vertex -3.09017 9.51056 15
      vertex -1.04528 9.94522 -15
      vertex -3.09017 9.51056 -15
    endloop
  endfacet
  facet normal -0.743145 0.669131 0
    outer loop
      vertex -8.09017 5.87785 -15
      vertex -6.69131 7.43145 15
      vertex -6.69131 7.43145 -15
    endloop
  endfacet
  facet normal -0.743145 0.669131 0
    outer loop
      vertex -6.69131 7.43145 15
      vertex -8.09017 5.87785 -15
      vertex -8.09017 5.87785 15
    endloop
  endfacet
  facet normal 0.994522 0.104529 0
    outer loop
      vertex 10 0 15
      vertex 9.78148 2.07912 -15
      vertex 9.78148 2.07912 15
    endloop
  endfacet
  facet normal 0.994522 0.104529 0
    outer loop
      vertex 9.78148 2.07912 -15
      vertex 10 0 15
      vertex 10 0 -15
    endloop
  endfacet
  facet normal 0.951057 -0.309017 0
    outer loop
      vertex 9.13545 -4.06737 15
      vertex 9.78148 -2.07912 -15
      vertex 9.78148 -2.07912 15
    endloop
  endfacet
  facet normal 0.951057 -0.309017 0
    outer loop
      vertex 9.78148 -2.07912 -15
      vertex 9.13545 -4.06737 15
      vertex 9.13545 -4.06737 -15
    endloop
  endfacet
  facet normal -0.866026 -0.5 0
    outer loop
      vertex -8.09017 -5.87785 -15
      vertex -9.13545 -4.06737 15
      vertex -9.13545 -4.06737 -15
    endloop
  endfacet
  facet normal -0.866026 -0.5 0
    outer loop
      vertex -9.13545 -4.06737 15
      vertex -8.09017 -5.87785 -15
      vertex -8.09017 -5.87785 15
    endloop
  endfacet
  facet normal 0.587785 -0.809017 0
    outer loop
      vertex 5 -8.66025 -15
      vertex 6.69131 -7.43145 15
      vertex 5 -8.66025 15
    endloop
  endfacet
  facet normal 0.587785 -0.809017 0
    outer loop
      vertex 6.69131 -7.43145 15
      vertex 5 -8.66025 -15
      vertex 6.69131 -7.43145 -15
    endloop
  endfacet
  facet normal 0.951057 0.309017 0
    outer loop
      vertex 9.78148 2.07912 15
      vertex 9.13545 4.06737 -15
      vertex 9.13545 4.06737 15
    endloop
  endfacet
  facet normal 0.951057 0.309017 0
    outer loop
      vertex 9.13545 4.06737 -15
      vertex 9.78148 2.07912 15
      vertex 9.78148 2.07912 -15
    endloop
  endfacet
  facet normal 0.207911 0.978148 -0
    outer loop
      vertex 3.09017 9.51056 -15
      vertex 1.04528 9.94522 15
      vertex 3.09017 9.51056 15
    endloop
  endfacet
  facet normal 0.207911 0.978148 0
    outer loop
      vertex 1.04528 9.94522 15
      vertex 3.09017 9.51056 -15
      vertex 1.04528 9.94522 -15
    endloop
  endfacet
  facet normal 0 0 1
    outer loop
      vertex 9.78148 2.07912 15
      vertex 4.6194 1.91342 15
      vertex 5 0 15
    endloop
  endfacet
  facet normal 0 0 1
    outer loop
      vertex 6.69131 7.43145 15
      vertex 3.53553 3.53553 15
      vertex 4.6194 1.91342 15
    endloop
  endfacet
  facet normal 0 0 1
    outer loop
      vertex 1.91342 4.6194 15
      vertex 5 8.66025 15
      vertex 3.09017 9.51056 15
    endloop
  endfacet
  facet normal 0 0 1
    outer loop
      vertex 5 8.66025 15
      vertex 1.91342 4.6194 15
      vertex 3.53553 3.53553 15
    endloop
  endfacet
  facet normal 0 0 1
    outer loop
      vertex 1.04528 9.94522 15
      vertex 1.91342 4.6194 15
      vertex 3.09017 9.51056 15
    endloop
  endfacet
  facet normal 0 0 1
    outer loop
      vertex 1.04528 9.94522 15
      vertex 0 5 15
      vertex 1.91342 4.6194 15
    endloop
  endfacet
  facet normal -0 0 1
    outer loop
      vertex -1.04528 9.94522 15
      vertex 0 5 15
      vertex 1.04528 9.94522 15
    endloop
  endfacet
  facet normal 0 0 1
    outer loop
      vertex -1.04528 9.94522 15
      vertex -1.91342 4.6194 15
      vertex 0 5 15
    endloop
  endfacet
  facet normal -0 0 1
    outer loop
      vertex -3.09017 9.51056 15
      vertex -1.91342 4.6194 15
      vertex -1.04528 9.94522 15
    endloop
  endfacet
  facet normal -0 0 1
    outer loop
      vertex -5 8.66025 15
      vertex -1.91342 4.6194 15
      vertex -3.09017 9.51056 15
    endloop
  endfacet
  facet normal 0 0 1
    outer loop
      vertex -1.91342 4.6194 15
      vertex -5 8.66025 15
      vertex -3.53553 3.53553 15
    endloop
  endfacet
  facet normal -0 0 1
    outer loop
      vertex -6.69131 7.43145 15
      vertex -3.53553 3.53553 15
      vertex -5 8.66025 15
    endloop
  endfacet
  facet normal -0 0 1
    outer loop
      vertex -8.09017 5.87785 15
      vertex -3.53553 3.53553 15
      vertex -6.69131 7.43145 15
    endloop
  endfacet
  facet normal 0 0 1
    outer loop
      vertex -3.53553 3.53553 15
      vertex -8.09017 5.87785 15
      vertex -4.6194 1.91342 15
    endloop
  endfacet
  facet normal -0 0 1
    outer loop
      vertex -9.13545 4.06737 15
      vertex -4.6194 1.91342 15
      vertex -8.09017 5.87785 15
    endloop
  endfacet
  facet normal 0 0 1
    outer loop
      vertex -5 0 15
      vertex -6.69131 -7.43145 15
      vertex -5 -8.66025 15
    endloop
  endfacet
  facet normal -0 0 1
    outer loop
      vertex -9.78148 2.07912 15
      vertex -4.6194 1.91342 15
      vertex -9.13545 4.06737 15
    endloop
  endfacet
  facet normal 0 0 1
    outer loop
      vertex -5 0 15
      vertex -8.09017 -5.87785 15
      vertex -6.69131 -7.43145 15
    endloop
  endfacet
  facet normal 0 0 1
    outer loop
      vertex -4.6194 1.91342 15
      vertex -9.78148 2.07912 15
      vertex -5 0 15
    endloop
  endfacet
  facet normal 0 0 1
    outer loop
      vertex -5 0 15
      vertex -9.13545 -4.06737 15
      vertex -8.09017 -5.87785 15
    endloop
  endfacet
  facet normal 0 0 1
    outer loop
      vertex -10 0 15
      vertex -5 0 15
      vertex -9.78148 2.07912 15
    endloop
  endfacet
  facet normal 0 0 1
    outer loop
      vertex -5 0 15
      vertex -9.78148 -2.07912 15
      vertex -9.13545 -4.06737 15
    endloop
  endfacet
  facet normal 0 0 1
    outer loop
      vertex -5 0 15
      vertex -10 0 15
      vertex -9.78148 -2.07912 15
    endloop
  endfacet
  facet normal 0 0 1
    outer loop
      vertex 5 0 15
      vertex 10 0 15
      vertex 9.78148 2.07912 15
    endloop
  endfacet
  facet normal 0 0 1
    outer loop
      vertex 4.6194 1.91342 15
      vertex 9.78148 2.07912 15
      vertex 9.13545 4.06737 15
    endloop
  endfacet
  facet normal 0 0 1
    outer loop
      vertex 10 0 15
      vertex 5 0 15
      vertex 9.78148 -2.07912 15
    endloop
  endfacet
  facet normal 0 0 1
    outer loop
      vertex 4.6194 1.91342 15
      vertex 9.13545 4.06737 15
      vertex 8.09017 5.87785 15
    endloop
  endfacet
  facet normal -0 0 1
    outer loop
      vertex 4.6194 -1.91342 15
      vertex 9.78148 -2.07912 15
      vertex 5 0 15
    endloop
  endfacet
  facet normal 0 0 1
    outer loop
      vertex 4.6194 1.91342 15
      vertex 8.09017 5.87785 15
      vertex 6.69131 7.43145 15
    endloop
  endfacet
  facet normal 0 0 1
    outer loop
      vertex 9.78148 -2.07912 15
      vertex 4.6194 -1.91342 15
      vertex 9.13545 -4.06737 15
    endloop
  endfacet
  facet normal 0 0 1
    outer loop
      vertex 3.53553 3.53553 15
      vertex 6.69131 7.43145 15
      vertex 5 8.66025 15
    endloop
  endfacet
  facet normal 0 0 1
    outer loop
      vertex 9.13545 -4.06737 15
      vertex 4.6194 -1.91342 15
      vertex 8.09017 -5.87785 15
    endloop
  endfacet
  facet normal -0 0 1
    outer loop
      vertex 3.53553 -3.53553 15
      vertex 8.09017 -5.87785 15
      vertex 4.6194 -1.91342 15
    endloop
  endfacet
  facet normal 0 0 1
    outer loop
      vertex 8.09017 -5.87785 15
      vertex 3.53553 -3.53553 15
      vertex 6.69131 -7.43145 15
    endloop
  endfacet
  facet normal 0 0 1
    outer loop
      vertex 6.69131 -7.43145 15
      vertex 3.53553 -3.53553 15
      vertex 5 -8.66025 15
    endloop
  endfacet
  facet normal -0 0 1
    outer loop
      vertex 1.91342 -4.6194 15
      vertex 5 -8.66025 15
      vertex 3.53553 -3.53553 15
    endloop
  endfacet
  facet normal 0 0 1
    outer loop
      vertex 5 -8.66025 15
      vertex 1.91342 -4.6194 15
      vertex 3.09017 -9.51056 15
    endloop
  endfacet
  facet normal 0 0 1
    outer loop
      vertex 1.91342 -4.6194 15
      vertex 1.04528 -9.94522 15
      vertex 3.09017 -9.51056 15
    endloop
  endfacet
  facet normal -0 0 1
    outer loop
      vertex 0 -5 15
      vertex 1.04528 -9.94522 15
      vertex 1.91342 -4.6194 15
    endloop
  endfacet
  facet normal 0 0 1
    outer loop
      vertex 0 -5 15
      vertex -1.04528 -9.94522 15
      vertex 1.04528 -9.94522 15
    endloop
  endfacet
  facet normal 0 0 1
    outer loop
      vertex -1.91342 -4.6194 15
      vertex -1.04528 -9.94522 15
      vertex 0 -5 15
    endloop
  endfacet
  facet normal 0 0 1
    outer loop
      vertex -1.91342 -4.6194 15
      vertex -3.09017 -9.51056 15
      vertex -1.04528 -9.94522 15
    endloop
  endfacet
  facet normal 0 0 1
    outer loop
      vertex -5 -8.66025 15
      vertex -1.91342 -4.6194 15
      vertex -3.53553 -3.53553 15
    endloop
  endfacet
  facet normal 0 0 1
    outer loop
      vertex -5 -8.66025 15
      vertex -3.53553 -3.53553 15
      vertex -4.6194 -1.91342 15
    endloop
  endfacet
  facet normal 0 0 1
    outer loop
      vertex -1.91342 -4.6194 15
      vertex -5 -8.66025 15
      vertex -3.09017 -9.51056 15
    endloop
  endfacet
  facet normal 0 0 1
    outer loop
      vertex -5 -8.66025 15
      vertex -4.6194 -1.91342 15
      vertex -5 0 15
    endloop
  endfacet
  facet normal 0.866026 -0.5 0
    outer loop
      vertex 8.09017 -5.87785 15
      vertex 9.13545 -4.06737 -15
      vertex 9.13545 -4.06737 15
    endloop
  endfacet
  facet normal 0.866026 -0.5 0
    outer loop
      vertex 9.13545 -4.06737 -15
      vertex 8.09017 -5.87785 15
      vertex 8.09017 -5.87785 -15
    endloop
  endfacet
  facet normal -0.994522 -0.104529 0
    outer loop
      vertex -9.78148 -2.07912 -15
      vertex -10 0 15
      vertex -10 0 -15
    endloop
  endfacet
  facet normal -0.994522 -0.104529 0
    outer loop
      vertex -10 0 15
      vertex -9.78148 -2.07912 -15
      vertex -9.78148 -2.07912 15
    endloop
  endfacet
  facet normal 0.207911 -0.978148 0
    outer loop
      vertex 1.04528 -9.94522 -15
      vertex 3.09017 -9.51056 15
      vertex 1.04528 -9.94522 15
    endloop
  endfacet
  facet normal 0.207911 -0.978148 0
    outer loop
      vertex 3.09017 -9.51056 15
      vertex 1.04528 -9.94522 -15
      vertex 3.09017 -9.51056 -15
    endloop
  endfacet
  facet normal 0.406737 -0.913545 0
    outer loop
      vertex 3.09017 -9.51056 -15
      vertex 5 -8.66025 15
      vertex 3.09017 -9.51056 15
    endloop
  endfacet
  facet normal 0.406737 -0.913545 0
    outer loop
      vertex 5 -8.66025 15
      vertex 3.09017 -9.51056 -15
      vertex 5 -8.66025 -15
    endloop
  endfacet
  facet normal -0.207911 -0.978148 0
    outer loop
      vertex -3.09017 -9.51056 -15
      vertex -1.04528 -9.94522 15
      vertex -3.09017 -9.51056 15
    endloop
  endfacet
  facet normal -0.207911 -0.978148 -0
    outer loop
      vertex -1.04528 -9.94522 15
      vertex -3.09017 -9.51056 -15
      vertex -1.04528 -9.94522 -15
    endloop
  endfacet
  facet normal 0 -1 0
    outer loop
      vertex -1.04528 -9.94522 -15
      vertex 1.04528 -9.94522 15
      vertex -1.04528 -9.94522 15
    endloop
  endfacet
  facet normal 0 -1 -0
    outer loop
      vertex 1.04528 -9.94522 15
      vertex -1.04528 -9.94522 -15
      vertex 1.04528 -9.94522 -15
    endloop
  endfacet
  facet normal 0 0 -1
    outer loop
      vertex 9.78148 -2.07912 -15
      vertex 4.6194 -1.91342 -15
      vertex 5 0 -15
    endloop
  endfacet
  facet normal 0 0 -1
    outer loop
      vertex 6.69131 -7.43145 -15
      vertex 3.53553 -3.53553 -15
      vertex 4.6194 -1.91342 -15
    endloop
  endfacet
  facet normal 0 0 -1
    outer loop
      vertex 1.91342 -4.6194 -15
      vertex 5 -8.66025 -15
      vertex 3.09017 -9.51056 -15
    endloop
  endfacet
  facet normal 0 0 -1
    outer loop
      vertex 5 -8.66025 -15
      vertex 1.91342 -4.6194 -15
      vertex 3.53553 -3.53553 -15
    endloop
  endfacet
  facet normal 0 0 -1
    outer loop
      vertex 1.04528 -9.94522 -15
      vertex 1.91342 -4.6194 -15
      vertex 3.09017 -9.51056 -15
    endloop
  endfacet
  facet normal 0 0 -1
    outer loop
      vertex 1.04528 -9.94522 -15
      vertex 0 -5 -15
      vertex 1.91342 -4.6194 -15
    endloop
  endfacet
  facet normal 0 0 -1
    outer loop
      vertex -1.04528 -9.94522 -15
      vertex 0 -5 -15
      vertex 1.04528 -9.94522 -15
    endloop
  endfacet
  facet normal 0 0 -1
    outer loop
      vertex -1.04528 -9.94522 -15
      vertex -1.91342 -4.6194 -15
      vertex 0 -5 -15
    endloop
  endfacet
  facet normal 0 0 -1
    outer loop
      vertex -3.09017 -9.51056 -15
      vertex -1.91342 -4.6194 -15
      vertex -1.04528 -9.94522 -15
    endloop
  endfacet
  facet normal 0 0 -1
    outer loop
      vertex -5 -8.66025 -15
      vertex -1.91342 -4.6194 -15
      vertex -3.09017 -9.51056 -15
    endloop
  endfacet
  facet normal -0 0 -1
    outer loop
      vertex -1.91342 -4.6194 -15
      vertex -5 -8.66025 -15
      vertex -3.53553 -3.53553 -15
    endloop
  endfacet
  facet normal 0 0 -1
    outer loop
      vertex -6.69131 -7.43145 -15
      vertex -3.53553 -3.53553 -15
      vertex -5 -8.66025 -15
    endloop
  endfacet
  facet normal 0 0 -1
    outer loop
      vertex -8.09017 -5.87785 -15
      vertex -3.53553 -3.53553 -15
      vertex -6.69131 -7.43145 -15
    endloop
  endfacet
  facet normal -0 0 -1
    outer loop
      vertex -3.53553 -3.53553 -15
      vertex -8.09017 -5.87785 -15
      vertex -4.6194 -1.91342 -15
    endloop
  endfacet
  facet normal 0 0 -1
    outer loop
      vertex 5 0 -15
      vertex 10 0 -15
      vertex 9.78148 -2.07912 -15
    endloop
  endfacet
  facet normal 0 0 -1
    outer loop
      vertex 4.6194 -1.91342 -15
      vertex 9.78148 -2.07912 -15
      vertex 9.13545 -4.06737 -15
    endloop
  endfacet
  facet normal 0 0 -1
    outer loop
      vertex 10 0 -15
      vertex 5 0 -15
      vertex 9.78148 2.07912 -15
    endloop
  endfacet
  facet normal 0 0 -1
    outer loop
      vertex 4.6194 -1.91342 -15
      vertex 9.13545 -4.06737 -15
      vertex 8.09017 -5.87785 -15
    endloop
  endfacet
  facet normal 0 0 -1
    outer loop
      vertex 4.6194 1.91342 -15
      vertex 9.78148 2.07912 -15
      vertex 5 0 -15
    endloop
  endfacet
  facet normal 0 0 -1
    outer loop
      vertex 4.6194 -1.91342 -15
      vertex 8.09017 -5.87785 -15
      vertex 6.69131 -7.43145 -15
    endloop
  endfacet
  facet normal -0 0 -1
    outer loop
      vertex 9.78148 2.07912 -15
      vertex 4.6194 1.91342 -15
      vertex 9.13545 4.06737 -15
    endloop
  endfacet
  facet normal 0 0 -1
    outer loop
      vertex 3.53553 -3.53553 -15
      vertex 6.69131 -7.43145 -15
      vertex 5 -8.66025 -15
    endloop
  endfacet
  facet normal -0 0 -1
    outer loop
      vertex 9.13545 4.06737 -15
      vertex 4.6194 1.91342 -15
      vertex 8.09017 5.87785 -15
    endloop
  endfacet
  facet normal 0 0 -1
    outer loop
      vertex 3.53553 3.53553 -15
      vertex 8.09017 5.87785 -15
      vertex 4.6194 1.91342 -15
    endloop
  endfacet
  facet normal -0 0 -1
    outer loop
      vertex 8.09017 5.87785 -15
      vertex 3.53553 3.53553 -15
      vertex 6.69131 7.43145 -15
    endloop
  endfacet
  facet normal -0 0 -1
    outer loop
      vertex 6.69131 7.43145 -15
      vertex 3.53553 3.53553 -15
      vertex 5 8.66025 -15
    endloop
  endfacet
  facet normal 0 0 -1
    outer loop
      vertex 1.91342 4.6194 -15
      vertex 5 8.66025 -15
      vertex 3.53553 3.53553 -15
    endloop
  endfacet
  facet normal -0 0 -1
    outer loop
      vertex 5 8.66025 -15
      vertex 1.91342 4.6194 -15
      vertex 3.09017 9.51056 -15
    endloop
  endfacet
  facet normal 0 0 -1
    outer loop
      vertex 1.91342 4.6194 -15
      vertex 1.04528 9.94522 -15
      vertex 3.09017 9.51056 -15
    endloop
  endfacet
  facet normal 0 0 -1
    outer loop
      vertex 0 5 -15
      vertex 1.04528 9.94522 -15
      vertex 1.91342 4.6194 -15
    endloop
  endfacet
  facet normal 0 0 -1
    outer loop
      vertex 0 5 -15
      vertex -1.04528 9.94522 -15
      vertex 1.04528 9.94522 -15
    endloop
  endfacet
  facet normal 0 0 -1
    outer loop
      vertex -1.91342 4.6194 -15
      vertex -1.04528 9.94522 -15
      vertex 0 5 -15
    endloop
  endfacet
  facet normal 0 0 -1
    outer loop
      vertex -1.91342 4.6194 -15
      vertex -3.09017 9.51056 -15
      vertex -1.04528 9.94522 -15
    endloop
  endfacet
  facet normal 0 0 -1
    outer loop
      vertex -5 8.66025 -15
      vertex -1.91342 4.6194 -15
      vertex -3.53553 3.53553 -15
    endloop
  endfacet
  facet normal 0 0 -1
    outer loop
      vertex -8.09017 5.87785 -15
      vertex -3.53553 3.53553 -15
      vertex -4.6194 1.91342 -15
    endloop
  endfacet
  facet normal 0 0 -1
    outer loop
      vertex -1.91342 4.6194 -15
      vertex -5 8.66025 -15
      vertex -3.09017 9.51056 -15
    endloop
  endfacet
  facet normal 0 0 -1
    outer loop
      vertex -9.78148 2.07912 -15
      vertex -4.6194 1.91342 -15
      vertex -5 0 -15
    endloop
  endfacet
  facet normal 0 0 -1
    outer loop
      vertex -9.13545 -4.06737 -15
      vertex -4.6194 -1.91342 -15
      vertex -8.09017 -5.87785 -15
    endloop
  endfacet
  facet normal 0 0 -1
    outer loop
      vertex -3.53553 3.53553 -15
      vertex -6.69131 7.43145 -15
      vertex -5 8.66025 -15
    endloop
  endfacet
  facet normal 0 0 -1
    outer loop
      vertex -9.78148 -2.07912 -15
      vertex -4.6194 -1.91342 -15
      vertex -9.13545 -4.06737 -15
    endloop
  endfacet
  facet normal 0 0 -1
    outer loop
      vertex -3.53553 3.53553 -15
      vertex -8.09017 5.87785 -15
      vertex -6.69131 7.43145 -15
    endloop
  endfacet
  facet normal -0 0 -1
    outer loop
      vertex -4.6194 -1.91342 -15
      vertex -9.78148 -2.07912 -15
      vertex -5 0 -15
    endloop
  endfacet
  facet normal 0 0 -1
    outer loop
      vertex -4.6194 1.91342 -15
      vertex -9.13545 4.06737 -15
      vertex -8.09017 5.87785 -15
    endloop
  endfacet
  facet normal 0 0 -1
    outer loop
      vertex -10 0 -15
      vertex -5 0 -15
      vertex -9.78148 -2.07912 -15
    endloop
  endfacet
  facet normal 0 0 -1
    outer loop
      vertex -4.6194 1.91342 -15
      vertex -9.78148 2.07912 -15
      vertex -9.13545 4.06737 -15
    endloop
  endfacet
  facet normal 0 0 -1
    outer loop
      vertex -5 0 -15
      vertex -10 0 -15
      vertex -9.78148 2.07912 -15
    endloop
  endfacet
  facet normal -0.951057 -0.309017 0
    outer loop
      vertex -9.13545 -4.06737 -15
      vertex -9.78148 -2.07912 15
      vertex -9.78148 -2.07912 -15
    endloop
  endfacet
  facet normal -0.951057 -0.309017 0
    outer loop
      vertex -9.78148 -2.07912 15
      vertex -9.13545 -4.06737 -15
      vertex -9.13545 -4.06737 15
    endloop
  endfacet
  facet normal -0.743145 -0.669131 0
    outer loop
      vertex -6.69131 -7.43145 -15
      vertex -8.09017 -5.87785 15
      vertex -8.09017 -5.87785 -15
    endloop
  endfacet
  facet normal -0.743145 -0.669131 0
    outer loop
      vertex -8.09017 -5.87785 15
      vertex -6.69131 -7.43145 -15
      vertex -6.69131 -7.43145 15
    endloop
  endfacet
  facet normal 0.743145 -0.669131 0
    outer loop
      vertex 6.69131 -7.43145 15
      vertex 8.09017 -5.87785 -15
      vertex 8.09017 -5.87785 15
    endloop
  endfacet
  facet normal 0.743145 -0.669131 0
    outer loop
      vertex 8.09017 -5.87785 -15
      vertex 6.69131 -7.43145 15
      vertex 6.69131 -7.43145 -15
    endloop
  endfacet
  facet normal -0.587785 -0.809017 0
    outer loop
      vertex -6.69131 -7.43145 -15
      vertex -5 -8.66025 15
      vertex -6.69131 -7.43145 15
    endloop
  endfacet
  facet normal -0.587785 -0.809017 -0
    outer loop
      vertex -5 -8.66025 15
      vertex -6.69131 -7.43145 -15
      vertex -5 -8.66025 -15
    endloop
  endfacet
  facet normal -0.406737 -0.913545 0
    outer loop
      vertex -5 -8.66025 -15
      vertex -3.09017 -9.51056 15
      vertex -5 -8.66025 15
    endloop
  endfacet
  facet normal -0.406737 -0.913545 -0
    outer loop
      vertex -3.09017 -9.51056 15
      vertex -5 -8.66025 -15
      vertex -3.09017 -9.51056 -15
    endloop
  endfacet
  facet normal -0.980785 -0.195091 0
    outer loop
      vertex 5 0 -15
      vertex 4.6194 1.91342 15
      vertex 4.6194 1.91342 -15
    endloop
  endfacet
  facet normal -0.980785 -0.195091 0
    outer loop
      vertex 4.6194 1.91342 15
      vertex 5 0 -15
      vertex 5 0 15
    endloop
  endfacet
  facet normal 0.980785 -0.195091 0
    outer loop
      vertex -5 0 15
      vertex -4.6194 1.91342 -15
      vertex -4.6194 1.91342 15
    endloop
  endfacet
  facet normal 0.980785 -0.195091 0
    outer loop
      vertex -4.6194 1.91342 -15
      vertex -5 0 15
      vertex -5 0 -15
    endloop
  endfacet
  facet normal -0.195091 -0.980785 0
    outer loop
      vertex 0 5 -15
      vertex 1.91342 4.6194 15
      vertex 0 5 15
    endloop
  endfacet
  facet normal -0.195091 -0.980785 -0
    outer loop
      vertex 1.91342 4.6194 15
      vertex 0 5 -15
      vertex 1.91342 4.6194 -15
    endloop
  endfacet
  facet normal -0.83147 -0.55557 0
    outer loop
      vertex 4.6194 1.91342 -15
      vertex 3.53553 3.53553 15
      vertex 3.53553 3.53553 -15
    endloop
  endfacet
  facet normal -0.83147 -0.55557 0
    outer loop
      vertex 3.53553 3.53553 15
      vertex 4.6194 1.91342 -15
      vertex 4.6194 1.91342 15
    endloop
  endfacet
  facet normal -0.195091 0.980785 0
    outer loop
      vertex 1.91342 -4.6194 -15
      vertex 0 -5 15
      vertex 1.91342 -4.6194 15
    endloop
  endfacet
  facet normal -0.195091 0.980785 0
    outer loop
      vertex 0 -5 15
      vertex 1.91342 -4.6194 -15
      vertex 0 -5 -15
    endloop
  endfacet
  facet normal -0.55557 -0.83147 0
    outer loop
      vertex 1.91342 4.6194 -15
      vertex 3.53553 3.53553 15
      vertex 1.91342 4.6194 15
    endloop
  endfacet
  facet normal -0.55557 -0.83147 -0
    outer loop
      vertex 3.53553 3.53553 15
      vertex 1.91342 4.6194 -15
      vertex 3.53553 3.53553 -15
    endloop
  endfacet
  facet normal 0.55557 -0.83147 0
    outer loop
      vertex -3.53553 3.53553 -15
      vertex -1.91342 4.6194 15
      vertex -3.53553 3.53553 15
    endloop
  endfacet
  facet normal 0.55557 -0.83147 0
    outer loop
      vertex -1.91342 4.6194 15
      vertex -3.53553 3.53553 -15
      vertex -1.91342 4.6194 -15
    endloop
  endfacet
  facet normal 0.83147 -0.55557 0
    outer loop
      vertex -4.6194 1.91342 15
      vertex -3.53553 3.53553 -15
      vertex -3.53553 3.53553 15
    endloop
  endfacet
  facet normal 0.83147 -0.55557 0
    outer loop
      vertex -3.53553 3.53553 -15
      vertex -4.6194 1.91342 15
      vertex -4.6194 1.91342 -15
    endloop
  endfacet
  facet normal 0.195091 -0.980785 0
    outer loop
      vertex -1.91342 4.6194 -15
      vertex 0 5 15
      vertex -1.91342 4.6194 15
    endloop
  endfacet
  facet normal 0.195091 -0.980785 0
    outer loop
      vertex 0 5 15
      vertex -1.91342 4.6194 -15
      vertex 0 5 -15
    endloop
  endfacet
  facet normal 0.55557 0.83147 -0
    outer loop
      vertex -1.91342 -4.6194 -15
      vertex -3.53553 -3.53553 15
      vertex -1.91342 -4.6194 15
    endloop
  endfacet
  facet normal 0.55557 0.83147 0
    outer loop
      vertex -3.53553 -3.53553 15
      vertex -1.91342 -4.6194 -15
      vertex -3.53553 -3.53553 -15
    endloop
  endfacet
  facet normal 0.980785 0.195091 0
    outer loop
      vertex -4.6194 -1.91342 15
      vertex -5 0 -15
      vertex -5 0 15
    endloop
  endfacet
  facet normal 0.980785 0.195091 0
    outer loop
      vertex -5 0 -15
      vertex -4.6194 -1.91342 15
      vertex -4.6194 -1.91342 -15
    endloop
  endfacet
  facet normal -0.55557 0.83147 0
    outer loop
      vertex 3.53553 -3.53553 -15
      vertex 1.91342 -4.6194 15
      vertex 3.53553 -3.53553 15
    endloop
  endfacet
  facet normal -0.55557 0.83147 0
    outer loop
      vertex 1.91342 -4.6194 15
      vertex 3.53553 -3.53553 -15
      vertex 1.91342 -4.6194 -15
    endloop
  endfacet
  facet normal -0.83147 0.55557 0
    outer loop
      vertex 3.53553 -3.53553 -15
      vertex 4.6194 -1.91342 15
      vertex 4.6194 -1.91342 -15
    endloop
  endfacet
  facet normal -0.83147 0.55557 0
    outer loop
      vertex 4.6194 -1.91342 15
      vertex 3.53553 -3.53553 -15
      vertex 3.53553 -3.53553 15
    endloop
  endfacet
  facet normal 0.195091 0.980785 -0
    outer loop
      vertex 0 -5 -15
      vertex -1.91342 -4.6194 15
      vertex 0 -5 15
    endloop
  endfacet
  facet normal 0.195091 0.980785 0
    outer loop
      vertex -1.91342 -4.6194 15
      vertex 0 -5 -15
      vertex -1.91342 -4.6194 -15
    endloop
  endfacet
  facet normal 0.83147 0.55557 0
    outer loop
      vertex -3.53553 -3.53553 15
      vertex -4.6194 -1.91342 -15
      vertex -4.6194 -1.91342 15
    endloop
  endfacet
  facet normal 0.83147 0.55557 0
    outer loop
      vertex -4.6194 -1.91342 -15
      vertex -3.53553 -3.53553 15
      vertex -3.53553 -3.53553 -15
    endloop
  endfacet
  facet normal -0.980785 0.195091 0
    outer loop
      vertex 4.6194 -1.91342 -15
      vertex 5 0 15
      vertex 5 0 -15
    endloop
  endfacet
  facet normal -0.980785 0.195091 0
    outer loop
      vertex 5 0 15
      vertex 4.6194 -1.91342 -15
      vertex 4.6194 -1.91342 15
    endloop
  endfacet
endsolid OpenSCAD_Model
