solid OpenSCAD_Model
  facet normal 0.866025 0.5 0
    outer loop
      vertex 10 0 15
      vertex 5 8.66025 -15
      vertex 5 8.66025 15
    endloop
  endfacet
  facet normal 0.866025 0.5 0
    outer loop
      vertex 5 8.66025 -15
      vertex 10 0 15
      vertex 10 0 -15
    endloop
  endfacet
  facet normal -0.866025 0.5 0
    outer loop
      vertex -10 0 -15
      vertex -5 8.66025 15
      vertex -5 8.66025 -15
    endloop
  endfacet
  facet normal -0.866025 0.5 0
    outer loop
      vertex -5 8.66025 15
      vertex -10 0 -15
      vertex -10 0 15
    endloop
  endfacet
  facet normal 0 1 -0
    outer loop
      vertex 5 8.66025 -15
      vertex -5 8.66025 15
      vertex 5 8.66025 15
    endloop
  endfacet
  facet normal 0 1 0
    outer loop
      vertex -5 8.66025 15
      vertex 5 8.66025 -15
      vertex -5 8.66025 -15
    endloop
  endfacet
  facet normal 0 0 1
    outer loop
      vertex 5 8.66025 15
      vertex 2.5 4.33013 15
      vertex 5 0 15
    endloop
  endfacet
  facet normal 0 0 1
    outer loop
      vertex 5 8.66025 15
      vertex -2.5 4.33013 15
      vertex 2.5 4.33013 15
    endloop
  endfacet
  facet normal -0 0 1
    outer loop
      vertex -5 8.66025 15
      vertex -2.5 4.33013 15
      vertex 5 8.66025 15
    endloop
  endfacet
  facet normal 0 0 1
    outer loop
      vertex -5 8.66025 15
      vertex -5 0 15
      vertex -2.5 4.33013 15
    endloop
  endfacet
  facet normal 0 0 1
    outer loop
      vertex -5 0 15
      vertex -10 0 15
      vertex -5 -8.66025 15
    endloop
  endfacet
  facet normal 0 0 1
    outer loop
      vertex -10 0 15
      vertex -5 0 15
      vertex -5 8.66025 15
    endloop
  endfacet
  facet normal 0 0 1
    outer loop
      vertex 5 0 15
      vertex 10 0 15
      vertex 5 8.66025 15
    endloop
  endfacet
  facet normal -0 0 1
    outer loop
      vertex 5 0 15
      vertex 5 -8.66025 15
      vertex 10 0 15
    endloop
  endfacet
  facet normal -0 0 1
    outer loop
      vertex 2.5 -4.33013 15
      vertex 5 -8.66025 15
      vertex 5 0 15
    endloop
  endfacet
  facet normal -0 0 1
    outer loop
      vertex -2.5 -4.33013 15
      vertex 5 -8.66025 15
      vertex 2.5 -4.33013 15
    endloop
  endfacet
  facet normal 0 0 1
    outer loop
      vertex -2.5 -4.33013 15
      vertex -5 -8.66025 15
      vertex 5 -8.66025 15
    endloop
  endfacet
  facet normal 0 0 1
    outer loop
      vertex -5 -8.66025 15
      vertex -2.5 -4.33013 15
      vertex -5 0 15
    endloop
  endfacet
  facet normal -0.866025 -0.5 0
    outer loop
      vertex -5 -8.66025 -15
      vertex -10 0 15
      vertex -10 0 -15
    endloop
  endfacet
  facet normal -0.866025 -0.5 0
    outer loop
      vertex -10 0 15
      vertex -5 -8.66025 -15
      vertex -5 -8.66025 15
    endloop
  endfacet
  facet normal 0 0 -1
    outer loop
      vertex 5 -8.66025 -15
      vertex 2.5 -4.33013 -15
      vertex 5 0 -15
    endloop
  endfacet
  facet normal 0 0 -1
    outer loop
      vertex 5 -8.66025 -15
      vertex -2.5 -4.33013 -15
      vertex 2.5 -4.33013 -15
    endloop
  endfacet
  facet normal 0 0 -1
    outer loop
      vertex -5 -8.66025 -15
      vertex -2.5 -4.33013 -15
      vertex 5 -8.66025 -15
    endloop
  endfacet
  facet normal 0 0 -1
    outer loop
      vertex -5 -8.66025 -15
      vertex -5 0 -15
      vertex -2.5 -4.33013 -15
    endloop
  endfacet
  facet normal -0 -0 -1
    outer loop
      vertex -5 0 -15
      vertex -5 -8.66025 -15
      vertex -10 0 -15
    endloop
  endfacet
  facet normal 0 0 -1
    outer loop
      vertex 5 0 -15
      vertex 10 0 -15
      vertex 5 -8.66025 -15
    endloop
  endfacet
  facet normal 0 0 -1
    outer loop
      vertex 5 0 -15
      vertex 5 8.66025 -15
      vertex 10 0 -15
    endloop
  endfacet
  facet normal 0 0 -1
    outer loop
      vertex 2.5 4.33013 -15
      vertex 5 8.66025 -15
      vertex 5 0 -15
    endloop
  endfacet
  facet normal 0 0 -1
    outer loop
      vertex -2.5 4.33013 -15
      vertex 5 8.66025 -15
      vertex 2.5 4.33013 -15
    endloop
  endfacet
  facet normal 0 0 -1
    outer loop
      vertex -2.5 4.33013 -15
      vertex -5 8.66025 -15
      vertex 5 8.66025 -15
    endloop
  endfacet
  facet normal 0 0 -1
    outer loop
      vertex -5 0 -15
      vertex -5 8.66025 -15
      vertex -2.5 4.33013 -15
    endloop
  endfacet
  facet normal 0 0 -1
    outer loop
      vertex -5 8.66025 -15
      vertex -5 0 -15
      vertex -10 0 -15
    endloop
  endfacet
  facet normal 0 -1 0
    outer loop
      vertex -5 -8.66025 -15
      vertex 5 -8.66025 15
      vertex -5 -8.66025 15
    endloop
  endfacet
  facet normal 0 -1 -0
    outer loop
      vertex 5 -8.66025 15
      vertex -5 -8.66025 -15
      vertex 5 -8.66025 -15
    endloop
  endfacet
  facet normal 0.866025 -0.5 0
    outer loop
      vertex 5 -8.66025 15
      vertex 10 0 -15
      vertex 10 0 15
    endloop
  endfacet
  facet normal 0.866025 -0.5 0
    outer loop
      vertex 10 0 -15
      vertex 5 -8.66025 15
      vertex 5 -8.66025 -15
    endloop
  endfacet
  facet normal -0.866025 -0.5 0
    outer loop
      vertex 5 0 -15
      vertex 2.5 4.33013 15
      vertex 2.5 4.33013 -15
    endloop
  endfacet
  facet normal -0.866025 -0.5 0
    outer loop
      vertex 2.5 4.33013 15
      vertex 5 0 -15
      vertex 5 0 15
    endloop
  endfacet
  facet normal 0.866025 -0.5 0
    outer loop
      vertex -5 0 15
      vertex -2.5 4.33013 -15
      vertex -2.5 4.33013 15
    endloop
  endfacet
  facet normal 0.866025 -0.5 0
    outer loop
      vertex -2.5 4.33013 -15
      vertex -5 0 15
      vertex -5 0 -15
    endloop
  endfacet
  facet normal 0 -1 0
    outer loop
      vertex -2.5 4.33013 -15
      vertex 2.5 4.33013 15
      vertex -2.5 4.33013 15
    endloop
  endfacet
  facet normal 0 -1 -0
    outer loop
      vertex 2.5 4.33013 15
      vertex -2.5 4.33013 -15
      vertex 2.5 4.33013 -15
    endloop
  endfacet
  facet normal 0.866025 0.5 0
    outer loop
      vertex -2.5 -4.33013 15
      vertex -5 0 -15
      vertex -5 0 15
    endloop
  endfacet
  facet normal 0.866025 0.5 0
    outer loop
      vertex -5 0 -15
      vertex -2.5 -4.33013 15
      vertex -2.5 -4.33013 -15
    endloop
  endfacet
  facet normal -0.866025 0.5 0
    outer loop
      vertex 2.5 -4.33013 -15
      vertex 5 0 15
      vertex 5 0 -15
    endloop
  endfacet
  facet normal -0.866025 0.5 0
    outer loop
      vertex 5 0 15
      vertex 2.5 -4.33013 -15
      vertex 2.5 -4.33013 15
    endloop
  endfacet
  facet normal 0 1 -0
    outer loop
      vertex 2.5 -4.33013 -15
      vertex -2.5 -4.33013 15
      vertex 2.5 -4.33013 15
    endloop
  endfacet
  facet normal 0 1 0
    outer loop
      vertex -2.5 -4.33013 15
      vertex 2.5 -4.33013 -15
      vertex -2.5 -4.33013 -15
    endloop
  endfacet
endsolid OpenSCAD_Model
