solid OpenSCAD_Model
  facet normal -0.980785 -0.195091 0
    outer loop
      vertex 15 0 -15
      vertex 14.6194 1.91342 15
      vertex 14.6194 1.91342 -15
    endloop
  endfacet
  facet normal -0.980785 -0.195091 0
    outer loop
      vertex 14.6194 1.91342 15
      vertex 15 0 -15
      vertex 15 0 15
    endloop
  endfacet
  facet normal -0.195091 0.980785 0
    outer loop
      vertex 11.9134 -4.6194 -15
      vertex 10 -5 15
      vertex 11.9134 -4.6194 15
    endloop
  endfacet
  facet normal -0.195091 0.980785 0
    outer loop
      vertex 10 -5 15
      vertex 11.9134 -4.6194 -15
      vertex 10 -5 -15
    endloop
  endfacet
  facet normal 0.195091 -0.980785 0
    outer loop
      vertex 8.08658 4.6194 -15
      vertex 10 5 15
      vertex 8.08658 4.6194 15
    endloop
  endfacet
  facet normal 0.195091 -0.980785 0
    outer loop
      vertex 10 5 15
      vertex 8.08658 4.6194 -15
      vertex 10 5 -15
    endloop
  endfacet
  facet normal -0.55557 0.83147 0
    outer loop
      vertex 13.5355 -3.53553 -15
      vertex 11.9134 -4.6194 15
      vertex 13.5355 -3.53553 15
    endloop
  endfacet
  facet normal -0.55557 0.83147 0
    outer loop
      vertex 11.9134 -4.6194 15
      vertex 13.5355 -3.53553 -15
      vertex 11.9134 -4.6194 -15
    endloop
  endfacet
  facet normal -0.55557 -0.83147 0
    outer loop
      vertex 11.9134 4.6194 -15
      vertex 13.5355 3.53553 15
      vertex 11.9134 4.6194 15
    endloop
  endfacet
  facet normal -0.55557 -0.83147 -0
    outer loop
      vertex 13.5355 3.53553 15
      vertex 11.9134 4.6194 -15
      vertex 13.5355 3.53553 -15
    endloop
  endfacet
  facet normal -0.83147 -0.55557 0
    outer loop
      vertex 14.6194 1.91342 -15
      vertex 13.5355 3.53553 15
      vertex 13.5355 3.53553 -15
    endloop
  endfacet
  facet normal -0.83147 -0.55557 0
    outer loop
      vertex 13.5355 3.53553 15
      vertex 14.6194 1.91342 -15
      vertex 14.6194 1.91342 15
    endloop
  endfacet
  facet normal -0.195091 -0.980785 0
    outer loop
      vertex 10 5 -15
      vertex 11.9134 4.6194 15
      vertex 10 5 15
    endloop
  endfacet
  facet normal -0.195091 -0.980785 -0
    outer loop
      vertex 11.9134 4.6194 15
      vertex 10 5 -15
      vertex 11.9134 4.6194 -15
    endloop
  endfacet
  facet normal 0.83147 -0.55557 0
    outer loop
      vertex 5.3806 1.91342 15
      vertex 6.46447 3.53553 -15
      vertex 6.46447 3.53553 15
    endloop
  endfacet
  facet normal 0.83147 -0.55557 0
    outer loop
      vertex 6.46447 3.53553 -15
      vertex 5.3806 1.91342 15
      vertex 5.3806 1.91342 -15
    endloop
  endfacet
  facet normal 0.980785 -0.19509 0
    outer loop
      vertex 5 0 15
      vertex 5.3806 1.91342 -15
      vertex 5.3806 1.91342 15
    endloop
  endfacet
  facet normal 0.980785 -0.19509 0
    outer loop
      vertex 5.3806 1.91342 -15
      vertex 5 0 15
      vertex 5 0 -15
    endloop
  endfacet
  facet normal 0.55557 -0.83147 0
    outer loop
      vertex 6.46447 3.53553 -15
      vertex 8.08658 4.6194 15
      vertex 6.46447 3.53553 15
    endloop
  endfacet
  facet normal 0.55557 -0.83147 0
    outer loop
      vertex 8.08658 4.6194 15
      vertex 6.46447 3.53553 -15
      vertex 8.08658 4.6194 -15
    endloop
  endfacet
  facet normal -0.980785 0.195091 0
    outer loop
      vertex 14.6194 -1.91342 -15
      vertex 15 0 15
      vertex 15 0 -15
    endloop
  endfacet
  facet normal -0.980785 0.195091 0
    outer loop
      vertex 15 0 15
      vertex 14.6194 -1.91342 -15
      vertex 14.6194 -1.91342 15
    endloop
  endfacet
  facet normal 0.83147 0.55557 0
    outer loop
      vertex 6.46447 -3.53553 15
      vertex 5.3806 -1.91342 -15
      vertex 5.3806 -1.91342 15
    endloop
  endfacet
  facet normal 0.83147 0.55557 0
    outer loop
      vertex 5.3806 -1.91342 -15
      vertex 6.46447 -3.53553 15
      vertex 6.46447 -3.53553 -15
    endloop
  endfacet
  facet normal 0.980785 0.19509 0
    outer loop
      vertex 5.3806 -1.91342 15
      vertex 5 0 -15
      vertex 5 0 15
    endloop
  endfacet
  facet normal 0.980785 0.19509 0
    outer loop
      vertex 5 0 -15
      vertex 5.3806 -1.91342 15
      vertex 5.3806 -1.91342 -15
    endloop
  endfacet
  facet normal -0.83147 0.55557 0
    outer loop
      vertex 13.5355 -3.53553 -15
      vertex 14.6194 -1.91342 15
      vertex 14.6194 -1.91342 -15
    endloop
  endfacet
  facet normal -0.83147 0.55557 0
    outer loop
      vertex 14.6194 -1.91342 15
      vertex 13.5355 -3.53553 -15
      vertex 13.5355 -3.53553 15
    endloop
  endfacet
  facet normal 0.195091 0.980785 -0
    outer loop
      vertex 10 -5 -15
      vertex 8.08658 -4.6194 15
      vertex 10 -5 15
    endloop
  endfacet
  facet normal 0.195091 0.980785 0
    outer loop
      vertex 8.08658 -4.6194 15
      vertex 10 -5 -15
      vertex 8.08658 -4.6194 -15
    endloop
  endfacet
  facet normal 0.55557 0.83147 -0
    outer loop
      vertex 8.08658 -4.6194 -15
      vertex 6.46447 -3.53553 15
      vertex 8.08658 -4.6194 15
    endloop
  endfacet
  facet normal 0.55557 0.83147 0
    outer loop
      vertex 6.46447 -3.53553 15
      vertex 8.08658 -4.6194 -15
      vertex 6.46447 -3.53553 -15
    endloop
  endfacet
  facet normal -0.980785 -0.195091 0
    outer loop
      vertex 5 10 -15
      vertex 4.6194 11.9134 15
      vertex 4.6194 11.9134 -15
    endloop
  endfacet
  facet normal -0.980785 -0.195091 0
    outer loop
      vertex 4.6194 11.9134 15
      vertex 5 10 -15
      vertex 5 10 15
    endloop
  endfacet
  facet normal 0.195091 -0.980785 0
    outer loop
      vertex -1.91342 14.6194 -15
      vertex 0 15 15
      vertex -1.91342 14.6194 15
    endloop
  endfacet
  facet normal 0.195091 -0.980785 0
    outer loop
      vertex 0 15 15
      vertex -1.91342 14.6194 -15
      vertex 0 15 -15
    endloop
  endfacet
  facet normal -0.19509 0.980785 0
    outer loop
      vertex 1.91342 5.3806 -15
      vertex 0 5 15
      vertex 1.91342 5.3806 15
    endloop
  endfacet
  facet normal -0.19509 0.980785 0
    outer loop
      vertex 0 5 15
      vertex 1.91342 5.3806 -15
      vertex 0 5 -15
    endloop
  endfacet
  facet normal -0.55557 0.83147 0
    outer loop
      vertex 3.53553 6.46447 -15
      vertex 1.91342 5.3806 15
      vertex 3.53553 6.46447 15
    endloop
  endfacet
  facet normal -0.55557 0.83147 0
    outer loop
      vertex 1.91342 5.3806 15
      vertex 3.53553 6.46447 -15
      vertex 1.91342 5.3806 -15
    endloop
  endfacet
  facet normal -0.55557 -0.83147 0
    outer loop
      vertex 1.91342 14.6194 -15
      vertex 3.53553 13.5355 15
      vertex 1.91342 14.6194 15
    endloop
  endfacet
  facet normal -0.55557 -0.83147 -0
    outer loop
      vertex 3.53553 13.5355 15
      vertex 1.91342 14.6194 -15
      vertex 3.53553 13.5355 -15
    endloop
  endfacet
  facet normal -0.83147 -0.55557 0
    outer loop
      vertex 4.6194 11.9134 -15
      vertex 3.53553 13.5355 15
      vertex 3.53553 13.5355 -15
    endloop
  endfacet
  facet normal -0.83147 -0.55557 0
    outer loop
      vertex 3.53553 13.5355 15
      vertex 4.6194 11.9134 -15
      vertex 4.6194 11.9134 15
    endloop
  endfacet
  facet normal -0.195091 -0.980785 0
    outer loop
      vertex 0 15 -15
      vertex 1.91342 14.6194 15
      vertex 0 15 15
    endloop
  endfacet
  facet normal -0.195091 -0.980785 -0
    outer loop
      vertex 1.91342 14.6194 15
      vertex 0 15 -15
      vertex 1.91342 14.6194 -15
    endloop
  endfacet
  facet normal 0.83147 -0.55557 0
    outer loop
      vertex -4.6194 11.9134 15
      vertex -3.53553 13.5355 -15
      vertex -3.53553 13.5355 15
    endloop
  endfacet
  facet normal 0.83147 -0.55557 0
    outer loop
      vertex -3.53553 13.5355 -15
      vertex -4.6194 11.9134 15
      vertex -4.6194 11.9134 -15
    endloop
  endfacet
  facet normal 0.980785 -0.195091 0
    outer loop
      vertex -5 10 15
      vertex -4.6194 11.9134 -15
      vertex -4.6194 11.9134 15
    endloop
  endfacet
  facet normal 0.980785 -0.195091 0
    outer loop
      vertex -4.6194 11.9134 -15
      vertex -5 10 15
      vertex -5 10 -15
    endloop
  endfacet
  facet normal 0.55557 -0.83147 0
    outer loop
      vertex -3.53553 13.5355 -15
      vertex -1.91342 14.6194 15
      vertex -3.53553 13.5355 15
    endloop
  endfacet
  facet normal 0.55557 -0.83147 0
    outer loop
      vertex -1.91342 14.6194 15
      vertex -3.53553 13.5355 -15
      vertex -1.91342 14.6194 -15
    endloop
  endfacet
  facet normal 0.19509 0.980785 -0
    outer loop
      vertex 0 5 -15
      vertex -1.91342 5.3806 15
      vertex 0 5 15
    endloop
  endfacet
  facet normal 0.19509 0.980785 0
    outer loop
      vertex -1.91342 5.3806 15
      vertex 0 5 -15
      vertex -1.91342 5.3806 -15
    endloop
  endfacet
  facet normal 0.83147 0.55557 0
    outer loop
      vertex -3.53553 6.46447 15
      vertex -4.6194 8.08658 -15
      vertex -4.6194 8.08658 15
    endloop
  endfacet
  facet normal 0.83147 0.55557 0
    outer loop
      vertex -4.6194 8.08658 -15
      vertex -3.53553 6.46447 15
      vertex -3.53553 6.46447 -15
    endloop
  endfacet
  facet normal 0.980785 0.195091 0
    outer loop
      vertex -4.6194 8.08658 15
      vertex -5 10 -15
      vertex -5 10 15
    endloop
  endfacet
  facet normal 0.980785 0.195091 0
    outer loop
      vertex -5 10 -15
      vertex -4.6194 8.08658 15
      vertex -4.6194 8.08658 -15
    endloop
  endfacet
  facet normal -0.83147 0.55557 0
    outer loop
      vertex 3.53553 6.46447 -15
      vertex 4.6194 8.08658 15
      vertex 4.6194 8.08658 -15
    endloop
  endfacet
  facet normal -0.83147 0.55557 0
    outer loop
      vertex 4.6194 8.08658 15
      vertex 3.53553 6.46447 -15
      vertex 3.53553 6.46447 15
    endloop
  endfacet
  facet normal 0.55557 0.83147 -0
    outer loop
      vertex -1.91342 5.3806 -15
      vertex -3.53553 6.46447 15
      vertex -1.91342 5.3806 15
    endloop
  endfacet
  facet normal 0.55557 0.83147 0
    outer loop
      vertex -3.53553 6.46447 15
      vertex -1.91342 5.3806 -15
      vertex -3.53553 6.46447 -15
    endloop
  endfacet
  facet normal -0.980785 0.195091 0
    outer loop
      vertex 4.6194 8.08658 -15
      vertex 5 10 15
      vertex 5 10 -15
    endloop
  endfacet
  facet normal -0.980785 0.195091 0
    outer loop
      vertex 5 10 15
      vertex 4.6194 8.08658 -15
      vertex 4.6194 8.08658 15
    endloop
  endfacet
  facet normal -0.980785 -0.195091 0
    outer loop
      vertex 5 -10 -15
      vertex 4.6194 -8.08658 15
      vertex 4.6194 -8.08658 -15
    endloop
  endfacet
  facet normal -0.980785 -0.195091 0
    outer loop
      vertex 4.6194 -8.08658 15
      vertex 5 -10 -15
      vertex 5 -10 15
    endloop
  endfacet
  facet normal 0.980785 -0.195091 0
    outer loop
      vertex -5 -10 15
      vertex -4.6194 -8.08658 -15
      vertex -4.6194 -8.08658 15
    endloop
  endfacet
  facet normal 0.980785 -0.195091 0
    outer loop
      vertex -4.6194 -8.08658 -15
      vertex -5 -10 15
      vertex -5 -10 -15
    endloop
  endfacet
  facet normal -0.19509 -0.980785 0
    outer loop
      vertex 0 -5 -15
      vertex 1.91342 -5.3806 15
      vertex 0 -5 15
    endloop
  endfacet
  facet normal -0.19509 -0.980785 -0
    outer loop
      vertex 1.91342 -5.3806 15
      vertex 0 -5 -15
      vertex 1.91342 -5.3806 -15
    endloop
  endfacet
  facet normal 0.55557 -0.83147 0
    outer loop
      vertex -3.53553 -6.46447 -15
      vertex -1.91342 -5.3806 15
      vertex -3.53553 -6.46447 15
    endloop
  endfacet
  facet normal 0.55557 -0.83147 0
    outer loop
      vertex -1.91342 -5.3806 15
      vertex -3.53553 -6.46447 -15
      vertex -1.91342 -5.3806 -15
    endloop
  endfacet
  facet normal -0.195091 0.980785 0
    outer loop
      vertex 1.91342 -14.6194 -15
      vertex 0 -15 15
      vertex 1.91342 -14.6194 15
    endloop
  endfacet
  facet normal -0.195091 0.980785 0
    outer loop
      vertex 0 -15 15
      vertex 1.91342 -14.6194 -15
      vertex 0 -15 -15
    endloop
  endfacet
  facet normal 0.195091 0.980785 -0
    outer loop
      vertex 0 -15 -15
      vertex -1.91342 -14.6194 15
      vertex 0 -15 15
    endloop
  endfacet
  facet normal 0.195091 0.980785 0
    outer loop
      vertex -1.91342 -14.6194 15
      vertex 0 -15 -15
      vertex -1.91342 -14.6194 -15
    endloop
  endfacet
  facet normal -0.55557 -0.83147 0
    outer loop
      vertex 1.91342 -5.3806 -15
      vertex 3.53553 -6.46447 15
      vertex 1.91342 -5.3806 15
    endloop
  endfacet
  facet normal -0.55557 -0.83147 -0
    outer loop
      vertex 3.53553 -6.46447 15
      vertex 1.91342 -5.3806 -15
      vertex 3.53553 -6.46447 -15
    endloop
  endfacet
  facet normal -0.83147 -0.55557 0
    outer loop
      vertex 4.6194 -8.08658 -15
      vertex 3.53553 -6.46447 15
      vertex 3.53553 -6.46447 -15
    endloop
  endfacet
  facet normal -0.83147 -0.55557 0
    outer loop
      vertex 3.53553 -6.46447 15
      vertex 4.6194 -8.08658 -15
      vertex 4.6194 -8.08658 15
    endloop
  endfacet
  facet normal 0.19509 -0.980785 0
    outer loop
      vertex -1.91342 -5.3806 -15
      vertex 0 -5 15
      vertex -1.91342 -5.3806 15
    endloop
  endfacet
  facet normal 0.19509 -0.980785 0
    outer loop
      vertex 0 -5 15
      vertex -1.91342 -5.3806 -15
      vertex 0 -5 -15
    endloop
  endfacet
  facet normal 0.83147 -0.55557 0
    outer loop
      vertex -4.6194 -8.08658 15
      vertex -3.53553 -6.46447 -15
      vertex -3.53553 -6.46447 15
    endloop
  endfacet
  facet normal 0.83147 -0.55557 0
    outer loop
      vertex -3.53553 -6.46447 -15
      vertex -4.6194 -8.08658 15
      vertex -4.6194 -8.08658 -15
    endloop
  endfacet
  facet normal 0.980785 0.195091 0
    outer loop
      vertex -4.6194 -11.9134 15
      vertex -5 -10 -15
      vertex -5 -10 15
    endloop
  endfacet
  facet normal 0.980785 0.195091 0
    outer loop
      vertex -5 -10 -15
      vertex -4.6194 -11.9134 15
      vertex -4.6194 -11.9134 -15
    endloop
  endfacet
  facet normal 0.55557 0.83147 -0
    outer loop
      vertex -1.91342 -14.6194 -15
      vertex -3.53553 -13.5355 15
      vertex -1.91342 -14.6194 15
    endloop
  endfacet
  facet normal 0.55557 0.83147 0
    outer loop
      vertex -3.53553 -13.5355 15
      vertex -1.91342 -14.6194 -15
      vertex -3.53553 -13.5355 -15
    endloop
  endfacet
  facet normal -0.83147 0.55557 0
    outer loop
      vertex 3.53553 -13.5355 -15
      vertex 4.6194 -11.9134 15
      vertex 4.6194 -11.9134 -15
    endloop
  endfacet
  facet normal -0.83147 0.55557 0
    outer loop
      vertex 4.6194 -11.9134 15
      vertex 3.53553 -13.5355 -15
      vertex 3.53553 -13.5355 15
    endloop
  endfacet
  facet normal -0.55557 0.83147 0
    outer loop
      vertex 3.53553 -13.5355 -15
      vertex 1.91342 -14.6194 15
      vertex 3.53553 -13.5355 15
    endloop
  endfacet
  facet normal -0.55557 0.83147 0
    outer loop
      vertex 1.91342 -14.6194 15
      vertex 3.53553 -13.5355 -15
      vertex 1.91342 -14.6194 -15
    endloop
  endfacet
  facet normal -0.980785 0.195091 0
    outer loop
      vertex 4.6194 -11.9134 -15
      vertex 5 -10 15
      vertex 5 -10 -15
    endloop
  endfacet
  facet normal -0.980785 0.195091 0
    outer loop
      vertex 5 -10 15
      vertex 4.6194 -11.9134 -15
      vertex 4.6194 -11.9134 15
    endloop
  endfacet
  facet normal 0.83147 0.55557 0
    outer loop
      vertex -3.53553 -13.5355 15
      vertex -4.6194 -11.9134 -15
      vertex -4.6194 -11.9134 15
    endloop
  endfacet
  facet normal 0.83147 0.55557 0
    outer loop
      vertex -4.6194 -11.9134 -15
      vertex -3.53553 -13.5355 15
      vertex -3.53553 -13.5355 -15
    endloop
  endfacet
  facet normal 0.866026 0.5 0
    outer loop
      vertex 18.2709 8.13473 15
      vertex 16.1803 11.7557 -15
      vertex 16.1803 11.7557 15
    endloop
  endfacet
  facet normal 0.866026 0.5 0
    outer loop
      vertex 16.1803 11.7557 -15
      vertex 18.2709 8.13473 15
      vertex 18.2709 8.13473 -15
    endloop
  endfacet
  facet normal -0.951057 0.309017 0
    outer loop
      vertex -19.563 4.15823 -15
      vertex -18.2709 8.13473 15
      vertex -18.2709 8.13473 -15
    endloop
  endfacet
  facet normal -0.951057 0.309017 0
    outer loop
      vertex -18.2709 8.13473 15
      vertex -19.563 4.15823 -15
      vertex -19.563 4.15823 15
    endloop
  endfacet
  facet normal 0.743145 0.669131 0
    outer loop
      vertex 16.1803 11.7557 15
      vertex 13.3826 14.8629 -15
      vertex 13.3826 14.8629 15
    endloop
  endfacet
  facet normal 0.743145 0.669131 0
    outer loop
      vertex 13.3826 14.8629 -15
      vertex 16.1803 11.7557 15
      vertex 16.1803 11.7557 -15
    endloop
  endfacet
  facet normal -0.406737 0.913545 0
    outer loop
      vertex -6.18034 19.0211 -15
      vertex -10 17.3205 15
      vertex -6.18034 19.0211 15
    endloop
  endfacet
  facet normal -0.406737 0.913545 0
    outer loop
      vertex -10 17.3205 15
      vertex -6.18034 19.0211 -15
      vertex -10 17.3205 -15
    endloop
  endfacet
  facet normal -0.866026 0.5 0
    outer loop
      vertex -18.2709 8.13473 -15
      vertex -16.1803 11.7557 15
      vertex -16.1803 11.7557 -15
    endloop
  endfacet
  facet normal -0.866026 0.5 0
    outer loop
      vertex -16.1803 11.7557 15
      vertex -18.2709 8.13473 -15
      vertex -18.2709 8.13473 15
    endloop
  endfacet
  facet normal 0.994522 -0.104529 0
    outer loop
      vertex 19.563 -4.15823 15
      vertex 20 0 -15
      vertex 20 0 15
    endloop
  endfacet
  facet normal 0.994522 -0.104529 0
    outer loop
      vertex 20 0 -15
      vertex 19.563 -4.15823 15
      vertex 19.563 -4.15823 -15
    endloop
  endfacet
  facet normal 0.587785 0.809017 -0
    outer loop
      vertex 13.3826 14.8629 -15
      vertex 10 17.3205 15
      vertex 13.3826 14.8629 15
    endloop
  endfacet
  facet normal 0.587785 0.809017 0
    outer loop
      vertex 10 17.3205 15
      vertex 13.3826 14.8629 -15
      vertex 10 17.3205 -15
    endloop
  endfacet
  facet normal 0 1 -0
    outer loop
      vertex 2.09057 19.8904 -15
      vertex -2.09057 19.8904 15
      vertex 2.09057 19.8904 15
    endloop
  endfacet
  facet normal 0 1 0
    outer loop
      vertex -2.09057 19.8904 15
      vertex 2.09057 19.8904 -15
      vertex -2.09057 19.8904 -15
    endloop
  endfacet
  facet normal 0.406737 0.913545 -0
    outer loop
      vertex 10 17.3205 -15
      vertex 6.18034 19.0211 15
      vertex 10 17.3205 15
    endloop
  endfacet
  facet normal 0.406737 0.913545 0
    outer loop
      vertex 6.18034 19.0211 15
      vertex 10 17.3205 -15
      vertex 6.18034 19.0211 -15
    endloop
  endfacet
  facet normal -0.994522 0.104529 0
    outer loop
      vertex -20 0 -15
      vertex -19.563 4.15823 15
      vertex -19.563 4.15823 -15
    endloop
  endfacet
  facet normal -0.994522 0.104529 0
    outer loop
      vertex -19.563 4.15823 15
      vertex -20 0 -15
      vertex -20 0 15
    endloop
  endfacet
  facet normal -0.587785 0.809017 0
    outer loop
      vertex -10 17.3205 -15
      vertex -13.3826 14.8629 15
      vertex -10 17.3205 15
    endloop
  endfacet
  facet normal -0.587785 0.809017 0
    outer loop
      vertex -13.3826 14.8629 15
      vertex -10 17.3205 -15
      vertex -13.3826 14.8629 -15
    endloop
  endfacet
  facet normal -0.207912 0.978148 0
    outer loop
      vertex -2.09057 19.8904 -15
      vertex -6.18034 19.0211 15
      vertex -2.09057 19.8904 15
    endloop
  endfacet
  facet normal -0.207912 0.978148 0
    outer loop
      vertex -6.18034 19.0211 15
      vertex -2.09057 19.8904 -15
      vertex -6.18034 19.0211 -15
    endloop
  endfacet
  facet normal -0.743145 0.669131 0
    outer loop
      vertex -16.1803 11.7557 -15
      vertex -13.3826 14.8629 15
      vertex -13.3826 14.8629 -15
    endloop
  endfacet
  facet normal -0.743145 0.669131 0
    outer loop
      vertex -13.3826 14.8629 15
      vertex -16.1803 11.7557 -15
      vertex -16.1803 11.7557 15
    endloop
  endfacet
  facet normal 0.994522 0.104529 0
    outer loop
      vertex 20 0 15
      vertex 19.563 4.15823 -15
      vertex 19.563 4.15823 15
    endloop
  endfacet
  facet normal 0.994522 0.104529 0
    outer loop
      vertex 19.563 4.15823 -15
      vertex 20 0 15
      vertex 20 0 -15
    endloop
  endfacet
  facet normal -0.866026 -0.5 0
    outer loop
      vertex -16.1803 -11.7557 -15
      vertex -18.2709 -8.13473 15
      vertex -18.2709 -8.13473 -15
    endloop
  endfacet
  facet normal -0.866026 -0.5 0
    outer loop
      vertex -18.2709 -8.13473 15
      vertex -16.1803 -11.7557 -15
      vertex -16.1803 -11.7557 15
    endloop
  endfacet
  facet normal 0.587785 -0.809017 0
    outer loop
      vertex 10 -17.3205 -15
      vertex 13.3826 -14.8629 15
      vertex 10 -17.3205 15
    endloop
  endfacet
  facet normal 0.587785 -0.809017 0
    outer loop
      vertex 13.3826 -14.8629 15
      vertex 10 -17.3205 -15
      vertex 13.3826 -14.8629 -15
    endloop
  endfacet
  facet normal 0.951057 0.309017 0
    outer loop
      vertex 19.563 4.15823 15
      vertex 18.2709 8.13473 -15
      vertex 18.2709 8.13473 15
    endloop
  endfacet
  facet normal 0.951057 0.309017 0
    outer loop
      vertex 18.2709 8.13473 -15
      vertex 19.563 4.15823 15
      vertex 19.563 4.15823 -15
    endloop
  endfacet
  facet normal 0.207912 0.978148 -0
    outer loop
      vertex 6.18034 19.0211 -15
      vertex 2.09057 19.8904 15
      vertex 6.18034 19.0211 15
    endloop
  endfacet
  facet normal 0.207912 0.978148 0
    outer loop
      vertex 2.09057 19.8904 15
      vertex 6.18034 19.0211 -15
      vertex 2.09057 19.8904 -15
    endloop
  endfacet
  facet normal -0 0 1
    outer loop
      vertex 14.6194 1.91342 15
      vertex 20 0 15
      vertex 19.563 4.15823 15
    endloop
  endfacet
  facet normal 0 0 1
    outer loop
      vertex 13.5355 3.53553 15
      vertex 19.563 4.15823 15
      vertex 18.2709 8.13473 15
    endloop
  endfacet
  facet normal 0 0 1
    outer loop
      vertex 14.6194 -1.91342 15
      vertex 20 0 15
      vertex 15 0 15
    endloop
  endfacet
  facet normal 0 0 1
    outer loop
      vertex 11.9134 4.6194 15
      vertex 18.2709 8.13473 15
      vertex 16.1803 11.7557 15
    endloop
  endfacet
  facet normal 0 0 1
    outer loop
      vertex 20 0 15
      vertex 14.6194 -1.91342 15
      vertex 19.563 -4.15823 15
    endloop
  endfacet
  facet normal -0 0 1
    outer loop
      vertex 13.5355 -3.53553 15
      vertex 19.563 -4.15823 15
      vertex 14.6194 -1.91342 15
    endloop
  endfacet
  facet normal 0 0 1
    outer loop
      vertex 20 0 15
      vertex 14.6194 1.91342 15
      vertex 15 0 15
    endloop
  endfacet
  facet normal 0 0 1
    outer loop
      vertex 19.563 4.15823 15
      vertex 13.5355 3.53553 15
      vertex 14.6194 1.91342 15
    endloop
  endfacet
  facet normal 0 0 1
    outer loop
      vertex 10 5 15
      vertex 16.1803 11.7557 15
      vertex 13.3826 14.8629 15
    endloop
  endfacet
  facet normal 0 0 1
    outer loop
      vertex 18.2709 8.13473 15
      vertex 11.9134 4.6194 15
      vertex 13.5355 3.53553 15
    endloop
  endfacet
  facet normal 0 0 1
    outer loop
      vertex 4.6194 11.9134 15
      vertex 13.3826 14.8629 15
      vertex 10 17.3205 15
    endloop
  endfacet
  facet normal 0 0 1
    outer loop
      vertex 16.1803 11.7557 15
      vertex 10 5 15
      vertex 11.9134 4.6194 15
    endloop
  endfacet
  facet normal 0 0 1
    outer loop
      vertex 13.3826 14.8629 15
      vertex 5 10 15
      vertex 10 5 15
    endloop
  endfacet
  facet normal 0 0 1
    outer loop
      vertex 10 5 15
      vertex 5 10 15
      vertex 8.08658 4.6194 15
    endloop
  endfacet
  facet normal 0 0 1
    outer loop
      vertex 3.53553 13.5355 15
      vertex 10 17.3205 15
      vertex 6.18034 19.0211 15
    endloop
  endfacet
  facet normal -0 0 1
    outer loop
      vertex 4.6194 8.08658 15
      vertex 8.08658 4.6194 15
      vertex 5 10 15
    endloop
  endfacet
  facet normal 0 0 1
    outer loop
      vertex 8.08658 4.6194 15
      vertex 4.6194 8.08658 15
      vertex 6.46447 3.53553 15
    endloop
  endfacet
  facet normal 0 0 1
    outer loop
      vertex 13.3826 14.8629 15
      vertex 4.6194 11.9134 15
      vertex 5 10 15
    endloop
  endfacet
  facet normal 0 0 1
    outer loop
      vertex 10 17.3205 15
      vertex 3.53553 13.5355 15
      vertex 4.6194 11.9134 15
    endloop
  endfacet
  facet normal 0 0 1
    outer loop
      vertex 1.91342 14.6194 15
      vertex 6.18034 19.0211 15
      vertex 2.09057 19.8904 15
    endloop
  endfacet
  facet normal 0 0 1
    outer loop
      vertex 6.18034 19.0211 15
      vertex 1.91342 14.6194 15
      vertex 3.53553 13.5355 15
    endloop
  endfacet
  facet normal 0 0 1
    outer loop
      vertex 2.09057 19.8904 15
      vertex 0 15 15
      vertex 1.91342 14.6194 15
    endloop
  endfacet
  facet normal -0 0 1
    outer loop
      vertex -2.09057 19.8904 15
      vertex 0 15 15
      vertex 2.09057 19.8904 15
    endloop
  endfacet
  facet normal 0 0 1
    outer loop
      vertex 0 15 15
      vertex -2.09057 19.8904 15
      vertex -1.91342 14.6194 15
    endloop
  endfacet
  facet normal -0 0 1
    outer loop
      vertex -6.18034 19.0211 15
      vertex -1.91342 14.6194 15
      vertex -2.09057 19.8904 15
    endloop
  endfacet
  facet normal 0 0 1
    outer loop
      vertex -1.91342 14.6194 15
      vertex -6.18034 19.0211 15
      vertex -3.53553 13.5355 15
    endloop
  endfacet
  facet normal -0 0 1
    outer loop
      vertex -13.3826 14.8629 15
      vertex -4.6194 11.9134 15
      vertex -10 17.3205 15
    endloop
  endfacet
  facet normal 0 0 1
    outer loop
      vertex -3.53553 13.5355 15
      vertex -10 17.3205 15
      vertex -4.6194 11.9134 15
    endloop
  endfacet
  facet normal -0 0 1
    outer loop
      vertex -10 17.3205 15
      vertex -3.53553 13.5355 15
      vertex -6.18034 19.0211 15
    endloop
  endfacet
  facet normal 0 0 1
    outer loop
      vertex 19.563 -4.15823 15
      vertex 13.5355 -3.53553 15
      vertex 18.2709 -8.13473 15
    endloop
  endfacet
  facet normal -0 0 1
    outer loop
      vertex 11.9134 -4.6194 15
      vertex 18.2709 -8.13473 15
      vertex 13.5355 -3.53553 15
    endloop
  endfacet
  facet normal 0 0 1
    outer loop
      vertex 18.2709 -8.13473 15
      vertex 11.9134 -4.6194 15
      vertex 16.1803 -11.7557 15
    endloop
  endfacet
  facet normal -0 0 1
    outer loop
      vertex 10 -5 15
      vertex 16.1803 -11.7557 15
      vertex 11.9134 -4.6194 15
    endloop
  endfacet
  facet normal 0 0 1
    outer loop
      vertex 16.1803 -11.7557 15
      vertex 10 -5 15
      vertex 13.3826 -14.8629 15
    endloop
  endfacet
  facet normal -0 0 1
    outer loop
      vertex 5 -10 15
      vertex 13.3826 -14.8629 15
      vertex 10 -5 15
    endloop
  endfacet
  facet normal 0 0 1
    outer loop
      vertex 5 -10 15
      vertex 10 -5 15
      vertex 8.08658 -4.6194 15
    endloop
  endfacet
  facet normal 0 0 1
    outer loop
      vertex 4.6194 -8.08658 15
      vertex 8.08658 -4.6194 15
      vertex 6.46447 -3.53553 15
    endloop
  endfacet
  facet normal -0 0 1
    outer loop
      vertex 4.6194 -11.9134 15
      vertex 13.3826 -14.8629 15
      vertex 5 -10 15
    endloop
  endfacet
  facet normal 0 0 1
    outer loop
      vertex 3.53553 -6.46447 15
      vertex 6.46447 -3.53553 15
      vertex 5.3806 -1.91342 15
    endloop
  endfacet
  facet normal 0 0 1
    outer loop
      vertex 1.91342 -5.3806 15
      vertex 5.3806 -1.91342 15
      vertex 5 0 15
    endloop
  endfacet
  facet normal 0 0 1
    outer loop
      vertex 13.3826 -14.8629 15
      vertex 4.6194 -11.9134 15
      vertex 10 -17.3205 15
    endloop
  endfacet
  facet normal -0 0 1
    outer loop
      vertex 3.53553 -13.5355 15
      vertex 10 -17.3205 15
      vertex 4.6194 -11.9134 15
    endloop
  endfacet
  facet normal 0 0 1
    outer loop
      vertex 10 -17.3205 15
      vertex 3.53553 -13.5355 15
      vertex 6.18034 -19.0211 15
    endloop
  endfacet
  facet normal -0 0 1
    outer loop
      vertex 1.91342 -14.6194 15
      vertex 6.18034 -19.0211 15
      vertex 3.53553 -13.5355 15
    endloop
  endfacet
  facet normal 0 0 1
    outer loop
      vertex 6.18034 -19.0211 15
      vertex 1.91342 -14.6194 15
      vertex 2.09057 -19.8904 15
    endloop
  endfacet
  facet normal -0 0 1
    outer loop
      vertex 0 -15 15
      vertex 2.09057 -19.8904 15
      vertex 1.91342 -14.6194 15
    endloop
  endfacet
  facet normal 0 0 1
    outer loop
      vertex -2.09057 -19.8904 15
      vertex 0 -15 15
      vertex -1.91342 -14.6194 15
    endloop
  endfacet
  facet normal 0 0 1
    outer loop
      vertex 0 -15 15
      vertex -2.09057 -19.8904 15
      vertex 2.09057 -19.8904 15
    endloop
  endfacet
  facet normal 0 0 1
    outer loop
      vertex -6.18034 -19.0211 15
      vertex -1.91342 -14.6194 15
      vertex -3.53553 -13.5355 15
    endloop
  endfacet
  facet normal 0 0 1
    outer loop
      vertex -10 -17.3205 15
      vertex -3.53553 -13.5355 15
      vertex -4.6194 -11.9134 15
    endloop
  endfacet
  facet normal 0 0 1
    outer loop
      vertex -1.91342 -14.6194 15
      vertex -6.18034 -19.0211 15
      vertex -2.09057 -19.8904 15
    endloop
  endfacet
  facet normal 0 0 1
    outer loop
      vertex -13.3826 -14.8629 15
      vertex -4.6194 -11.9134 15
      vertex -5 -10 15
    endloop
  endfacet
  facet normal 0 0 1
    outer loop
      vertex -4.6194 11.9134 15
      vertex -13.3826 14.8629 15
      vertex -5 10 15
    endloop
  endfacet
  facet normal -0 0 1
    outer loop
      vertex -16.1803 11.7557 15
      vertex -5 10 15
      vertex -13.3826 14.8629 15
    endloop
  endfacet
  facet normal 0 0 1
    outer loop
      vertex -3.53553 -13.5355 15
      vertex -10 -17.3205 15
      vertex -6.18034 -19.0211 15
    endloop
  endfacet
  facet normal 0 0 1
    outer loop
      vertex -18.2709 8.13473 15
      vertex -5 10 15
      vertex -16.1803 11.7557 15
    endloop
  endfacet
  facet normal 0 0 1
    outer loop
      vertex -4.6194 -11.9134 15
      vertex -13.3826 -14.8629 15
      vertex -10 -17.3205 15
    endloop
  endfacet
  facet normal 0 0 1
    outer loop
      vertex -19.563 4.15823 15
      vertex -5 10 15
      vertex -18.2709 8.13473 15
    endloop
  endfacet
  facet normal 0 0 1
    outer loop
      vertex -5 -10 15
      vertex -16.1803 -11.7557 15
      vertex -13.3826 -14.8629 15
    endloop
  endfacet
  facet normal 0 0 1
    outer loop
      vertex -20 0 15
      vertex -5 10 15
      vertex -19.563 4.15823 15
    endloop
  endfacet
  facet normal 0 0 1
    outer loop
      vertex -5 -10 15
      vertex -18.2709 -8.13473 15
      vertex -16.1803 -11.7557 15
    endloop
  endfacet
  facet normal 0 0 1
    outer loop
      vertex -5 10 15
      vertex -20 0 15
      vertex -5 -10 15
    endloop
  endfacet
  facet normal 0 0 1
    outer loop
      vertex -5 -10 15
      vertex -19.563 -4.15823 15
      vertex -18.2709 -8.13473 15
    endloop
  endfacet
  facet normal 0 0 1
    outer loop
      vertex -5 -10 15
      vertex -20 0 15
      vertex -19.563 -4.15823 15
    endloop
  endfacet
  facet normal -0 0 1
    outer loop
      vertex 3.53553 6.46447 15
      vertex 6.46447 3.53553 15
      vertex 4.6194 8.08658 15
    endloop
  endfacet
  facet normal 0 0 1
    outer loop
      vertex 6.46447 3.53553 15
      vertex 3.53553 6.46447 15
      vertex 5.3806 1.91342 15
    endloop
  endfacet
  facet normal -0 0 1
    outer loop
      vertex 1.91342 5.3806 15
      vertex 5.3806 1.91342 15
      vertex 3.53553 6.46447 15
    endloop
  endfacet
  facet normal 0 0 1
    outer loop
      vertex 8.08658 -4.6194 15
      vertex 4.6194 -8.08658 15
      vertex 5 -10 15
    endloop
  endfacet
  facet normal 0 0 1
    outer loop
      vertex 5.3806 1.91342 15
      vertex 1.91342 5.3806 15
      vertex 5 0 15
    endloop
  endfacet
  facet normal 0 0 1
    outer loop
      vertex 6.46447 -3.53553 15
      vertex 3.53553 -6.46447 15
      vertex 4.6194 -8.08658 15
    endloop
  endfacet
  facet normal -0 0 1
    outer loop
      vertex 0 5 15
      vertex 5 0 15
      vertex 1.91342 5.3806 15
    endloop
  endfacet
  facet normal 0 0 1
    outer loop
      vertex 5.3806 -1.91342 15
      vertex 1.91342 -5.3806 15
      vertex 3.53553 -6.46447 15
    endloop
  endfacet
  facet normal 0 0 1
    outer loop
      vertex 0 -5 15
      vertex 5 0 15
      vertex 0 5 15
    endloop
  endfacet
  facet normal 0 0 1
    outer loop
      vertex 5 0 15
      vertex 0 -5 15
      vertex 1.91342 -5.3806 15
    endloop
  endfacet
  facet normal 0 0 1
    outer loop
      vertex -1.91342 5.3806 15
      vertex 0 -5 15
      vertex 0 5 15
    endloop
  endfacet
  facet normal 0 0 1
    outer loop
      vertex -1.91342 5.3806 15
      vertex -1.91342 -5.3806 15
      vertex 0 -5 15
    endloop
  endfacet
  facet normal 0 0 1
    outer loop
      vertex -3.53553 6.46447 15
      vertex -1.91342 -5.3806 15
      vertex -1.91342 5.3806 15
    endloop
  endfacet
  facet normal 0 0 1
    outer loop
      vertex -3.53553 6.46447 15
      vertex -3.53553 -6.46447 15
      vertex -1.91342 -5.3806 15
    endloop
  endfacet
  facet normal 0 0 1
    outer loop
      vertex -4.6194 8.08658 15
      vertex -3.53553 -6.46447 15
      vertex -3.53553 6.46447 15
    endloop
  endfacet
  facet normal 0 0 1
    outer loop
      vertex -4.6194 8.08658 15
      vertex -4.6194 -8.08658 15
      vertex -3.53553 -6.46447 15
    endloop
  endfacet
  facet normal 0 0 1
    outer loop
      vertex -5 10 15
      vertex -4.6194 -8.08658 15
      vertex -4.6194 8.08658 15
    endloop
  endfacet
  facet normal 0 0 1
    outer loop
      vertex -4.6194 -8.08658 15
      vertex -5 10 15
      vertex -5 -10 15
    endloop
  endfacet
  facet normal 0.866026 -0.5 0
    outer loop
      vertex 16.1803 -11.7557 15
      vertex 18.2709 -8.13473 -15
      vertex 18.2709 -8.13473 15
    endloop
  endfacet
  facet normal 0.866026 -0.5 0
    outer loop
      vertex 18.2709 -8.13473 -15
      vertex 16.1803 -11.7557 15
      vertex 16.1803 -11.7557 -15
    endloop
  endfacet
  facet normal 0 -1 0
    outer loop
      vertex -2.09057 -19.8904 -15
      vertex 2.09057 -19.8904 15
      vertex -2.09057 -19.8904 15
    endloop
  endfacet
  facet normal 0 -1 -0
    outer loop
      vertex 2.09057 -19.8904 15
      vertex -2.09057 -19.8904 -15
      vertex 2.09057 -19.8904 -15
    endloop
  endfacet
  facet normal -0.994522 -0.104529 0
    outer loop
      vertex -19.563 -4.15823 -15
      vertex -20 0 15
      vertex -20 0 -15
    endloop
  endfacet
  facet normal -0.994522 -0.104529 0
    outer loop
      vertex -20 0 15
      vertex -19.563 -4.15823 -15
      vertex -19.563 -4.15823 15
    endloop
  endfacet
  facet normal 0 0 -1
    outer loop
      vertex 14.6194 -1.91342 -15
      vertex 20 0 -15
      vertex 19.563 -4.15823 -15
    endloop
  endfacet
  facet normal 0 0 -1
    outer loop
      vertex 13.5355 -3.53553 -15
      vertex 19.563 -4.15823 -15
      vertex 18.2709 -8.13473 -15
    endloop
  endfacet
  facet normal 0 0 -1
    outer loop
      vertex 14.6194 1.91342 -15
      vertex 20 0 -15
      vertex 15 0 -15
    endloop
  endfacet
  facet normal 0 0 -1
    outer loop
      vertex 11.9134 -4.6194 -15
      vertex 18.2709 -8.13473 -15
      vertex 16.1803 -11.7557 -15
    endloop
  endfacet
  facet normal 0 0 -1
    outer loop
      vertex 20 0 -15
      vertex 14.6194 1.91342 -15
      vertex 19.563 4.15823 -15
    endloop
  endfacet
  facet normal 0 0 -1
    outer loop
      vertex 13.5355 3.53553 -15
      vertex 19.563 4.15823 -15
      vertex 14.6194 1.91342 -15
    endloop
  endfacet
  facet normal -0 0 -1
    outer loop
      vertex 20 0 -15
      vertex 14.6194 -1.91342 -15
      vertex 15 0 -15
    endloop
  endfacet
  facet normal 0 0 -1
    outer loop
      vertex 19.563 -4.15823 -15
      vertex 13.5355 -3.53553 -15
      vertex 14.6194 -1.91342 -15
    endloop
  endfacet
  facet normal 0 0 -1
    outer loop
      vertex 10 -5 -15
      vertex 16.1803 -11.7557 -15
      vertex 13.3826 -14.8629 -15
    endloop
  endfacet
  facet normal 0 0 -1
    outer loop
      vertex 18.2709 -8.13473 -15
      vertex 11.9134 -4.6194 -15
      vertex 13.5355 -3.53553 -15
    endloop
  endfacet
  facet normal 0 0 -1
    outer loop
      vertex 4.6194 -11.9134 -15
      vertex 13.3826 -14.8629 -15
      vertex 10 -17.3205 -15
    endloop
  endfacet
  facet normal 0 0 -1
    outer loop
      vertex 16.1803 -11.7557 -15
      vertex 10 -5 -15
      vertex 11.9134 -4.6194 -15
    endloop
  endfacet
  facet normal 0 0 -1
    outer loop
      vertex 13.3826 -14.8629 -15
      vertex 5 -10 -15
      vertex 10 -5 -15
    endloop
  endfacet
  facet normal -0 0 -1
    outer loop
      vertex 10 -5 -15
      vertex 5 -10 -15
      vertex 8.08658 -4.6194 -15
    endloop
  endfacet
  facet normal 0 0 -1
    outer loop
      vertex 3.53553 -13.5355 -15
      vertex 10 -17.3205 -15
      vertex 6.18034 -19.0211 -15
    endloop
  endfacet
  facet normal 0 0 -1
    outer loop
      vertex 4.6194 -8.08658 -15
      vertex 8.08658 -4.6194 -15
      vertex 5 -10 -15
    endloop
  endfacet
  facet normal -0 0 -1
    outer loop
      vertex 8.08658 -4.6194 -15
      vertex 4.6194 -8.08658 -15
      vertex 6.46447 -3.53553 -15
    endloop
  endfacet
  facet normal 0 0 -1
    outer loop
      vertex 13.3826 -14.8629 -15
      vertex 4.6194 -11.9134 -15
      vertex 5 -10 -15
    endloop
  endfacet
  facet normal 0 0 -1
    outer loop
      vertex 10 -17.3205 -15
      vertex 3.53553 -13.5355 -15
      vertex 4.6194 -11.9134 -15
    endloop
  endfacet
  facet normal 0 0 -1
    outer loop
      vertex 1.91342 -14.6194 -15
      vertex 6.18034 -19.0211 -15
      vertex 2.09057 -19.8904 -15
    endloop
  endfacet
  facet normal 0 0 -1
    outer loop
      vertex 6.18034 -19.0211 -15
      vertex 1.91342 -14.6194 -15
      vertex 3.53553 -13.5355 -15
    endloop
  endfacet
  facet normal 0 0 -1
    outer loop
      vertex 2.09057 -19.8904 -15
      vertex 0 -15 -15
      vertex 1.91342 -14.6194 -15
    endloop
  endfacet
  facet normal 0 0 -1
    outer loop
      vertex -2.09057 -19.8904 -15
      vertex 0 -15 -15
      vertex 2.09057 -19.8904 -15
    endloop
  endfacet
  facet normal -0 0 -1
    outer loop
      vertex 0 -15 -15
      vertex -2.09057 -19.8904 -15
      vertex -1.91342 -14.6194 -15
    endloop
  endfacet
  facet normal 0 0 -1
    outer loop
      vertex -6.18034 -19.0211 -15
      vertex -1.91342 -14.6194 -15
      vertex -2.09057 -19.8904 -15
    endloop
  endfacet
  facet normal -0 0 -1
    outer loop
      vertex -1.91342 -14.6194 -15
      vertex -6.18034 -19.0211 -15
      vertex -3.53553 -13.5355 -15
    endloop
  endfacet
  facet normal 0 0 -1
    outer loop
      vertex -13.3826 -14.8629 -15
      vertex -4.6194 -11.9134 -15
      vertex -10 -17.3205 -15
    endloop
  endfacet
  facet normal -0 0 -1
    outer loop
      vertex -3.53553 -13.5355 -15
      vertex -10 -17.3205 -15
      vertex -4.6194 -11.9134 -15
    endloop
  endfacet
  facet normal 0 0 -1
    outer loop
      vertex -10 -17.3205 -15
      vertex -3.53553 -13.5355 -15
      vertex -6.18034 -19.0211 -15
    endloop
  endfacet
  facet normal -0 0 -1
    outer loop
      vertex 19.563 4.15823 -15
      vertex 13.5355 3.53553 -15
      vertex 18.2709 8.13473 -15
    endloop
  endfacet
  facet normal 0 0 -1
    outer loop
      vertex 11.9134 4.6194 -15
      vertex 18.2709 8.13473 -15
      vertex 13.5355 3.53553 -15
    endloop
  endfacet
  facet normal -0 0 -1
    outer loop
      vertex 18.2709 8.13473 -15
      vertex 11.9134 4.6194 -15
      vertex 16.1803 11.7557 -15
    endloop
  endfacet
  facet normal 0 0 -1
    outer loop
      vertex 10 5 -15
      vertex 16.1803 11.7557 -15
      vertex 11.9134 4.6194 -15
    endloop
  endfacet
  facet normal -0 0 -1
    outer loop
      vertex 16.1803 11.7557 -15
      vertex 10 5 -15
      vertex 13.3826 14.8629 -15
    endloop
  endfacet
  facet normal 0 0 -1
    outer loop
      vertex 5 10 -15
      vertex 13.3826 14.8629 -15
      vertex 10 5 -15
    endloop
  endfacet
  facet normal 0 0 -1
    outer loop
      vertex 5 10 -15
      vertex 10 5 -15
      vertex 8.08658 4.6194 -15
    endloop
  endfacet
  facet normal 0 0 -1
    outer loop
      vertex 4.6194 8.08658 -15
      vertex 8.08658 4.6194 -15
      vertex 6.46447 3.53553 -15
    endloop
  endfacet
  facet normal 0 0 -1
    outer loop
      vertex 4.6194 11.9134 -15
      vertex 13.3826 14.8629 -15
      vertex 5 10 -15
    endloop
  endfacet
  facet normal 0 0 -1
    outer loop
      vertex 3.53553 6.46447 -15
      vertex 6.46447 3.53553 -15
      vertex 5.3806 1.91342 -15
    endloop
  endfacet
  facet normal 0 0 -1
    outer loop
      vertex 1.91342 5.3806 -15
      vertex 5.3806 1.91342 -15
      vertex 5 0 -15
    endloop
  endfacet
  facet normal -0 0 -1
    outer loop
      vertex 13.3826 14.8629 -15
      vertex 4.6194 11.9134 -15
      vertex 10 17.3205 -15
    endloop
  endfacet
  facet normal 0 0 -1
    outer loop
      vertex 3.53553 13.5355 -15
      vertex 10 17.3205 -15
      vertex 4.6194 11.9134 -15
    endloop
  endfacet
  facet normal -0 0 -1
    outer loop
      vertex 10 17.3205 -15
      vertex 3.53553 13.5355 -15
      vertex 6.18034 19.0211 -15
    endloop
  endfacet
  facet normal 0 0 -1
    outer loop
      vertex 1.91342 14.6194 -15
      vertex 6.18034 19.0211 -15
      vertex 3.53553 13.5355 -15
    endloop
  endfacet
  facet normal -0 0 -1
    outer loop
      vertex 6.18034 19.0211 -15
      vertex 1.91342 14.6194 -15
      vertex 2.09057 19.8904 -15
    endloop
  endfacet
  facet normal 0 0 -1
    outer loop
      vertex 0 15 -15
      vertex 2.09057 19.8904 -15
      vertex 1.91342 14.6194 -15
    endloop
  endfacet
  facet normal 0 0 -1
    outer loop
      vertex -2.09057 19.8904 -15
      vertex 0 15 -15
      vertex -1.91342 14.6194 -15
    endloop
  endfacet
  facet normal 0 0 -1
    outer loop
      vertex 0 15 -15
      vertex -2.09057 19.8904 -15
      vertex 2.09057 19.8904 -15
    endloop
  endfacet
  facet normal 0 0 -1
    outer loop
      vertex -6.18034 19.0211 -15
      vertex -1.91342 14.6194 -15
      vertex -3.53553 13.5355 -15
    endloop
  endfacet
  facet normal 0 0 -1
    outer loop
      vertex -10 17.3205 -15
      vertex -3.53553 13.5355 -15
      vertex -4.6194 11.9134 -15
    endloop
  endfacet
  facet normal 0 0 -1
    outer loop
      vertex -1.91342 14.6194 -15
      vertex -6.18034 19.0211 -15
      vertex -2.09057 19.8904 -15
    endloop
  endfacet
  facet normal 0 0 -1
    outer loop
      vertex -13.3826 14.8629 -15
      vertex -4.6194 11.9134 -15
      vertex -5 10 -15
    endloop
  endfacet
  facet normal -0 0 -1
    outer loop
      vertex -4.6194 -11.9134 -15
      vertex -13.3826 -14.8629 -15
      vertex -5 -10 -15
    endloop
  endfacet
  facet normal 0 0 -1
    outer loop
      vertex -3.53553 13.5355 -15
      vertex -10 17.3205 -15
      vertex -6.18034 19.0211 -15
    endloop
  endfacet
  facet normal 0 0 -1
    outer loop
      vertex -16.1803 -11.7557 -15
      vertex -5 -10 -15
      vertex -13.3826 -14.8629 -15
    endloop
  endfacet
  facet normal 0 0 -1
    outer loop
      vertex -18.2709 -8.13473 -15
      vertex -5 -10 -15
      vertex -16.1803 -11.7557 -15
    endloop
  endfacet
  facet normal 0 0 -1
    outer loop
      vertex -4.6194 11.9134 -15
      vertex -13.3826 14.8629 -15
      vertex -10 17.3205 -15
    endloop
  endfacet
  facet normal 0 0 -1
    outer loop
      vertex -19.563 -4.15823 -15
      vertex -5 -10 -15
      vertex -18.2709 -8.13473 -15
    endloop
  endfacet
  facet normal 0 0 -1
    outer loop
      vertex -5 10 -15
      vertex -16.1803 11.7557 -15
      vertex -13.3826 14.8629 -15
    endloop
  endfacet
  facet normal 0 0 -1
    outer loop
      vertex -20 0 -15
      vertex -5 -10 -15
      vertex -19.563 -4.15823 -15
    endloop
  endfacet
  facet normal -0 0 -1
    outer loop
      vertex -5 10 -15
      vertex -18.2709 8.13473 -15
      vertex -16.1803 11.7557 -15
    endloop
  endfacet
  facet normal 0 0 -1
    outer loop
      vertex -5 -10 -15
      vertex -20 0 -15
      vertex -5 10 -15
    endloop
  endfacet
  facet normal 0 0 -1
    outer loop
      vertex -5 10 -15
      vertex -19.563 4.15823 -15
      vertex -18.2709 8.13473 -15
    endloop
  endfacet
  facet normal 0 0 -1
    outer loop
      vertex -5 10 -15
      vertex -20 0 -15
      vertex -19.563 4.15823 -15
    endloop
  endfacet
  facet normal 0 0 -1
    outer loop
      vertex 3.53553 -6.46447 -15
      vertex 6.46447 -3.53553 -15
      vertex 4.6194 -8.08658 -15
    endloop
  endfacet
  facet normal -0 0 -1
    outer loop
      vertex 6.46447 -3.53553 -15
      vertex 3.53553 -6.46447 -15
      vertex 5.3806 -1.91342 -15
    endloop
  endfacet
  facet normal 0 0 -1
    outer loop
      vertex 1.91342 -5.3806 -15
      vertex 5.3806 -1.91342 -15
      vertex 3.53553 -6.46447 -15
    endloop
  endfacet
  facet normal 0 0 -1
    outer loop
      vertex 8.08658 4.6194 -15
      vertex 4.6194 8.08658 -15
      vertex 5 10 -15
    endloop
  endfacet
  facet normal -0 0 -1
    outer loop
      vertex 5.3806 -1.91342 -15
      vertex 1.91342 -5.3806 -15
      vertex 5 0 -15
    endloop
  endfacet
  facet normal 0 0 -1
    outer loop
      vertex 6.46447 3.53553 -15
      vertex 3.53553 6.46447 -15
      vertex 4.6194 8.08658 -15
    endloop
  endfacet
  facet normal 0 0 -1
    outer loop
      vertex 0 -5 -15
      vertex 5 0 -15
      vertex 1.91342 -5.3806 -15
    endloop
  endfacet
  facet normal 0 0 -1
    outer loop
      vertex 5.3806 1.91342 -15
      vertex 1.91342 5.3806 -15
      vertex 3.53553 6.46447 -15
    endloop
  endfacet
  facet normal 0 0 -1
    outer loop
      vertex 0 5 -15
      vertex 5 0 -15
      vertex 0 -5 -15
    endloop
  endfacet
  facet normal 0 0 -1
    outer loop
      vertex 5 0 -15
      vertex 0 5 -15
      vertex 1.91342 5.3806 -15
    endloop
  endfacet
  facet normal 0 0 -1
    outer loop
      vertex -1.91342 -5.3806 -15
      vertex 0 5 -15
      vertex 0 -5 -15
    endloop
  endfacet
  facet normal 0 0 -1
    outer loop
      vertex -1.91342 -5.3806 -15
      vertex -1.91342 5.3806 -15
      vertex 0 5 -15
    endloop
  endfacet
  facet normal 0 0 -1
    outer loop
      vertex -3.53553 -6.46447 -15
      vertex -1.91342 5.3806 -15
      vertex -1.91342 -5.3806 -15
    endloop
  endfacet
  facet normal 0 0 -1
    outer loop
      vertex -3.53553 -6.46447 -15
      vertex -3.53553 6.46447 -15
      vertex -1.91342 5.3806 -15
    endloop
  endfacet
  facet normal 0 0 -1
    outer loop
      vertex -4.6194 -8.08658 -15
      vertex -3.53553 6.46447 -15
      vertex -3.53553 -6.46447 -15
    endloop
  endfacet
  facet normal 0 0 -1
    outer loop
      vertex -4.6194 -8.08658 -15
      vertex -4.6194 8.08658 -15
      vertex -3.53553 6.46447 -15
    endloop
  endfacet
  facet normal 0 0 -1
    outer loop
      vertex -5 -10 -15
      vertex -4.6194 8.08658 -15
      vertex -4.6194 -8.08658 -15
    endloop
  endfacet
  facet normal -0 0 -1
    outer loop
      vertex -4.6194 8.08658 -15
      vertex -5 -10 -15
      vertex -5 10 -15
    endloop
  endfacet
  facet normal 0.207912 -0.978148 0
    outer loop
      vertex 2.09057 -19.8904 -15
      vertex 6.18034 -19.0211 15
      vertex 2.09057 -19.8904 15
    endloop
  endfacet
  facet normal 0.207912 -0.978148 0
    outer loop
      vertex 6.18034 -19.0211 15
      vertex 2.09057 -19.8904 -15
      vertex 6.18034 -19.0211 -15
    endloop
  endfacet
  facet normal 0.406737 -0.913545 0
    outer loop
      vertex 6.18034 -19.0211 -15
      vertex 10 -17.3205 15
      vertex 6.18034 -19.0211 15
    endloop
  endfacet
  facet normal 0.406737 -0.913545 0
    outer loop
      vertex 10 -17.3205 15
      vertex 6.18034 -19.0211 -15
      vertex 10 -17.3205 -15
    endloop
  endfacet
  facet normal 0.951057 -0.309017 0
    outer loop
      vertex 18.2709 -8.13473 15
      vertex 19.563 -4.15823 -15
      vertex 19.563 -4.15823 15
    endloop
  endfacet
  facet normal 0.951057 -0.309017 0
    outer loop
      vertex 19.563 -4.15823 -15
      vertex 18.2709 -8.13473 15
      vertex 18.2709 -8.13473 -15
    endloop
  endfacet
  facet normal -0.951057 -0.309017 0
    outer loop
      vertex -18.2709 -8.13473 -15
      vertex -19.563 -4.15823 15
      vertex -19.563 -4.15823 -15
    endloop
  endfacet
  facet normal -0.951057 -0.309017 0
    outer loop
      vertex -19.563 -4.15823 15
      vertex -18.2709 -8.13473 -15
      vertex -18.2709 -8.13473 15
    endloop
  endfacet
  facet normal -0.743145 -0.669131 0
    outer loop
      vertex -13.3826 -14.8629 -15
      vertex -16.1803 -11.7557 15
      vertex -16.1803 -11.7557 -15
    endloop
  endfacet
  facet normal -0.743145 -0.669131 0
    outer loop
      vertex -16.1803 -11.7557 15
      vertex -13.3826 -14.8629 -15
      vertex -13.3826 -14.8629 15
    endloop
  endfacet
  facet normal 0.743145 -0.669131 0
    outer loop
      vertex 13.3826 -14.8629 15
      vertex 16.1803 -11.7557 -15
      vertex 16.1803 -11.7557 15
    endloop
  endfacet
  facet normal 0.743145 -0.669131 0
    outer loop
      vertex 16.1803 -11.7557 -15
      vertex 13.3826 -14.8629 15
      vertex 13.3826 -14.8629 -15
    endloop
  endfacet
  facet normal -0.406737 -0.913545 0
    outer loop
      vertex -10 -17.3205 -15
      vertex -6.18034 -19.0211 15
      vertex -10 -17.3205 15
    endloop
  endfacet
  facet normal -0.406737 -0.913545 -0
    outer loop
      vertex -6.18034 -19.0211 15
      vertex -10 -17.3205 -15
      vertex -6.18034 -19.0211 -15
    endloop
  endfacet
  facet normal -0.587785 -0.809017 0
    outer loop
      vertex -13.3826 -14.8629 -15
      vertex -10 -17.3205 15
      vertex -13.3826 -14.8629 15
    endloop
  endfacet
  facet normal -0.587785 -0.809017 -0
    outer loop
      vertex -10 -17.3205 15
      vertex -13.3826 -14.8629 -15
      vertex -10 -17.3205 -15
    endloop
  endfacet
  facet normal -0.207912 -0.978148 0
    outer loop
      vertex -6.18034 -19.0211 -15
      vertex -2.09057 -19.8904 15
      vertex -6.18034 -19.0211 15
    endloop
  endfacet
  facet normal -0.207912 -0.978148 -0
    outer loop
      vertex -2.09057 -19.8904 15
      vertex -6.18034 -19.0211 -15
      vertex -2.09057 -19.8904 -15
    endloop
  endfacet
  facet normal 0.900969 0.433884 0
    outer loop
      vertex 12 0 17.5
      vertex 11.247 1.56366 -17.5
      vertex 11.247 1.56366 17.5
    endloop
  endfacet
  facet normal 0.900969 0.433884 0
    outer loop
      vertex 11.247 1.56366 -17.5
      vertex 12 0 17.5
      vertex 12 0 -17.5
    endloop
  endfacet
  facet normal -1 0 0
    outer loop
      vertex 8.19806 -0.867767 -17.5
      vertex 8.19806 0.867767 17.5
      vertex 8.19806 0.867767 -17.5
    endloop
  endfacet
  facet normal -1 -0 0
    outer loop
      vertex 8.19806 0.867767 17.5
      vertex 8.19806 -0.867767 -17.5
      vertex 8.19806 -0.867767 17.5
    endloop
  endfacet
  facet normal 0.222521 0.974928 -0
    outer loop
      vertex 11.247 1.56366 -17.5
      vertex 9.55496 1.94986 17.5
      vertex 11.247 1.56366 17.5
    endloop
  endfacet
  facet normal 0.222521 0.974928 0
    outer loop
      vertex 9.55496 1.94986 17.5
      vertex 11.247 1.56366 -17.5
      vertex 9.55496 1.94986 -17.5
    endloop
  endfacet
  facet normal -0.62349 -0.781831 0
    outer loop
      vertex 8.19806 -0.867767 -17.5
      vertex 9.55496 -1.94986 17.5
      vertex 8.19806 -0.867767 17.5
    endloop
  endfacet
  facet normal -0.62349 -0.781831 -0
    outer loop
      vertex 9.55496 -1.94986 17.5
      vertex 8.19806 -0.867767 -17.5
      vertex 9.55496 -1.94986 -17.5
    endloop
  endfacet
  facet normal 0 0 1
    outer loop
      vertex 11.247 1.56366 17.5
      vertex 11.247 -1.56366 17.5
      vertex 12 0 17.5
    endloop
  endfacet
  facet normal 0 0 1
    outer loop
      vertex 9.55496 1.94986 17.5
      vertex 11.247 -1.56366 17.5
      vertex 11.247 1.56366 17.5
    endloop
  endfacet
  facet normal 0 0 1
    outer loop
      vertex 9.55496 1.94986 17.5
      vertex 9.55496 -1.94986 17.5
      vertex 11.247 -1.56366 17.5
    endloop
  endfacet
  facet normal -0 0 1
    outer loop
      vertex 8.19806 0.867767 17.5
      vertex 9.55496 -1.94986 17.5
      vertex 9.55496 1.94986 17.5
    endloop
  endfacet
  facet normal 0 0 1
    outer loop
      vertex 9.55496 -1.94986 17.5
      vertex 8.19806 0.867767 17.5
      vertex 8.19806 -0.867767 17.5
    endloop
  endfacet
  facet normal -0.62349 0.781831 0
    outer loop
      vertex 9.55496 1.94986 -17.5
      vertex 8.19806 0.867767 17.5
      vertex 9.55496 1.94986 17.5
    endloop
  endfacet
  facet normal -0.62349 0.781831 0
    outer loop
      vertex 8.19806 0.867767 17.5
      vertex 9.55496 1.94986 -17.5
      vertex 8.19806 0.867767 -17.5
    endloop
  endfacet
  facet normal 0 0 -1
    outer loop
      vertex 11.247 -1.56366 -17.5
      vertex 11.247 1.56366 -17.5
      vertex 12 0 -17.5
    endloop
  endfacet
  facet normal 0 0 -1
    outer loop
      vertex 9.55496 -1.94986 -17.5
      vertex 11.247 1.56366 -17.5
      vertex 11.247 -1.56366 -17.5
    endloop
  endfacet
  facet normal 0 0 -1
    outer loop
      vertex 9.55496 -1.94986 -17.5
      vertex 9.55496 1.94986 -17.5
      vertex 11.247 1.56366 -17.5
    endloop
  endfacet
  facet normal 0 0 -1
    outer loop
      vertex 8.19806 -0.867767 -17.5
      vertex 9.55496 1.94986 -17.5
      vertex 9.55496 -1.94986 -17.5
    endloop
  endfacet
  facet normal 0 0 -1
    outer loop
      vertex 9.55496 1.94986 -17.5
      vertex 8.19806 -0.867767 -17.5
      vertex 8.19806 0.867767 -17.5
    endloop
  endfacet
  facet normal 0.222521 -0.974928 0
    outer loop
      vertex 9.55496 -1.94986 -17.5
      vertex 11.247 -1.56366 17.5
      vertex 9.55496 -1.94986 17.5
    endloop
  endfacet
  facet normal 0.222521 -0.974928 0
    outer loop
      vertex 11.247 -1.56366 17.5
      vertex 9.55496 -1.94986 -17.5
      vertex 11.247 -1.56366 -17.5
    endloop
  endfacet
  facet normal 0.900969 -0.433884 0
    outer loop
      vertex 11.247 -1.56366 17.5
      vertex 12 0 -17.5
      vertex 12 0 17.5
    endloop
  endfacet
  facet normal 0.900969 -0.433884 0
    outer loop
      vertex 12 0 -17.5
      vertex 11.247 -1.56366 17.5
      vertex 11.247 -1.56366 -17.5
    endloop
  endfacet
  facet normal 0.866026 0.5 0
    outer loop
      vertex 63.2709 8.13473 17.5
      vertex 61.1803 11.7557 -17.5
      vertex 61.1803 11.7557 17.5
    endloop
  endfacet
  facet normal 0.866026 0.5 0
    outer loop
      vertex 61.1803 11.7557 -17.5
      vertex 63.2709 8.13473 17.5
      vertex 63.2709 8.13473 -17.5
    endloop
  endfacet
  facet normal 0 0 -1
    outer loop
      vertex 64.563 -4.15823 -17.5
      vertex 64.563 4.15823 -17.5
      vertex 65 0 -17.5
    endloop
  endfacet
  facet normal 0 0 -1
    outer loop
      vertex 63.2709 -8.13473 -17.5
      vertex 64.563 4.15823 -17.5
      vertex 64.563 -4.15823 -17.5
    endloop
  endfacet
  facet normal 0 0 -1
    outer loop
      vertex 63.2709 -8.13473 -17.5
      vertex 63.2709 8.13473 -17.5
      vertex 64.563 4.15823 -17.5
    endloop
  endfacet
  facet normal 0 0 -1
    outer loop
      vertex 61.1803 -11.7557 -17.5
      vertex 63.2709 8.13473 -17.5
      vertex 63.2709 -8.13473 -17.5
    endloop
  endfacet
  facet normal 0 0 -1
    outer loop
      vertex 61.1803 -11.7557 -17.5
      vertex 61.1803 11.7557 -17.5
      vertex 63.2709 8.13473 -17.5
    endloop
  endfacet
  facet normal 0 0 -1
    outer loop
      vertex 58.3826 -14.8629 -17.5
      vertex 61.1803 11.7557 -17.5
      vertex 61.1803 -11.7557 -17.5
    endloop
  endfacet
  facet normal 0 0 -1
    outer loop
      vertex 58.3826 -14.8629 -17.5
      vertex 58.3826 14.8629 -17.5
      vertex 61.1803 11.7557 -17.5
    endloop
  endfacet
  facet normal 0 0 -1
    outer loop
      vertex 55 -17.3205 -17.5
      vertex 58.3826 14.8629 -17.5
      vertex 58.3826 -14.8629 -17.5
    endloop
  endfacet
  facet normal 0 0 -1
    outer loop
      vertex 55 -17.3205 -17.5
      vertex 55 17.3205 -17.5
      vertex 58.3826 14.8629 -17.5
    endloop
  endfacet
  facet normal 0 0 -1
    outer loop
      vertex 51.1803 -19.0211 -17.5
      vertex 55 17.3205 -17.5
      vertex 55 -17.3205 -17.5
    endloop
  endfacet
  facet normal 0 0 -1
    outer loop
      vertex 51.1803 -19.0211 -17.5
      vertex 51.1803 19.0211 -17.5
      vertex 55 17.3205 -17.5
    endloop
  endfacet
  facet normal 0 0 -1
    outer loop
      vertex 47.0906 -19.8904 -17.5
      vertex 51.1803 19.0211 -17.5
      vertex 51.1803 -19.0211 -17.5
    endloop
  endfacet
  facet normal 0 0 -1
    outer loop
      vertex 47.0906 -19.8904 -17.5
      vertex 47.0906 19.8904 -17.5
      vertex 51.1803 19.0211 -17.5
    endloop
  endfacet
  facet normal 0 0 -1
    outer loop
      vertex 42.9094 -19.8904 -17.5
      vertex 47.0906 19.8904 -17.5
      vertex 47.0906 -19.8904 -17.5
    endloop
  endfacet
  facet normal 0 0 -1
    outer loop
      vertex 42.9094 -19.8904 -17.5
      vertex 42.9094 19.8904 -17.5
      vertex 47.0906 19.8904 -17.5
    endloop
  endfacet
  facet normal 0 0 -1
    outer loop
      vertex 38.8197 -19.0211 -17.5
      vertex 42.9094 19.8904 -17.5
      vertex 42.9094 -19.8904 -17.5
    endloop
  endfacet
  facet normal 0 0 -1
    outer loop
      vertex 38.8197 -19.0211 -17.5
      vertex 38.8197 19.0211 -17.5
      vertex 42.9094 19.8904 -17.5
    endloop
  endfacet
  facet normal 0 0 -1
    outer loop
      vertex 35 -17.3205 -17.5
      vertex 38.8197 19.0211 -17.5
      vertex 38.8197 -19.0211 -17.5
    endloop
  endfacet
  facet normal 0 0 -1
    outer loop
      vertex 35 -17.3205 -17.5
      vertex 35 17.3205 -17.5
      vertex 38.8197 19.0211 -17.5
    endloop
  endfacet
  facet normal 0 0 -1
    outer loop
      vertex 31.6174 -14.8629 -17.5
      vertex 35 17.3205 -17.5
      vertex 35 -17.3205 -17.5
    endloop
  endfacet
  facet normal 0 0 -1
    outer loop
      vertex 31.6174 -14.8629 -17.5
      vertex 31.6174 14.8629 -17.5
      vertex 35 17.3205 -17.5
    endloop
  endfacet
  facet normal 0 0 -1
    outer loop
      vertex 28.8197 -11.7557 -17.5
      vertex 31.6174 14.8629 -17.5
      vertex 31.6174 -14.8629 -17.5
    endloop
  endfacet
  facet normal 0 0 -1
    outer loop
      vertex 28.8197 -11.7557 -17.5
      vertex 28.8197 11.7557 -17.5
      vertex 31.6174 14.8629 -17.5
    endloop
  endfacet
  facet normal 0 0 -1
    outer loop
      vertex 26.7291 -8.13473 -17.5
      vertex 28.8197 11.7557 -17.5
      vertex 28.8197 -11.7557 -17.5
    endloop
  endfacet
  facet normal 0 0 -1
    outer loop
      vertex 26.7291 -8.13473 -17.5
      vertex 26.7291 8.13473 -17.5
      vertex 28.8197 11.7557 -17.5
    endloop
  endfacet
  facet normal 0 0 -1
    outer loop
      vertex 25.437 -4.15823 -17.5
      vertex 26.7291 8.13473 -17.5
      vertex 26.7291 -8.13473 -17.5
    endloop
  endfacet
  facet normal 0 0 -1
    outer loop
      vertex 25.437 -4.15823 -17.5
      vertex 25.437 4.15823 -17.5
      vertex 26.7291 8.13473 -17.5
    endloop
  endfacet
  facet normal 0 -0 -1
    outer loop
      vertex 25.437 4.15823 -17.5
      vertex 25.437 -4.15823 -17.5
      vertex 25 0 -17.5
    endloop
  endfacet
  facet normal 0.743145 0.669131 0
    outer loop
      vertex 61.1803 11.7557 17.5
      vertex 58.3826 14.8629 -17.5
      vertex 58.3826 14.8629 17.5
    endloop
  endfacet
  facet normal 0.743145 0.669131 0
    outer loop
      vertex 58.3826 14.8629 -17.5
      vertex 61.1803 11.7557 17.5
      vertex 61.1803 11.7557 -17.5
    endloop
  endfacet
  facet normal 0 1 -0
    outer loop
      vertex 47.0906 19.8904 -17.5
      vertex 42.9094 19.8904 17.5
      vertex 47.0906 19.8904 17.5
    endloop
  endfacet
  facet normal 0 1 0
    outer loop
      vertex 42.9094 19.8904 17.5
      vertex 47.0906 19.8904 -17.5
      vertex 42.9094 19.8904 -17.5
    endloop
  endfacet
  facet normal 0.207912 0.978148 -0
    outer loop
      vertex 51.1803 19.0211 -17.5
      vertex 47.0906 19.8904 17.5
      vertex 51.1803 19.0211 17.5
    endloop
  endfacet
  facet normal 0.207912 0.978148 0
    outer loop
      vertex 47.0906 19.8904 17.5
      vertex 51.1803 19.0211 -17.5
      vertex 47.0906 19.8904 -17.5
    endloop
  endfacet
  facet normal -0.406737 0.913545 0
    outer loop
      vertex 38.8197 19.0211 -17.5
      vertex 35 17.3205 17.5
      vertex 38.8197 19.0211 17.5
    endloop
  endfacet
  facet normal -0.406737 0.913545 0
    outer loop
      vertex 35 17.3205 17.5
      vertex 38.8197 19.0211 -17.5
      vertex 35 17.3205 -17.5
    endloop
  endfacet
  facet normal -0.951056 0.309017 0
    outer loop
      vertex 25.437 4.15823 -17.5
      vertex 26.7291 8.13473 17.5
      vertex 26.7291 8.13473 -17.5
    endloop
  endfacet
  facet normal -0.951056 0.309017 0
    outer loop
      vertex 26.7291 8.13473 17.5
      vertex 25.437 4.15823 -17.5
      vertex 25.437 4.15823 17.5
    endloop
  endfacet
  facet normal 0.994522 -0.104529 0
    outer loop
      vertex 64.563 -4.15823 17.5
      vertex 65 0 -17.5
      vertex 65 0 17.5
    endloop
  endfacet
  facet normal 0.994522 -0.104529 0
    outer loop
      vertex 65 0 -17.5
      vertex 64.563 -4.15823 17.5
      vertex 64.563 -4.15823 -17.5
    endloop
  endfacet
  facet normal 0.951057 0.309017 0
    outer loop
      vertex 64.563 4.15823 17.5
      vertex 63.2709 8.13473 -17.5
      vertex 63.2709 8.13473 17.5
    endloop
  endfacet
  facet normal 0.951057 0.309017 0
    outer loop
      vertex 63.2709 8.13473 -17.5
      vertex 64.563 4.15823 17.5
      vertex 64.563 4.15823 -17.5
    endloop
  endfacet
  facet normal 0.587785 0.809017 -0
    outer loop
      vertex 58.3826 14.8629 -17.5
      vertex 55 17.3205 17.5
      vertex 58.3826 14.8629 17.5
    endloop
  endfacet
  facet normal 0.587785 0.809017 0
    outer loop
      vertex 55 17.3205 17.5
      vertex 58.3826 14.8629 -17.5
      vertex 55 17.3205 -17.5
    endloop
  endfacet
  facet normal -0.207912 0.978148 0
    outer loop
      vertex 42.9094 19.8904 -17.5
      vertex 38.8197 19.0211 17.5
      vertex 42.9094 19.8904 17.5
    endloop
  endfacet
  facet normal -0.207912 0.978148 0
    outer loop
      vertex 38.8197 19.0211 17.5
      vertex 42.9094 19.8904 -17.5
      vertex 38.8197 19.0211 -17.5
    endloop
  endfacet
  facet normal 0.406737 0.913545 -0
    outer loop
      vertex 55 17.3205 -17.5
      vertex 51.1803 19.0211 17.5
      vertex 55 17.3205 17.5
    endloop
  endfacet
  facet normal 0.406737 0.913545 0
    outer loop
      vertex 51.1803 19.0211 17.5
      vertex 55 17.3205 -17.5
      vertex 51.1803 19.0211 -17.5
    endloop
  endfacet
  facet normal -0.994522 -0.104528 0
    outer loop
      vertex 25.437 -4.15823 -17.5
      vertex 25 0 17.5
      vertex 25 0 -17.5
    endloop
  endfacet
  facet normal -0.994522 -0.104528 0
    outer loop
      vertex 25 0 17.5
      vertex 25.437 -4.15823 -17.5
      vertex 25.437 -4.15823 17.5
    endloop
  endfacet
  facet normal -0.866026 0.5 0
    outer loop
      vertex 26.7291 8.13473 -17.5
      vertex 28.8197 11.7557 17.5
      vertex 28.8197 11.7557 -17.5
    endloop
  endfacet
  facet normal -0.866026 0.5 0
    outer loop
      vertex 28.8197 11.7557 17.5
      vertex 26.7291 8.13473 -17.5
      vertex 26.7291 8.13473 17.5
    endloop
  endfacet
  facet normal -0.587785 0.809017 0
    outer loop
      vertex 35 17.3205 -17.5
      vertex 31.6174 14.8629 17.5
      vertex 35 17.3205 17.5
    endloop
  endfacet
  facet normal -0.587785 0.809017 0
    outer loop
      vertex 31.6174 14.8629 17.5
      vertex 35 17.3205 -17.5
      vertex 31.6174 14.8629 -17.5
    endloop
  endfacet
  facet normal -0.743145 0.669131 0
    outer loop
      vertex 28.8197 11.7557 -17.5
      vertex 31.6174 14.8629 17.5
      vertex 31.6174 14.8629 -17.5
    endloop
  endfacet
  facet normal -0.743145 0.669131 0
    outer loop
      vertex 31.6174 14.8629 17.5
      vertex 28.8197 11.7557 -17.5
      vertex 28.8197 11.7557 17.5
    endloop
  endfacet
  facet normal 0.994522 0.104529 0
    outer loop
      vertex 65 0 17.5
      vertex 64.563 4.15823 -17.5
      vertex 64.563 4.15823 17.5
    endloop
  endfacet
  facet normal 0.994522 0.104529 0
    outer loop
      vertex 64.563 4.15823 -17.5
      vertex 65 0 17.5
      vertex 65 0 -17.5
    endloop
  endfacet
  facet normal 0.587785 -0.809017 0
    outer loop
      vertex 55 -17.3205 -17.5
      vertex 58.3826 -14.8629 17.5
      vertex 55 -17.3205 17.5
    endloop
  endfacet
  facet normal 0.587785 -0.809017 0
    outer loop
      vertex 58.3826 -14.8629 17.5
      vertex 55 -17.3205 -17.5
      vertex 58.3826 -14.8629 -17.5
    endloop
  endfacet
  facet normal 0.866026 -0.5 0
    outer loop
      vertex 61.1803 -11.7557 17.5
      vertex 63.2709 -8.13473 -17.5
      vertex 63.2709 -8.13473 17.5
    endloop
  endfacet
  facet normal 0.866026 -0.5 0
    outer loop
      vertex 63.2709 -8.13473 -17.5
      vertex 61.1803 -11.7557 17.5
      vertex 61.1803 -11.7557 -17.5
    endloop
  endfacet
  facet normal 0.406737 -0.913545 0
    outer loop
      vertex 51.1803 -19.0211 -17.5
      vertex 55 -17.3205 17.5
      vertex 51.1803 -19.0211 17.5
    endloop
  endfacet
  facet normal 0.406737 -0.913545 0
    outer loop
      vertex 55 -17.3205 17.5
      vertex 51.1803 -19.0211 -17.5
      vertex 55 -17.3205 -17.5
    endloop
  endfacet
  facet normal 0 0 1
    outer loop
      vertex 64.563 4.15823 17.5
      vertex 64.563 -4.15823 17.5
      vertex 65 0 17.5
    endloop
  endfacet
  facet normal 0 0 1
    outer loop
      vertex 63.2709 8.13473 17.5
      vertex 64.563 -4.15823 17.5
      vertex 64.563 4.15823 17.5
    endloop
  endfacet
  facet normal 0 0 1
    outer loop
      vertex 63.2709 8.13473 17.5
      vertex 63.2709 -8.13473 17.5
      vertex 64.563 -4.15823 17.5
    endloop
  endfacet
  facet normal 0 0 1
    outer loop
      vertex 61.1803 11.7557 17.5
      vertex 63.2709 -8.13473 17.5
      vertex 63.2709 8.13473 17.5
    endloop
  endfacet
  facet normal 0 0 1
    outer loop
      vertex 61.1803 11.7557 17.5
      vertex 61.1803 -11.7557 17.5
      vertex 63.2709 -8.13473 17.5
    endloop
  endfacet
  facet normal 0 0 1
    outer loop
      vertex 58.3826 14.8629 17.5
      vertex 61.1803 -11.7557 17.5
      vertex 61.1803 11.7557 17.5
    endloop
  endfacet
  facet normal 0 0 1
    outer loop
      vertex 58.3826 14.8629 17.5
      vertex 58.3826 -14.8629 17.5
      vertex 61.1803 -11.7557 17.5
    endloop
  endfacet
  facet normal 0 0 1
    outer loop
      vertex 55 17.3205 17.5
      vertex 58.3826 -14.8629 17.5
      vertex 58.3826 14.8629 17.5
    endloop
  endfacet
  facet normal 0 0 1
    outer loop
      vertex 55 17.3205 17.5
      vertex 55 -17.3205 17.5
      vertex 58.3826 -14.8629 17.5
    endloop
  endfacet
  facet normal 0 0 1
    outer loop
      vertex 51.1803 19.0211 17.5
      vertex 55 -17.3205 17.5
      vertex 55 17.3205 17.5
    endloop
  endfacet
  facet normal 0 0 1
    outer loop
      vertex 51.1803 19.0211 17.5
      vertex 51.1803 -19.0211 17.5
      vertex 55 -17.3205 17.5
    endloop
  endfacet
  facet normal 0 0 1
    outer loop
      vertex 47.0906 19.8904 17.5
      vertex 51.1803 -19.0211 17.5
      vertex 51.1803 19.0211 17.5
    endloop
  endfacet
  facet normal 0 0 1
    outer loop
      vertex 47.0906 19.8904 17.5
      vertex 47.0906 -19.8904 17.5
      vertex 51.1803 -19.0211 17.5
    endloop
  endfacet
  facet normal -0 0 1
    outer loop
      vertex 42.9094 19.8904 17.5
      vertex 47.0906 -19.8904 17.5
      vertex 47.0906 19.8904 17.5
    endloop
  endfacet
  facet normal 0 0 1
    outer loop
      vertex 42.9094 19.8904 17.5
      vertex 42.9094 -19.8904 17.5
      vertex 47.0906 -19.8904 17.5
    endloop
  endfacet
  facet normal -0 0 1
    outer loop
      vertex 38.8197 19.0211 17.5
      vertex 42.9094 -19.8904 17.5
      vertex 42.9094 19.8904 17.5
    endloop
  endfacet
  facet normal 0 0 1
    outer loop
      vertex 38.8197 19.0211 17.5
      vertex 38.8197 -19.0211 17.5
      vertex 42.9094 -19.8904 17.5
    endloop
  endfacet
  facet normal -0 0 1
    outer loop
      vertex 35 17.3205 17.5
      vertex 38.8197 -19.0211 17.5
      vertex 38.8197 19.0211 17.5
    endloop
  endfacet
  facet normal 0 0 1
    outer loop
      vertex 35 17.3205 17.5
      vertex 35 -17.3205 17.5
      vertex 38.8197 -19.0211 17.5
    endloop
  endfacet
  facet normal -0 0 1
    outer loop
      vertex 31.6174 14.8629 17.5
      vertex 35 -17.3205 17.5
      vertex 35 17.3205 17.5
    endloop
  endfacet
  facet normal 0 0 1
    outer loop
      vertex 31.6174 14.8629 17.5
      vertex 31.6174 -14.8629 17.5
      vertex 35 -17.3205 17.5
    endloop
  endfacet
  facet normal -0 0 1
    outer loop
      vertex 28.8197 11.7557 17.5
      vertex 31.6174 -14.8629 17.5
      vertex 31.6174 14.8629 17.5
    endloop
  endfacet
  facet normal 0 0 1
    outer loop
      vertex 28.8197 11.7557 17.5
      vertex 28.8197 -11.7557 17.5
      vertex 31.6174 -14.8629 17.5
    endloop
  endfacet
  facet normal -0 0 1
    outer loop
      vertex 26.7291 8.13473 17.5
      vertex 28.8197 -11.7557 17.5
      vertex 28.8197 11.7557 17.5
    endloop
  endfacet
  facet normal 0 0 1
    outer loop
      vertex 26.7291 8.13473 17.5
      vertex 26.7291 -8.13473 17.5
      vertex 28.8197 -11.7557 17.5
    endloop
  endfacet
  facet normal -0 0 1
    outer loop
      vertex 25.437 4.15823 17.5
      vertex 26.7291 -8.13473 17.5
      vertex 26.7291 8.13473 17.5
    endloop
  endfacet
  facet normal 0 0 1
    outer loop
      vertex 25.437 4.15823 17.5
      vertex 25.437 -4.15823 17.5
      vertex 26.7291 -8.13473 17.5
    endloop
  endfacet
  facet normal 0 -0 1
    outer loop
      vertex 25.437 -4.15823 17.5
      vertex 25.437 4.15823 17.5
      vertex 25 0 17.5
    endloop
  endfacet
  facet normal -0.994522 0.104528 0
    outer loop
      vertex 25 0 -17.5
      vertex 25.437 4.15823 17.5
      vertex 25.437 4.15823 -17.5
    endloop
  endfacet
  facet normal -0.994522 0.104528 0
    outer loop
      vertex 25.437 4.15823 17.5
      vertex 25 0 -17.5
      vertex 25 0 17.5
    endloop
  endfacet
  facet normal 0 -1 0
    outer loop
      vertex 42.9094 -19.8904 -17.5
      vertex 47.0906 -19.8904 17.5
      vertex 42.9094 -19.8904 17.5
    endloop
  endfacet
  facet normal 0 -1 -0
    outer loop
      vertex 47.0906 -19.8904 17.5
      vertex 42.9094 -19.8904 -17.5
      vertex 47.0906 -19.8904 -17.5
    endloop
  endfacet
  facet normal -0.951056 -0.309017 0
    outer loop
      vertex 26.7291 -8.13473 -17.5
      vertex 25.437 -4.15823 17.5
      vertex 25.437 -4.15823 -17.5
    endloop
  endfacet
  facet normal -0.951056 -0.309017 0
    outer loop
      vertex 25.437 -4.15823 17.5
      vertex 26.7291 -8.13473 -17.5
      vertex 26.7291 -8.13473 17.5
    endloop
  endfacet
  facet normal 0.743145 -0.669131 0
    outer loop
      vertex 58.3826 -14.8629 17.5
      vertex 61.1803 -11.7557 -17.5
      vertex 61.1803 -11.7557 17.5
    endloop
  endfacet
  facet normal 0.743145 -0.669131 0
    outer loop
      vertex 61.1803 -11.7557 -17.5
      vertex 58.3826 -14.8629 17.5
      vertex 58.3826 -14.8629 -17.5
    endloop
  endfacet
  facet normal 0.951057 -0.309017 0
    outer loop
      vertex 63.2709 -8.13473 17.5
      vertex 64.563 -4.15823 -17.5
      vertex 64.563 -4.15823 17.5
    endloop
  endfacet
  facet normal 0.951057 -0.309017 0
    outer loop
      vertex 64.563 -4.15823 -17.5
      vertex 63.2709 -8.13473 17.5
      vertex 63.2709 -8.13473 -17.5
    endloop
  endfacet
  facet normal -0.406737 -0.913545 0
    outer loop
      vertex 35 -17.3205 -17.5
      vertex 38.8197 -19.0211 17.5
      vertex 35 -17.3205 17.5
    endloop
  endfacet
  facet normal -0.406737 -0.913545 -0
    outer loop
      vertex 38.8197 -19.0211 17.5
      vertex 35 -17.3205 -17.5
      vertex 38.8197 -19.0211 -17.5
    endloop
  endfacet
  facet normal 0.207912 -0.978148 0
    outer loop
      vertex 47.0906 -19.8904 -17.5
      vertex 51.1803 -19.0211 17.5
      vertex 47.0906 -19.8904 17.5
    endloop
  endfacet
  facet normal 0.207912 -0.978148 0
    outer loop
      vertex 51.1803 -19.0211 17.5
      vertex 47.0906 -19.8904 -17.5
      vertex 51.1803 -19.0211 -17.5
    endloop
  endfacet
  facet normal -0.207912 -0.978148 0
    outer loop
      vertex 38.8197 -19.0211 -17.5
      vertex 42.9094 -19.8904 17.5
      vertex 38.8197 -19.0211 17.5
    endloop
  endfacet
  facet normal -0.207912 -0.978148 -0
    outer loop
      vertex 42.9094 -19.8904 17.5
      vertex 38.8197 -19.0211 -17.5
      vertex 42.9094 -19.8904 -17.5
    endloop
  endfacet
  facet normal -0.866026 -0.5 0
    outer loop
      vertex 28.8197 -11.7557 -17.5
      vertex 26.7291 -8.13473 17.5
      vertex 26.7291 -8.13473 -17.5
    endloop
  endfacet
  facet normal -0.866026 -0.5 0
    outer loop
      vertex 26.7291 -8.13473 17.5
      vertex 28.8197 -11.7557 -17.5
      vertex 28.8197 -11.7557 17.5
    endloop
  endfacet
  facet normal -0.587785 -0.809017 0
    outer loop
      vertex 31.6174 -14.8629 -17.5
      vertex 35 -17.3205 17.5
      vertex 31.6174 -14.8629 17.5
    endloop
  endfacet
  facet normal -0.587785 -0.809017 -0
    outer loop
      vertex 35 -17.3205 17.5
      vertex 31.6174 -14.8629 -17.5
      vertex 35 -17.3205 -17.5
    endloop
  endfacet
  facet normal -0.743145 -0.669131 0
    outer loop
      vertex 31.6174 -14.8629 -17.5
      vertex 28.8197 -11.7557 17.5
      vertex 28.8197 -11.7557 -17.5
    endloop
  endfacet
  facet normal -0.743145 -0.669131 0
    outer loop
      vertex 28.8197 -11.7557 17.5
      vertex 31.6174 -14.8629 -17.5
      vertex 31.6174 -14.8629 17.5
    endloop
  endfacet
  facet normal 0.994522 0.104528 0
    outer loop
      vertex -25 20 17.5
      vertex -25.437 24.1582 -17.5
      vertex -25.437 24.1582 17.5
    endloop
  endfacet
  facet normal 0.994522 0.104528 0
    outer loop
      vertex -25.437 24.1582 -17.5
      vertex -25 20 17.5
      vertex -25 20 -17.5
    endloop
  endfacet
  facet normal -0.994522 0.104529 0
    outer loop
      vertex -65 20 -17.5
      vertex -64.563 24.1582 17.5
      vertex -64.563 24.1582 -17.5
    endloop
  endfacet
  facet normal -0.994522 0.104529 0
    outer loop
      vertex -64.563 24.1582 17.5
      vertex -65 20 -17.5
      vertex -65 20 17.5
    endloop
  endfacet
  facet normal 0 1 -0
    outer loop
      vertex -42.9094 39.8904 -17.5
      vertex -47.0906 39.8904 17.5
      vertex -42.9094 39.8904 17.5
    endloop
  endfacet
  facet normal 0 1 0
    outer loop
      vertex -47.0906 39.8904 17.5
      vertex -42.9094 39.8904 -17.5
      vertex -47.0906 39.8904 -17.5
    endloop
  endfacet
  facet normal 0.587785 0.809017 -0
    outer loop
      vertex -31.6174 34.8629 -17.5
      vertex -35 37.3205 17.5
      vertex -31.6174 34.8629 17.5
    endloop
  endfacet
  facet normal 0.587785 0.809017 0
    outer loop
      vertex -35 37.3205 17.5
      vertex -31.6174 34.8629 -17.5
      vertex -35 37.3205 -17.5
    endloop
  endfacet
  facet normal 0.406737 0.913545 -0
    outer loop
      vertex -35 37.3205 -17.5
      vertex -38.8197 39.0211 17.5
      vertex -35 37.3205 17.5
    endloop
  endfacet
  facet normal 0.406737 0.913545 0
    outer loop
      vertex -38.8197 39.0211 17.5
      vertex -35 37.3205 -17.5
      vertex -38.8197 39.0211 -17.5
    endloop
  endfacet
  facet normal -0.743145 0.669131 0
    outer loop
      vertex -61.1803 31.7557 -17.5
      vertex -58.3826 34.8629 17.5
      vertex -58.3826 34.8629 -17.5
    endloop
  endfacet
  facet normal -0.743145 0.669131 0
    outer loop
      vertex -58.3826 34.8629 17.5
      vertex -61.1803 31.7557 -17.5
      vertex -61.1803 31.7557 17.5
    endloop
  endfacet
  facet normal -0.866026 0.5 0
    outer loop
      vertex -63.2709 28.1347 -17.5
      vertex -61.1803 31.7557 17.5
      vertex -61.1803 31.7557 -17.5
    endloop
  endfacet
  facet normal -0.866026 0.5 0
    outer loop
      vertex -61.1803 31.7557 17.5
      vertex -63.2709 28.1347 -17.5
      vertex -63.2709 28.1347 17.5
    endloop
  endfacet
  facet normal -0.406737 0.913545 0
    outer loop
      vertex -51.1803 39.0211 -17.5
      vertex -55 37.3205 17.5
      vertex -51.1803 39.0211 17.5
    endloop
  endfacet
  facet normal -0.406737 0.913545 0
    outer loop
      vertex -55 37.3205 17.5
      vertex -51.1803 39.0211 -17.5
      vertex -55 37.3205 -17.5
    endloop
  endfacet
  facet normal 0.866026 0.5 0
    outer loop
      vertex -26.7291 28.1347 17.5
      vertex -28.8197 31.7557 -17.5
      vertex -28.8197 31.7557 17.5
    endloop
  endfacet
  facet normal 0.866026 0.5 0
    outer loop
      vertex -28.8197 31.7557 -17.5
      vertex -26.7291 28.1347 17.5
      vertex -26.7291 28.1347 -17.5
    endloop
  endfacet
  facet normal 0.951056 0.309017 0
    outer loop
      vertex -25.437 24.1582 17.5
      vertex -26.7291 28.1347 -17.5
      vertex -26.7291 28.1347 17.5
    endloop
  endfacet
  facet normal 0.951056 0.309017 0
    outer loop
      vertex -26.7291 28.1347 -17.5
      vertex -25.437 24.1582 17.5
      vertex -25.437 24.1582 -17.5
    endloop
  endfacet
  facet normal 0.743145 0.669131 0
    outer loop
      vertex -28.8197 31.7557 17.5
      vertex -31.6174 34.8629 -17.5
      vertex -31.6174 34.8629 17.5
    endloop
  endfacet
  facet normal 0.743145 0.669131 0
    outer loop
      vertex -31.6174 34.8629 -17.5
      vertex -28.8197 31.7557 17.5
      vertex -28.8197 31.7557 -17.5
    endloop
  endfacet
  facet normal 0.207912 0.978148 -0
    outer loop
      vertex -38.8197 39.0211 -17.5
      vertex -42.9094 39.8904 17.5
      vertex -38.8197 39.0211 17.5
    endloop
  endfacet
  facet normal 0.207912 0.978148 0
    outer loop
      vertex -42.9094 39.8904 17.5
      vertex -38.8197 39.0211 -17.5
      vertex -42.9094 39.8904 -17.5
    endloop
  endfacet
  facet normal -0.951057 0.309017 0
    outer loop
      vertex -64.563 24.1582 -17.5
      vertex -63.2709 28.1347 17.5
      vertex -63.2709 28.1347 -17.5
    endloop
  endfacet
  facet normal -0.951057 0.309017 0
    outer loop
      vertex -63.2709 28.1347 17.5
      vertex -64.563 24.1582 -17.5
      vertex -64.563 24.1582 17.5
    endloop
  endfacet
  facet normal 0 0 1
    outer loop
      vertex -25.437 24.1582 17.5
      vertex -25.437 15.8418 17.5
      vertex -25 20 17.5
    endloop
  endfacet
  facet normal 0 0 1
    outer loop
      vertex -26.7291 28.1347 17.5
      vertex -25.437 15.8418 17.5
      vertex -25.437 24.1582 17.5
    endloop
  endfacet
  facet normal 0 0 1
    outer loop
      vertex -26.7291 28.1347 17.5
      vertex -26.7291 11.8653 17.5
      vertex -25.437 15.8418 17.5
    endloop
  endfacet
  facet normal 0 0 1
    outer loop
      vertex -28.8197 31.7557 17.5
      vertex -26.7291 11.8653 17.5
      vertex -26.7291 28.1347 17.5
    endloop
  endfacet
  facet normal 0 0 1
    outer loop
      vertex -28.8197 31.7557 17.5
      vertex -28.8197 8.24429 17.5
      vertex -26.7291 11.8653 17.5
    endloop
  endfacet
  facet normal 0 0 1
    outer loop
      vertex -31.6174 34.8629 17.5
      vertex -28.8197 8.24429 17.5
      vertex -28.8197 31.7557 17.5
    endloop
  endfacet
  facet normal 0 0 1
    outer loop
      vertex -31.6174 34.8629 17.5
      vertex -31.6174 5.1371 17.5
      vertex -28.8197 8.24429 17.5
    endloop
  endfacet
  facet normal 0 0 1
    outer loop
      vertex -35 37.3205 17.5
      vertex -31.6174 5.1371 17.5
      vertex -31.6174 34.8629 17.5
    endloop
  endfacet
  facet normal 0 0 1
    outer loop
      vertex -35 37.3205 17.5
      vertex -35 2.67949 17.5
      vertex -31.6174 5.1371 17.5
    endloop
  endfacet
  facet normal 0 0 1
    outer loop
      vertex -38.8197 39.0211 17.5
      vertex -35 2.67949 17.5
      vertex -35 37.3205 17.5
    endloop
  endfacet
  facet normal 0 0 1
    outer loop
      vertex -38.8197 39.0211 17.5
      vertex -38.8197 0.978869 17.5
      vertex -35 2.67949 17.5
    endloop
  endfacet
  facet normal 0 0 1
    outer loop
      vertex -42.9094 39.8904 17.5
      vertex -38.8197 0.978869 17.5
      vertex -38.8197 39.0211 17.5
    endloop
  endfacet
  facet normal 0 0 1
    outer loop
      vertex -42.9094 39.8904 17.5
      vertex -42.9094 0.109562 17.5
      vertex -38.8197 0.978869 17.5
    endloop
  endfacet
  facet normal -0 0 1
    outer loop
      vertex -47.0906 39.8904 17.5
      vertex -42.9094 0.109562 17.5
      vertex -42.9094 39.8904 17.5
    endloop
  endfacet
  facet normal 0 0 1
    outer loop
      vertex -47.0906 39.8904 17.5
      vertex -47.0906 0.109562 17.5
      vertex -42.9094 0.109562 17.5
    endloop
  endfacet
  facet normal -0 0 1
    outer loop
      vertex -51.1803 39.0211 17.5
      vertex -47.0906 0.109562 17.5
      vertex -47.0906 39.8904 17.5
    endloop
  endfacet
  facet normal 0 0 1
    outer loop
      vertex -51.1803 39.0211 17.5
      vertex -51.1803 0.978869 17.5
      vertex -47.0906 0.109562 17.5
    endloop
  endfacet
  facet normal -0 0 1
    outer loop
      vertex -55 37.3205 17.5
      vertex -51.1803 0.978869 17.5
      vertex -51.1803 39.0211 17.5
    endloop
  endfacet
  facet normal 0 0 1
    outer loop
      vertex -55 37.3205 17.5
      vertex -55 2.67949 17.5
      vertex -51.1803 0.978869 17.5
    endloop
  endfacet
  facet normal -0 0 1
    outer loop
      vertex -58.3826 34.8629 17.5
      vertex -55 2.67949 17.5
      vertex -55 37.3205 17.5
    endloop
  endfacet
  facet normal 0 0 1
    outer loop
      vertex -58.3826 34.8629 17.5
      vertex -58.3826 5.1371 17.5
      vertex -55 2.67949 17.5
    endloop
  endfacet
  facet normal -0 0 1
    outer loop
      vertex -61.1803 31.7557 17.5
      vertex -58.3826 5.1371 17.5
      vertex -58.3826 34.8629 17.5
    endloop
  endfacet
  facet normal 0 0 1
    outer loop
      vertex -61.1803 31.7557 17.5
      vertex -61.1803 8.24429 17.5
      vertex -58.3826 5.1371 17.5
    endloop
  endfacet
  facet normal -0 0 1
    outer loop
      vertex -63.2709 28.1347 17.5
      vertex -61.1803 8.24429 17.5
      vertex -61.1803 31.7557 17.5
    endloop
  endfacet
  facet normal 0 0 1
    outer loop
      vertex -63.2709 28.1347 17.5
      vertex -63.2709 11.8653 17.5
      vertex -61.1803 8.24429 17.5
    endloop
  endfacet
  facet normal -0 0 1
    outer loop
      vertex -64.563 24.1582 17.5
      vertex -63.2709 11.8653 17.5
      vertex -63.2709 28.1347 17.5
    endloop
  endfacet
  facet normal 0 0 1
    outer loop
      vertex -64.563 24.1582 17.5
      vertex -64.563 15.8418 17.5
      vertex -63.2709 11.8653 17.5
    endloop
  endfacet
  facet normal 0 -0 1
    outer loop
      vertex -64.563 15.8418 17.5
      vertex -64.563 24.1582 17.5
      vertex -65 20 17.5
    endloop
  endfacet
  facet normal -0.587785 0.809017 0
    outer loop
      vertex -55 37.3205 -17.5
      vertex -58.3826 34.8629 17.5
      vertex -55 37.3205 17.5
    endloop
  endfacet
  facet normal -0.587785 0.809017 0
    outer loop
      vertex -58.3826 34.8629 17.5
      vertex -55 37.3205 -17.5
      vertex -58.3826 34.8629 -17.5
    endloop
  endfacet
  facet normal -0.207912 0.978148 0
    outer loop
      vertex -47.0906 39.8904 -17.5
      vertex -51.1803 39.0211 17.5
      vertex -47.0906 39.8904 17.5
    endloop
  endfacet
  facet normal -0.207912 0.978148 0
    outer loop
      vertex -51.1803 39.0211 17.5
      vertex -47.0906 39.8904 -17.5
      vertex -51.1803 39.0211 -17.5
    endloop
  endfacet
  facet normal 0.994522 -0.104528 0
    outer loop
      vertex -25.437 15.8418 17.5
      vertex -25 20 -17.5
      vertex -25 20 17.5
    endloop
  endfacet
  facet normal 0.994522 -0.104528 0
    outer loop
      vertex -25 20 -17.5
      vertex -25.437 15.8418 17.5
      vertex -25.437 15.8418 -17.5
    endloop
  endfacet
  facet normal -0.207912 -0.978148 0
    outer loop
      vertex -51.1803 0.978869 -17.5
      vertex -47.0906 0.109562 17.5
      vertex -51.1803 0.978869 17.5
    endloop
  endfacet
  facet normal -0.207912 -0.978148 -0
    outer loop
      vertex -47.0906 0.109562 17.5
      vertex -51.1803 0.978869 -17.5
      vertex -47.0906 0.109562 -17.5
    endloop
  endfacet
  facet normal 0 0 -1
    outer loop
      vertex -25.437 15.8418 -17.5
      vertex -25.437 24.1582 -17.5
      vertex -25 20 -17.5
    endloop
  endfacet
  facet normal 0 0 -1
    outer loop
      vertex -26.7291 11.8653 -17.5
      vertex -25.437 24.1582 -17.5
      vertex -25.437 15.8418 -17.5
    endloop
  endfacet
  facet normal 0 0 -1
    outer loop
      vertex -26.7291 11.8653 -17.5
      vertex -26.7291 28.1347 -17.5
      vertex -25.437 24.1582 -17.5
    endloop
  endfacet
  facet normal 0 0 -1
    outer loop
      vertex -28.8197 8.24429 -17.5
      vertex -26.7291 28.1347 -17.5
      vertex -26.7291 11.8653 -17.5
    endloop
  endfacet
  facet normal 0 0 -1
    outer loop
      vertex -28.8197 8.24429 -17.5
      vertex -28.8197 31.7557 -17.5
      vertex -26.7291 28.1347 -17.5
    endloop
  endfacet
  facet normal 0 0 -1
    outer loop
      vertex -31.6174 5.1371 -17.5
      vertex -28.8197 31.7557 -17.5
      vertex -28.8197 8.24429 -17.5
    endloop
  endfacet
  facet normal 0 0 -1
    outer loop
      vertex -31.6174 5.1371 -17.5
      vertex -31.6174 34.8629 -17.5
      vertex -28.8197 31.7557 -17.5
    endloop
  endfacet
  facet normal 0 0 -1
    outer loop
      vertex -35 2.67949 -17.5
      vertex -31.6174 34.8629 -17.5
      vertex -31.6174 5.1371 -17.5
    endloop
  endfacet
  facet normal 0 0 -1
    outer loop
      vertex -35 2.67949 -17.5
      vertex -35 37.3205 -17.5
      vertex -31.6174 34.8629 -17.5
    endloop
  endfacet
  facet normal 0 0 -1
    outer loop
      vertex -38.8197 0.978869 -17.5
      vertex -35 37.3205 -17.5
      vertex -35 2.67949 -17.5
    endloop
  endfacet
  facet normal 0 0 -1
    outer loop
      vertex -38.8197 0.978869 -17.5
      vertex -38.8197 39.0211 -17.5
      vertex -35 37.3205 -17.5
    endloop
  endfacet
  facet normal 0 0 -1
    outer loop
      vertex -42.9094 0.109562 -17.5
      vertex -38.8197 39.0211 -17.5
      vertex -38.8197 0.978869 -17.5
    endloop
  endfacet
  facet normal 0 0 -1
    outer loop
      vertex -42.9094 0.109562 -17.5
      vertex -42.9094 39.8904 -17.5
      vertex -38.8197 39.0211 -17.5
    endloop
  endfacet
  facet normal 0 0 -1
    outer loop
      vertex -47.0906 0.109562 -17.5
      vertex -42.9094 39.8904 -17.5
      vertex -42.9094 0.109562 -17.5
    endloop
  endfacet
  facet normal 0 0 -1
    outer loop
      vertex -47.0906 0.109562 -17.5
      vertex -47.0906 39.8904 -17.5
      vertex -42.9094 39.8904 -17.5
    endloop
  endfacet
  facet normal 0 0 -1
    outer loop
      vertex -51.1803 0.978869 -17.5
      vertex -47.0906 39.8904 -17.5
      vertex -47.0906 0.109562 -17.5
    endloop
  endfacet
  facet normal 0 0 -1
    outer loop
      vertex -51.1803 0.978869 -17.5
      vertex -51.1803 39.0211 -17.5
      vertex -47.0906 39.8904 -17.5
    endloop
  endfacet
  facet normal 0 0 -1
    outer loop
      vertex -55 2.67949 -17.5
      vertex -51.1803 39.0211 -17.5
      vertex -51.1803 0.978869 -17.5
    endloop
  endfacet
  facet normal 0 0 -1
    outer loop
      vertex -55 2.67949 -17.5
      vertex -55 37.3205 -17.5
      vertex -51.1803 39.0211 -17.5
    endloop
  endfacet
  facet normal 0 0 -1
    outer loop
      vertex -58.3826 5.1371 -17.5
      vertex -55 37.3205 -17.5
      vertex -55 2.67949 -17.5
    endloop
  endfacet
  facet normal 0 0 -1
    outer loop
      vertex -58.3826 5.1371 -17.5
      vertex -58.3826 34.8629 -17.5
      vertex -55 37.3205 -17.5
    endloop
  endfacet
  facet normal 0 0 -1
    outer loop
      vertex -61.1803 8.24429 -17.5
      vertex -58.3826 34.8629 -17.5
      vertex -58.3826 5.1371 -17.5
    endloop
  endfacet
  facet normal 0 0 -1
    outer loop
      vertex -61.1803 8.24429 -17.5
      vertex -61.1803 31.7557 -17.5
      vertex -58.3826 34.8629 -17.5
    endloop
  endfacet
  facet normal 0 0 -1
    outer loop
      vertex -63.2709 11.8653 -17.5
      vertex -61.1803 31.7557 -17.5
      vertex -61.1803 8.24429 -17.5
    endloop
  endfacet
  facet normal 0 0 -1
    outer loop
      vertex -63.2709 11.8653 -17.5
      vertex -63.2709 28.1347 -17.5
      vertex -61.1803 31.7557 -17.5
    endloop
  endfacet
  facet normal 0 0 -1
    outer loop
      vertex -64.563 15.8418 -17.5
      vertex -63.2709 28.1347 -17.5
      vertex -63.2709 11.8653 -17.5
    endloop
  endfacet
  facet normal 0 0 -1
    outer loop
      vertex -64.563 15.8418 -17.5
      vertex -64.563 24.1582 -17.5
      vertex -63.2709 28.1347 -17.5
    endloop
  endfacet
  facet normal 0 -0 -1
    outer loop
      vertex -64.563 24.1582 -17.5
      vertex -64.563 15.8418 -17.5
      vertex -65 20 -17.5
    endloop
  endfacet
  facet normal -0.994522 -0.104529 0
    outer loop
      vertex -64.563 15.8418 -17.5
      vertex -65 20 17.5
      vertex -65 20 -17.5
    endloop
  endfacet
  facet normal -0.994522 -0.104529 0
    outer loop
      vertex -65 20 17.5
      vertex -64.563 15.8418 -17.5
      vertex -64.563 15.8418 17.5
    endloop
  endfacet
  facet normal 0.207912 -0.978148 0
    outer loop
      vertex -42.9094 0.109562 -17.5
      vertex -38.8197 0.978869 17.5
      vertex -42.9094 0.109562 17.5
    endloop
  endfacet
  facet normal 0.207912 -0.978148 0
    outer loop
      vertex -38.8197 0.978869 17.5
      vertex -42.9094 0.109562 -17.5
      vertex -38.8197 0.978869 -17.5
    endloop
  endfacet
  facet normal 0.743145 -0.669131 0
    outer loop
      vertex -31.6174 5.1371 17.5
      vertex -28.8197 8.24429 -17.5
      vertex -28.8197 8.24429 17.5
    endloop
  endfacet
  facet normal 0.743145 -0.669131 0
    outer loop
      vertex -28.8197 8.24429 -17.5
      vertex -31.6174 5.1371 17.5
      vertex -31.6174 5.1371 -17.5
    endloop
  endfacet
  facet normal 0.951056 -0.309017 0
    outer loop
      vertex -26.7291 11.8653 17.5
      vertex -25.437 15.8418 -17.5
      vertex -25.437 15.8418 17.5
    endloop
  endfacet
  facet normal 0.951056 -0.309017 0
    outer loop
      vertex -25.437 15.8418 -17.5
      vertex -26.7291 11.8653 17.5
      vertex -26.7291 11.8653 -17.5
    endloop
  endfacet
  facet normal 0.866026 -0.5 0
    outer loop
      vertex -28.8197 8.24429 17.5
      vertex -26.7291 11.8653 -17.5
      vertex -26.7291 11.8653 17.5
    endloop
  endfacet
  facet normal 0.866026 -0.5 0
    outer loop
      vertex -26.7291 11.8653 -17.5
      vertex -28.8197 8.24429 17.5
      vertex -28.8197 8.24429 -17.5
    endloop
  endfacet
  facet normal -0.866026 -0.5 0
    outer loop
      vertex -61.1803 8.24429 -17.5
      vertex -63.2709 11.8653 17.5
      vertex -63.2709 11.8653 -17.5
    endloop
  endfacet
  facet normal -0.866026 -0.5 0
    outer loop
      vertex -63.2709 11.8653 17.5
      vertex -61.1803 8.24429 -17.5
      vertex -61.1803 8.24429 17.5
    endloop
  endfacet
  facet normal -0.951057 -0.309017 0
    outer loop
      vertex -63.2709 11.8653 -17.5
      vertex -64.563 15.8418 17.5
      vertex -64.563 15.8418 -17.5
    endloop
  endfacet
  facet normal -0.951057 -0.309017 0
    outer loop
      vertex -64.563 15.8418 17.5
      vertex -63.2709 11.8653 -17.5
      vertex -63.2709 11.8653 17.5
    endloop
  endfacet
  facet normal 0.587785 -0.809017 0
    outer loop
      vertex -35 2.67949 -17.5
      vertex -31.6174 5.1371 17.5
      vertex -35 2.67949 17.5
    endloop
  endfacet
  facet normal 0.587785 -0.809017 0
    outer loop
      vertex -31.6174 5.1371 17.5
      vertex -35 2.67949 -17.5
      vertex -31.6174 5.1371 -17.5
    endloop
  endfacet
  facet normal 0.406737 -0.913546 0
    outer loop
      vertex -38.8197 0.978869 -17.5
      vertex -35 2.67949 17.5
      vertex -38.8197 0.978869 17.5
    endloop
  endfacet
  facet normal 0.406737 -0.913546 0
    outer loop
      vertex -35 2.67949 17.5
      vertex -38.8197 0.978869 -17.5
      vertex -35 2.67949 -17.5
    endloop
  endfacet
  facet normal 0 -1 0
    outer loop
      vertex -47.0906 0.109562 -17.5
      vertex -42.9094 0.109562 17.5
      vertex -47.0906 0.109562 17.5
    endloop
  endfacet
  facet normal 0 -1 -0
    outer loop
      vertex -42.9094 0.109562 17.5
      vertex -47.0906 0.109562 -17.5
      vertex -42.9094 0.109562 -17.5
    endloop
  endfacet
  facet normal -0.406737 -0.913546 0
    outer loop
      vertex -55 2.67949 -17.5
      vertex -51.1803 0.978869 17.5
      vertex -55 2.67949 17.5
    endloop
  endfacet
  facet normal -0.406737 -0.913546 -0
    outer loop
      vertex -51.1803 0.978869 17.5
      vertex -55 2.67949 -17.5
      vertex -51.1803 0.978869 -17.5
    endloop
  endfacet
  facet normal -0.743145 -0.669131 0
    outer loop
      vertex -58.3826 5.1371 -17.5
      vertex -61.1803 8.24429 17.5
      vertex -61.1803 8.24429 -17.5
    endloop
  endfacet
  facet normal -0.743145 -0.669131 0
    outer loop
      vertex -61.1803 8.24429 17.5
      vertex -58.3826 5.1371 -17.5
      vertex -58.3826 5.1371 17.5
    endloop
  endfacet
  facet normal -0.587786 -0.809017 0
    outer loop
      vertex -58.3826 5.1371 -17.5
      vertex -55 2.67949 17.5
      vertex -58.3826 5.1371 17.5
    endloop
  endfacet
  facet normal -0.587786 -0.809017 -0
    outer loop
      vertex -55 2.67949 17.5
      vertex -58.3826 5.1371 -17.5
      vertex -55 2.67949 -17.5
    endloop
  endfacet
endsolid OpenSCAD_Model
