solid OpenSCAD_Model
  facet normal -1 0 0
    outer loop
      vertex -5 5 -5
      vertex -5 2.5 -2.5
      vertex -5 5 5
    endloop
  endfacet
  facet normal -1 0 0
    outer loop
      vertex -5 5 -5
      vertex -5 -2.5 -2.5
      vertex -5 2.5 -2.5
    endloop
  endfacet
  facet normal -1 -0 0
    outer loop
      vertex -5 -2.5 -2.5
      vertex -5 -5 -5
      vertex -5 -2.5 2.5
    endloop
  endfacet
  facet normal -1 0 0
    outer loop
      vertex -5 -5 -5
      vertex -5 -2.5 -2.5
      vertex -5 5 -5
    endloop
  endfacet
  facet normal -1 0 0
    outer loop
      vertex -5 2.5 2.5
      vertex -5 5 5
      vertex -5 2.5 -2.5
    endloop
  endfacet
  facet normal -1 0 0
    outer loop
      vertex -5 -2.5 2.5
      vertex -5 5 5
      vertex -5 2.5 2.5
    endloop
  endfacet
  facet normal -1 0 0
    outer loop
      vertex -5 -2.5 2.5
      vertex -5 -5 5
      vertex -5 5 5
    endloop
  endfacet
  facet normal -1 0 0
    outer loop
      vertex -5 -5 5
      vertex -5 -2.5 2.5
      vertex -5 -5 -5
    endloop
  endfacet
  facet normal -0 0 1
    outer loop
      vertex -5 5 5
      vertex 5 -5 5
      vertex 5 5 5
    endloop
  endfacet
  facet normal 0 0 1
    outer loop
      vertex 5 -5 5
      vertex -5 5 5
      vertex -5 -5 5
    endloop
  endfacet
  facet normal 1 -0 0
    outer loop
      vertex 5 -5 5
      vertex 5 5 -5
      vertex 5 5 5
    endloop
  endfacet
  facet normal 1 0 0
    outer loop
      vertex 5 5 -5
      vertex 5 -5 5
      vertex 5 -5 -5
    endloop
  endfacet
  facet normal 0 1 -0
    outer loop
      vertex 5 5 -5
      vertex -5 5 5
      vertex 5 5 5
    endloop
  endfacet
  facet normal 0 1 0
    outer loop
      vertex -5 5 5
      vertex 5 5 -5
      vertex -5 5 -5
    endloop
  endfacet
  facet normal 0 0 -1
    outer loop
      vertex -5 -5 -5
      vertex 5 5 -5
      vertex 5 -5 -5
    endloop
  endfacet
  facet normal -0 0 -1
    outer loop
      vertex 5 5 -5
      vertex -5 -5 -5
      vertex -5 5 -5
    endloop
  endfacet
  facet normal 0 -1 0
    outer loop
      vertex -5 -5 -5
      vertex 5 -5 5
      vertex -5 -5 5
    endloop
  endfacet
  facet normal 0 -1 -0
    outer loop
      vertex 5 -5 5
      vertex -5 -5 -5
      vertex 5 -5 -5
    endloop
  endfacet
  facet normal -1 0 0
    outer loop
      vertex -12.5 -2.5 0
      vertex -12.5 2.5 10
      vertex -12.5 2.5 0
    endloop
  endfacet
  facet normal -1 -0 0
    outer loop
      vertex -12.5 2.5 10
      vertex -12.5 -2.5 0
      vertex -12.5 -2.5 10
    endloop
  endfacet
  facet normal -0 0 1
    outer loop
      vertex -12.5 2.5 10
      vertex -7.5 -2.5 10
      vertex -7.5 2.5 10
    endloop
  endfacet
  facet normal 0 0 1
    outer loop
      vertex -7.5 -2.5 10
      vertex -12.5 2.5 10
      vertex -12.5 -2.5 10
    endloop
  endfacet
  facet normal 1 -0 0
    outer loop
      vertex -7.5 -2.5 10
      vertex -7.5 2.5 2.5
      vertex -7.5 2.5 10
    endloop
  endfacet
  facet normal 1 0 0
    outer loop
      vertex -7.5 2.5 2.5
      vertex -7.5 -2.5 10
      vertex -7.5 -2.5 2.5
    endloop
  endfacet
  facet normal 0 1 -0
    outer loop
      vertex -5 2.5 -2.5
      vertex -7.5 2.5 2.5
      vertex -5 2.5 2.5
    endloop
  endfacet
  facet normal 0 1 0
    outer loop
      vertex -7.5 2.5 2.5
      vertex -5 2.5 -2.5
      vertex -10 2.5 0
    endloop
  endfacet
  facet normal 0 1 0
    outer loop
      vertex -10 2.5 0
      vertex -5 2.5 -2.5
      vertex -10 2.5 -2.5
    endloop
  endfacet
  facet normal 0 1 -0
    outer loop
      vertex -7.5 2.5 2.5
      vertex -12.5 2.5 10
      vertex -7.5 2.5 10
    endloop
  endfacet
  facet normal 0 1 0
    outer loop
      vertex -12.5 2.5 0
      vertex -7.5 2.5 2.5
      vertex -10 2.5 0
    endloop
  endfacet
  facet normal 0 1 0
    outer loop
      vertex -7.5 2.5 2.5
      vertex -12.5 2.5 0
      vertex -12.5 2.5 10
    endloop
  endfacet
  facet normal 0 0 -1
    outer loop
      vertex -12.5 -2.5 0
      vertex -10 2.5 0
      vertex -10 -2.5 0
    endloop
  endfacet
  facet normal -0 0 -1
    outer loop
      vertex -10 2.5 0
      vertex -12.5 -2.5 0
      vertex -12.5 2.5 0
    endloop
  endfacet
  facet normal 0 -1 0
    outer loop
      vertex -12.5 -2.5 10
      vertex -7.5 -2.5 2.5
      vertex -7.5 -2.5 10
    endloop
  endfacet
  facet normal -0 -1 0
    outer loop
      vertex -7.5 -2.5 2.5
      vertex -12.5 -2.5 10
      vertex -12.5 -2.5 0
    endloop
  endfacet
  facet normal 0 -1 0
    outer loop
      vertex -10 -2.5 0
      vertex -7.5 -2.5 2.5
      vertex -12.5 -2.5 0
    endloop
  endfacet
  facet normal 0 -1 0
    outer loop
      vertex -5 -2.5 -2.5
      vertex -7.5 -2.5 2.5
      vertex -10 -2.5 0
    endloop
  endfacet
  facet normal 0 -1 0
    outer loop
      vertex -7.5 -2.5 2.5
      vertex -5 -2.5 -2.5
      vertex -5 -2.5 2.5
    endloop
  endfacet
  facet normal -0 -1 0
    outer loop
      vertex -5 -2.5 -2.5
      vertex -10 -2.5 0
      vertex -10 -2.5 -2.5
    endloop
  endfacet
  facet normal -9.53674e-08 0 1
    outer loop
      vertex -7.5 2.5 2.5
      vertex -5 -2.5 2.5
      vertex -5 2.5 2.5
    endloop
  endfacet
  facet normal -9.53674e-08 0 1
    outer loop
      vertex -5 -2.5 2.5
      vertex -7.5 2.5 2.5
      vertex -7.5 -2.5 2.5
    endloop
  endfacet
  facet normal 9.53674e-08 0 -1
    outer loop
      vertex -10 -2.5 -2.5
      vertex -5 2.5 -2.5
      vertex -5 -2.5 -2.5
    endloop
  endfacet
  facet normal 9.53674e-08 0 -1
    outer loop
      vertex -5 2.5 -2.5
      vertex -10 -2.5 -2.5
      vertex -10 2.5 -2.5
    endloop
  endfacet
  facet normal -1 0 0
    outer loop
      vertex -10 -2.5 -2.5
      vertex -10 2.5 0
      vertex -10 2.5 -2.5
    endloop
  endfacet
  facet normal -1 -0 0
    outer loop
      vertex -10 2.5 0
      vertex -10 -2.5 -2.5
      vertex -10 -2.5 0
    endloop
  endfacet
endsolid OpenSCAD_Model
