solid OpenSCAD_Model
  facet normal -1 0 0
    outer loop
      vertex -2.5 -2.5 -2.5
      vertex -2.5 2.5 2.5
      vertex -2.5 2.5 -2.5
    endloop
  endfacet
  facet normal -1 -0 0
    outer loop
      vertex -2.5 2.5 2.5
      vertex -2.5 -2.5 -2.5
      vertex -2.5 -2.5 2.5
    endloop
  endfacet
  facet normal -0 0 1
    outer loop
      vertex -2.5 2.5 2.5
      vertex 2.5 -2.5 2.5
      vertex 2.5 2.5 2.5
    endloop
  endfacet
  facet normal 0 0 1
    outer loop
      vertex 2.5 -2.5 2.5
      vertex -2.5 2.5 2.5
      vertex -2.5 -2.5 2.5
    endloop
  endfacet
  facet normal 1 0 0
    outer loop
      vertex 2.5 2.4 0.5
      vertex 2.5 2.5 2.5
      vertex 2.5 2.4 1.5
    endloop
  endfacet
  facet normal 1 0 0
    outer loop
      vertex 2.5 2.5 2.5
      vertex 2.5 1.4 1.5
      vertex 2.5 2.4 1.5
    endloop
  endfacet
  facet normal 1 0 0
    outer loop
      vertex 2.5 1.4 1.5
      vertex 2.5 1.25 1.25
      vertex 2.5 1.4 0.5
    endloop
  endfacet
  facet normal 1 0 0
    outer loop
      vertex 2.5 1.4 1.5
      vertex 2.5 -1.25 1.25
      vertex 2.5 1.25 1.25
    endloop
  endfacet
  facet normal 1 -0 0
    outer loop
      vertex 2.5 -2.5 2.5
      vertex 2.5 1.4 1.5
      vertex 2.5 2.5 2.5
    endloop
  endfacet
  facet normal 1 0 0
    outer loop
      vertex 2.5 -1.25 1.25
      vertex 2.5 -2.5 2.5
      vertex 2.5 -1.25 -1.25
    endloop
  endfacet
  facet normal 1 0 0
    outer loop
      vertex 2.5 1.4 1.5
      vertex 2.5 -2.5 2.5
      vertex 2.5 -1.25 1.25
    endloop
  endfacet
  facet normal 1 0 0
    outer loop
      vertex 2.5 2.5 2.5
      vertex 2.5 2.4 0.5
      vertex 2.5 2.5 -2.5
    endloop
  endfacet
  facet normal 1 0 0
    outer loop
      vertex 2.5 1.25 -1.25
      vertex 2.5 2.4 0.5
      vertex 2.5 1.4 0.5
    endloop
  endfacet
  facet normal 1 0 0
    outer loop
      vertex 2.5 1.25 -1.25
      vertex 2.5 1.4 0.5
      vertex 2.5 1.25 1.25
    endloop
  endfacet
  facet normal 1 0 0
    outer loop
      vertex 2.5 2.4 0.5
      vertex 2.5 1.25 -1.25
      vertex 2.5 2.5 -2.5
    endloop
  endfacet
  facet normal 1 -0 0
    outer loop
      vertex 2.5 -1.25 -1.25
      vertex 2.5 2.5 -2.5
      vertex 2.5 1.25 -1.25
    endloop
  endfacet
  facet normal 1 0 0
    outer loop
      vertex 2.5 -1.25 -1.25
      vertex 2.5 -2.5 -2.5
      vertex 2.5 2.5 -2.5
    endloop
  endfacet
  facet normal 1 0 0
    outer loop
      vertex 2.5 -2.5 -2.5
      vertex 2.5 -1.25 -1.25
      vertex 2.5 -2.5 2.5
    endloop
  endfacet
  facet normal 0 1 -0
    outer loop
      vertex 2.5 2.5 -2.5
      vertex -2.5 2.5 2.5
      vertex 2.5 2.5 2.5
    endloop
  endfacet
  facet normal 0 1 0
    outer loop
      vertex -2.5 2.5 2.5
      vertex 2.5 2.5 -2.5
      vertex -2.5 2.5 -2.5
    endloop
  endfacet
  facet normal 0 0 -1
    outer loop
      vertex -2.5 -2.5 -2.5
      vertex 2.5 2.5 -2.5
      vertex 2.5 -2.5 -2.5
    endloop
  endfacet
  facet normal -0 0 -1
    outer loop
      vertex 2.5 2.5 -2.5
      vertex -2.5 -2.5 -2.5
      vertex -2.5 2.5 -2.5
    endloop
  endfacet
  facet normal 0 -1 0
    outer loop
      vertex -2.5 -2.5 -2.5
      vertex 2.5 -2.5 2.5
      vertex -2.5 -2.5 2.5
    endloop
  endfacet
  facet normal 0 -1 -0
    outer loop
      vertex 2.5 -2.5 2.5
      vertex -2.5 -2.5 -2.5
      vertex 2.5 -2.5 -2.5
    endloop
  endfacet
  facet normal 1 -0 0
    outer loop
      vertex 0.25 -1.25 1.25
      vertex 0.25 1.25 -1.25
      vertex 0.25 1.25 1.25
    endloop
  endfacet
  facet normal 1 0 0
    outer loop
      vertex 0.25 1.25 -1.25
      vertex 0.25 -1.25 1.25
      vertex 0.25 -1.25 -1.25
    endloop
  endfacet
  facet normal 0 0 -1
    outer loop
      vertex 0.25 -1.25 1.25
      vertex 2.5 1.25 1.25
      vertex 2.5 -1.25 1.25
    endloop
  endfacet
  facet normal -0 0 -1
    outer loop
      vertex 2.5 1.25 1.25
      vertex 0.25 -1.25 1.25
      vertex 0.25 1.25 1.25
    endloop
  endfacet
  facet normal -0 0 1
    outer loop
      vertex 0.25 1.25 -1.25
      vertex 2.5 -1.25 -1.25
      vertex 2.5 1.25 -1.25
    endloop
  endfacet
  facet normal 0 0 1
    outer loop
      vertex 2.5 -1.25 -1.25
      vertex 0.25 1.25 -1.25
      vertex 0.25 -1.25 -1.25
    endloop
  endfacet
  facet normal 0 1 -0
    outer loop
      vertex 2.5 -1.25 -1.25
      vertex 0.25 -1.25 1.25
      vertex 2.5 -1.25 1.25
    endloop
  endfacet
  facet normal 0 1 0
    outer loop
      vertex 0.25 -1.25 1.25
      vertex 2.5 -1.25 -1.25
      vertex 0.25 -1.25 -1.25
    endloop
  endfacet
  facet normal 0 -1 0
    outer loop
      vertex 0.25 1.25 -1.25
      vertex 2.5 1.25 1.25
      vertex 0.25 1.25 1.25
    endloop
  endfacet
  facet normal 0 -1 -0
    outer loop
      vertex 2.5 1.25 1.25
      vertex 0.25 1.25 -1.25
      vertex 2.5 1.25 -1.25
    endloop
  endfacet
  facet normal -0 0 1
    outer loop
      vertex 2.5 2.4 1.5
      vertex 3 1.4 1.5
      vertex 3 2.4 1.5
    endloop
  endfacet
  facet normal 0 0 1
    outer loop
      vertex 3 1.4 1.5
      vertex 2.5 2.4 1.5
      vertex 2.5 1.4 1.5
    endloop
  endfacet
  facet normal 1 -0 0
    outer loop
      vertex 3 1.4 1.5
      vertex 3 2.4 0.5
      vertex 3 2.4 1.5
    endloop
  endfacet
  facet normal 1 0 0
    outer loop
      vertex 3 2.4 0.5
      vertex 3 1.4 1.5
      vertex 3 1.4 0.5
    endloop
  endfacet
  facet normal 0 1 -0
    outer loop
      vertex 3 2.4 0.5
      vertex 2.5 2.4 1.5
      vertex 3 2.4 1.5
    endloop
  endfacet
  facet normal 0 1 0
    outer loop
      vertex 2.5 2.4 1.5
      vertex 3 2.4 0.5
      vertex 2.5 2.4 0.5
    endloop
  endfacet
  facet normal 0 0 -1
    outer loop
      vertex 2.5 1.4 0.5
      vertex 3 2.4 0.5
      vertex 3 1.4 0.5
    endloop
  endfacet
  facet normal -0 0 -1
    outer loop
      vertex 3 2.4 0.5
      vertex 2.5 1.4 0.5
      vertex 2.5 2.4 0.5
    endloop
  endfacet
  facet normal 0 -1 0
    outer loop
      vertex 2.5 1.4 0.5
      vertex 3 1.4 1.5
      vertex 2.5 1.4 1.5
    endloop
  endfacet
  facet normal 0 -1 -0
    outer loop
      vertex 3 1.4 1.5
      vertex 2.5 1.4 0.5
      vertex 3 1.4 0.5
    endloop
  endfacet
endsolid OpenSCAD_Model
