solid OpenSCAD_Model
  facet normal 0.774597 0.362762 0.518077
    outer loop
      vertex 50 -5.31644e-16 10.4
      vertex 25 42.6434 17.9192
      vertex 25 -7.51919 53.0434
    endloop
  endfacet
  facet normal 0.774597 0.362762 0.518077
    outer loop
      vertex 25 42.6434 17.9192
      vertex 12.5 13.8025 56.803
      vertex 25 -7.51919 53.0434
    endloop
  endfacet
  facet normal 1.14139e-16 0.803181 0.595735
    outer loop
      vertex 25 42.6434 17.9192
      vertex -25 42.6434 17.9192
      vertex 12.5 13.8025 56.803
    endloop
  endfacet
  facet normal 1.14113e-16 0.803181 0.595735
    outer loop
      vertex -25 42.6434 17.9192
      vertex -12.5 13.8025 56.803
      vertex 12.5 13.8025 56.803
    endloop
  endfacet
  facet normal -0.774597 0.362762 0.518077
    outer loop
      vertex -25 42.6434 17.9192
      vertex -50 5.49856e-15 10.4
      vertex -12.5 13.8025 56.803
    endloop
  endfacet
  facet normal -0.774597 0.362762 0.518077
    outer loop
      vertex -50 5.49856e-15 10.4
      vertex -25 -7.51919 53.0434
      vertex -12.5 13.8025 56.803
    endloop
  endfacet
  facet normal -0.774597 -0.518077 0.362762
    outer loop
      vertex -50 5.49856e-15 10.4
      vertex -25 -42.6434 2.88081
      vertex -25 -7.51919 53.0434
    endloop
  endfacet
  facet normal -0.774597 -0.518077 0.362762
    outer loop
      vertex -25 -42.6434 2.88081
      vertex -12.5 -28.8409 49.2838
      vertex -25 -7.51919 53.0434
    endloop
  endfacet
  facet normal -2.57228e-16 -0.958497 0.285104
    outer loop
      vertex -25 -42.6434 2.88081
      vertex 25 -42.6434 2.88081
      vertex -12.5 -28.8409 49.2838
    endloop
  endfacet
  facet normal -2.7244e-16 -0.958497 0.285104
    outer loop
      vertex 25 -42.6434 2.88081
      vertex 12.5 -28.8409 49.2838
      vertex -12.5 -28.8409 49.2838
    endloop
  endfacet
  facet normal 0.774597 -0.518077 0.362762
    outer loop
      vertex 25 -42.6434 2.88081
      vertex 50 -5.31644e-16 10.4
      vertex 12.5 -28.8409 49.2838
    endloop
  endfacet
  facet normal 0.774597 -0.518077 0.362762
    outer loop
      vertex 50 -5.31644e-16 10.4
      vertex 25 -7.51919 53.0434
      vertex 12.5 -28.8409 49.2838
    endloop
  endfacet
  facet normal 0.774597 0.518077 -0.362762
    outer loop
      vertex 25 7.51919 -32.2434
      vertex 12.5 28.8409 -28.4838
      vertex 50 -5.31644e-16 10.4
    endloop
  endfacet
  facet normal 0.774597 0.518077 -0.362762
    outer loop
      vertex 12.5 28.8409 -28.4838
      vertex 25 42.6434 17.9192
      vertex 50 -5.31644e-16 10.4
    endloop
  endfacet
  facet normal 1.36211e-16 0.958497 -0.285104
    outer loop
      vertex 12.5 28.8409 -28.4838
      vertex -12.5 28.8409 -28.4838
      vertex 25 42.6434 17.9192
    endloop
  endfacet
  facet normal 1.3622e-16 0.958497 -0.285104
    outer loop
      vertex -12.5 28.8409 -28.4838
      vertex -25 42.6434 17.9192
      vertex 25 42.6434 17.9192
    endloop
  endfacet
  facet normal -0.774597 0.518077 -0.362762
    outer loop
      vertex -12.5 28.8409 -28.4838
      vertex -25 7.51919 -32.2434
      vertex -25 42.6434 17.9192
    endloop
  endfacet
  facet normal -0.774597 0.518077 -0.362762
    outer loop
      vertex -25 7.51919 -32.2434
      vertex -50 5.49856e-15 10.4
      vertex -25 42.6434 17.9192
    endloop
  endfacet
  facet normal -0.774597 -0.362762 -0.518077
    outer loop
      vertex -25 7.51919 -32.2434
      vertex -12.5 -13.8025 -36.003
      vertex -50 5.49856e-15 10.4
    endloop
  endfacet
  facet normal -0.774597 -0.362762 -0.518077
    outer loop
      vertex -12.5 -13.8025 -36.003
      vertex -25 -42.6434 2.88081
      vertex -50 5.49856e-15 10.4
    endloop
  endfacet
  facet normal -2.28278e-16 -0.803181 -0.595735
    outer loop
      vertex -12.5 -13.8025 -36.003
      vertex 12.5 -13.8025 -36.003
      vertex -25 -42.6434 2.88081
    endloop
  endfacet
  facet normal -2.60056e-16 -0.803181 -0.595735
    outer loop
      vertex 12.5 -13.8025 -36.003
      vertex 25 -42.6434 2.88081
      vertex -25 -42.6434 2.88081
    endloop
  endfacet
  facet normal 0.774597 -0.362762 -0.518077
    outer loop
      vertex 12.5 -13.8025 -36.003
      vertex 25 7.51919 -32.2434
      vertex 25 -42.6434 2.88081
    endloop
  endfacet
  facet normal 0.774597 -0.362762 -0.518077
    outer loop
      vertex 25 7.51919 -32.2434
      vertex 50 -5.31644e-16 10.4
      vertex 25 -42.6434 2.88081
    endloop
  endfacet
  facet normal 6.62415e-09 -0.173648 0.984808
    outer loop
      vertex 12.5 13.8025 56.803
      vertex 12.5 -28.8409 49.2838
      vertex 25 -7.51919 53.0434
    endloop
  endfacet
  facet normal 0 -0.173648 0.984808
    outer loop
      vertex -12.5 13.8025 56.803
      vertex 12.5 -28.8409 49.2838
      vertex 12.5 13.8025 56.803
    endloop
  endfacet
  facet normal 0 -0.173648 0.984808
    outer loop
      vertex -12.5 13.8025 56.803
      vertex -12.5 -28.8409 49.2838
      vertex 12.5 -28.8409 49.2838
    endloop
  endfacet
  facet normal -6.62415e-09 -0.173648 0.984808
    outer loop
      vertex -12.5 -28.8409 49.2838
      vertex -12.5 13.8025 56.803
      vertex -25 -7.51919 53.0434
    endloop
  endfacet
  facet normal 6.62415e-09 0.173648 -0.984808
    outer loop
      vertex 12.5 -13.8025 -36.003
      vertex 12.5 28.8409 -28.4838
      vertex 25 7.51919 -32.2434
    endloop
  endfacet
  facet normal 0 0.173648 -0.984808
    outer loop
      vertex -12.5 -13.8025 -36.003
      vertex 12.5 28.8409 -28.4838
      vertex 12.5 -13.8025 -36.003
    endloop
  endfacet
  facet normal 0 0.173648 -0.984808
    outer loop
      vertex -12.5 -13.8025 -36.003
      vertex -12.5 28.8409 -28.4838
      vertex 12.5 28.8409 -28.4838
    endloop
  endfacet
  facet normal -6.62415e-09 0.173648 -0.984808
    outer loop
      vertex -12.5 28.8409 -28.4838
      vertex -12.5 -13.8025 -36.003
      vertex -25 7.51919 -32.2434
    endloop
  endfacet
endsolid OpenSCAD_Model
