solid OpenSCAD_Model
  facet normal 0.92388 0.382683 0
    outer loop
      vertex 0.299999 -1 0.5
      vertex 0.212132 -0.787868 -0.5
      vertex 0.212132 -0.787868 0.5
    endloop
  endfacet
  facet normal 0.92388 0.382683 0
    outer loop
      vertex 0.212132 -0.787868 -0.5
      vertex 0.299999 -1 0.5
      vertex 0.299999 -1 -0.5
    endloop
  endfacet
  facet normal -0.92388 0.382683 0
    outer loop
      vertex -0.299999 -1 -0.5
      vertex -0.212132 -0.787868 0.5
      vertex -0.212132 -0.787868 -0.5
    endloop
  endfacet
  facet normal -0.92388 0.382683 0
    outer loop
      vertex -0.212132 -0.787868 0.5
      vertex -0.299999 -1 -0.5
      vertex -0.299999 -1 0.5
    endloop
  endfacet
  facet normal 0 0 -1
    outer loop
      vertex 0.2 -1 -0.5
      vertex 0.299999 -1 -0.5
      vertex 0.212132 -1.21213 -0.5
    endloop
  endfacet
  facet normal 0 0 -1
    outer loop
      vertex 0.299999 -1 -0.5
      vertex 0.2 -1 -0.5
      vertex 0.212132 -0.787868 -0.5
    endloop
  endfacet
  facet normal 0 0 -1
    outer loop
      vertex 0.212132 -1.21213 -0.5
      vertex 0.141421 -1.14142 -0.5
      vertex 0.2 -1 -0.5
    endloop
  endfacet
  facet normal 0 0 -1
    outer loop
      vertex 0 -1.3 -0.5
      vertex 0.141421 -1.14142 -0.5
      vertex 0.212132 -1.21213 -0.5
    endloop
  endfacet
  facet normal 0 0 -1
    outer loop
      vertex 0 -1.3 -0.5
      vertex 0 -1.2 -0.5
      vertex 0.141421 -1.14142 -0.5
    endloop
  endfacet
  facet normal 0 0 -1
    outer loop
      vertex 0 -1.3 -0.5
      vertex -0.141421 -1.14142 -0.5
      vertex 0 -1.2 -0.5
    endloop
  endfacet
  facet normal -0 0 -1
    outer loop
      vertex -0.141421 -1.14142 -0.5
      vertex -0.212132 -1.21213 -0.5
      vertex -0.2 -1 -0.5
    endloop
  endfacet
  facet normal 0 0 -1
    outer loop
      vertex -0.212132 -1.21213 -0.5
      vertex -0.141421 -1.14142 -0.5
      vertex 0 -1.3 -0.5
    endloop
  endfacet
  facet normal 0 0 -1
    outer loop
      vertex 0.141421 -0.858579 -0.5
      vertex 0.212132 -0.787868 -0.5
      vertex 0.2 -1 -0.5
    endloop
  endfacet
  facet normal 0 0 -1
    outer loop
      vertex 0 -0.8 -0.5
      vertex 0.212132 -0.787868 -0.5
      vertex 0.141421 -0.858579 -0.5
    endloop
  endfacet
  facet normal 0 0 -1
    outer loop
      vertex 0 -0.8 -0.5
      vertex 0 -0.700001 -0.5
      vertex 0.212132 -0.787868 -0.5
    endloop
  endfacet
  facet normal 0 0 -1
    outer loop
      vertex -0.141421 -0.858579 -0.5
      vertex 0 -0.700001 -0.5
      vertex 0 -0.8 -0.5
    endloop
  endfacet
  facet normal 0 0 -1
    outer loop
      vertex -0.141421 -0.858579 -0.5
      vertex -0.212132 -0.787868 -0.5
      vertex 0 -0.700001 -0.5
    endloop
  endfacet
  facet normal 0 0 -1
    outer loop
      vertex -0.2 -1 -0.5
      vertex -0.212132 -0.787868 -0.5
      vertex -0.141421 -0.858579 -0.5
    endloop
  endfacet
  facet normal 0 0 -1
    outer loop
      vertex -0.299999 -1 -0.5
      vertex -0.2 -1 -0.5
      vertex -0.212132 -1.21213 -0.5
    endloop
  endfacet
  facet normal 0 0 -1
    outer loop
      vertex -0.2 -1 -0.5
      vertex -0.299999 -1 -0.5
      vertex -0.212132 -0.787868 -0.5
    endloop
  endfacet
  facet normal -0.382683 0.92388 0
    outer loop
      vertex 0 -0.700001 -0.5
      vertex -0.212132 -0.787868 0.5
      vertex 0 -0.700001 0.5
    endloop
  endfacet
  facet normal -0.382683 0.92388 0
    outer loop
      vertex -0.212132 -0.787868 0.5
      vertex 0 -0.700001 -0.5
      vertex -0.212132 -0.787868 -0.5
    endloop
  endfacet
  facet normal 0.382683 0.92388 -0
    outer loop
      vertex 0.212132 -0.787868 -0.5
      vertex 0 -0.700001 0.5
      vertex 0.212132 -0.787868 0.5
    endloop
  endfacet
  facet normal 0.382683 0.92388 0
    outer loop
      vertex 0 -0.700001 0.5
      vertex 0.212132 -0.787868 -0.5
      vertex 0 -0.700001 -0.5
    endloop
  endfacet
  facet normal 0 0 1
    outer loop
      vertex 0.2 -1 0.5
      vertex 0.299999 -1 0.5
      vertex 0.212132 -0.787868 0.5
    endloop
  endfacet
  facet normal 0 0 1
    outer loop
      vertex 0.299999 -1 0.5
      vertex 0.2 -1 0.5
      vertex 0.212132 -1.21213 0.5
    endloop
  endfacet
  facet normal 0 0 1
    outer loop
      vertex 0.212132 -0.787868 0.5
      vertex 0.141421 -0.858579 0.5
      vertex 0.2 -1 0.5
    endloop
  endfacet
  facet normal 0 0 1
    outer loop
      vertex 0 -0.700001 0.5
      vertex 0.141421 -0.858579 0.5
      vertex 0.212132 -0.787868 0.5
    endloop
  endfacet
  facet normal 0 0 1
    outer loop
      vertex 0 -0.700001 0.5
      vertex 0 -0.8 0.5
      vertex 0.141421 -0.858579 0.5
    endloop
  endfacet
  facet normal 0 0 1
    outer loop
      vertex 0 -0.700001 0.5
      vertex -0.141421 -0.858579 0.5
      vertex 0 -0.8 0.5
    endloop
  endfacet
  facet normal 0 0 1
    outer loop
      vertex -0.141421 -0.858579 0.5
      vertex -0.212132 -0.787868 0.5
      vertex -0.2 -1 0.5
    endloop
  endfacet
  facet normal -0 0 1
    outer loop
      vertex -0.212132 -0.787868 0.5
      vertex -0.141421 -0.858579 0.5
      vertex 0 -0.700001 0.5
    endloop
  endfacet
  facet normal -0 0 1
    outer loop
      vertex 0.141421 -1.14142 0.5
      vertex 0.212132 -1.21213 0.5
      vertex 0.2 -1 0.5
    endloop
  endfacet
  facet normal -0 0 1
    outer loop
      vertex 0 -1.2 0.5
      vertex 0.212132 -1.21213 0.5
      vertex 0.141421 -1.14142 0.5
    endloop
  endfacet
  facet normal 0 0 1
    outer loop
      vertex 0 -1.2 0.5
      vertex 0 -1.3 0.5
      vertex 0.212132 -1.21213 0.5
    endloop
  endfacet
  facet normal 0 0 1
    outer loop
      vertex -0.141421 -1.14142 0.5
      vertex 0 -1.3 0.5
      vertex 0 -1.2 0.5
    endloop
  endfacet
  facet normal 0 0 1
    outer loop
      vertex -0.141421 -1.14142 0.5
      vertex -0.212132 -1.21213 0.5
      vertex 0 -1.3 0.5
    endloop
  endfacet
  facet normal 0 0 1
    outer loop
      vertex -0.2 -1 0.5
      vertex -0.212132 -1.21213 0.5
      vertex -0.141421 -1.14142 0.5
    endloop
  endfacet
  facet normal 0 0 1
    outer loop
      vertex -0.299999 -1 0.5
      vertex -0.2 -1 0.5
      vertex -0.212132 -0.787868 0.5
    endloop
  endfacet
  facet normal 0 0 1
    outer loop
      vertex -0.2 -1 0.5
      vertex -0.299999 -1 0.5
      vertex -0.212132 -1.21213 0.5
    endloop
  endfacet
  facet normal -0.92388 -0.382683 0
    outer loop
      vertex -0.212132 -1.21213 -0.5
      vertex -0.299999 -1 0.5
      vertex -0.299999 -1 -0.5
    endloop
  endfacet
  facet normal -0.92388 -0.382683 0
    outer loop
      vertex -0.299999 -1 0.5
      vertex -0.212132 -1.21213 -0.5
      vertex -0.212132 -1.21213 0.5
    endloop
  endfacet
  facet normal 0.92388 -0.382683 0
    outer loop
      vertex 0.212132 -1.21213 0.5
      vertex 0.299999 -1 -0.5
      vertex 0.299999 -1 0.5
    endloop
  endfacet
  facet normal 0.92388 -0.382683 0
    outer loop
      vertex 0.299999 -1 -0.5
      vertex 0.212132 -1.21213 0.5
      vertex 0.212132 -1.21213 -0.5
    endloop
  endfacet
  facet normal 0.382683 -0.92388 0
    outer loop
      vertex 0 -1.3 -0.5
      vertex 0.212132 -1.21213 0.5
      vertex 0 -1.3 0.5
    endloop
  endfacet
  facet normal 0.382683 -0.92388 0
    outer loop
      vertex 0.212132 -1.21213 0.5
      vertex 0 -1.3 -0.5
      vertex 0.212132 -1.21213 -0.5
    endloop
  endfacet
  facet normal -0.382683 -0.92388 0
    outer loop
      vertex -0.212132 -1.21213 -0.5
      vertex 0 -1.3 0.5
      vertex -0.212132 -1.21213 0.5
    endloop
  endfacet
  facet normal -0.382683 -0.92388 -0
    outer loop
      vertex 0 -1.3 0.5
      vertex -0.212132 -1.21213 -0.5
      vertex 0 -1.3 -0.5
    endloop
  endfacet
  facet normal -0.92388 -0.382683 0
    outer loop
      vertex 0.2 -1 -0.5
      vertex 0.141421 -0.858579 0.5
      vertex 0.141421 -0.858579 -0.5
    endloop
  endfacet
  facet normal -0.92388 -0.382683 0
    outer loop
      vertex 0.141421 -0.858579 0.5
      vertex 0.2 -1 -0.5
      vertex 0.2 -1 0.5
    endloop
  endfacet
  facet normal 0.92388 -0.382683 0
    outer loop
      vertex -0.2 -1 0.5
      vertex -0.141421 -0.858579 -0.5
      vertex -0.141421 -0.858579 0.5
    endloop
  endfacet
  facet normal 0.92388 -0.382683 0
    outer loop
      vertex -0.141421 -0.858579 -0.5
      vertex -0.2 -1 0.5
      vertex -0.2 -1 -0.5
    endloop
  endfacet
  facet normal 0.382683 -0.92388 0
    outer loop
      vertex -0.141421 -0.858579 -0.5
      vertex 0 -0.8 0.5
      vertex -0.141421 -0.858579 0.5
    endloop
  endfacet
  facet normal 0.382683 -0.92388 0
    outer loop
      vertex 0 -0.8 0.5
      vertex -0.141421 -0.858579 -0.5
      vertex 0 -0.8 -0.5
    endloop
  endfacet
  facet normal -0.382683 -0.92388 0
    outer loop
      vertex 0 -0.8 -0.5
      vertex 0.141421 -0.858579 0.5
      vertex 0 -0.8 0.5
    endloop
  endfacet
  facet normal -0.382683 -0.92388 -0
    outer loop
      vertex 0.141421 -0.858579 0.5
      vertex 0 -0.8 -0.5
      vertex 0.141421 -0.858579 -0.5
    endloop
  endfacet
  facet normal 0.92388 0.382683 0
    outer loop
      vertex -0.141421 -1.14142 0.5
      vertex -0.2 -1 -0.5
      vertex -0.2 -1 0.5
    endloop
  endfacet
  facet normal 0.92388 0.382683 0
    outer loop
      vertex -0.2 -1 -0.5
      vertex -0.141421 -1.14142 0.5
      vertex -0.141421 -1.14142 -0.5
    endloop
  endfacet
  facet normal -0.92388 0.382683 0
    outer loop
      vertex 0.141421 -1.14142 -0.5
      vertex 0.2 -1 0.5
      vertex 0.2 -1 -0.5
    endloop
  endfacet
  facet normal -0.92388 0.382683 0
    outer loop
      vertex 0.2 -1 0.5
      vertex 0.141421 -1.14142 -0.5
      vertex 0.141421 -1.14142 0.5
    endloop
  endfacet
  facet normal -0.382683 0.92388 0
    outer loop
      vertex 0.141421 -1.14142 -0.5
      vertex 0 -1.2 0.5
      vertex 0.141421 -1.14142 0.5
    endloop
  endfacet
  facet normal -0.382683 0.92388 0
    outer loop
      vertex 0 -1.2 0.5
      vertex 0.141421 -1.14142 -0.5
      vertex 0 -1.2 -0.5
    endloop
  endfacet
  facet normal 0.382683 0.92388 -0
    outer loop
      vertex 0 -1.2 -0.5
      vertex -0.141421 -1.14142 0.5
      vertex 0 -1.2 0.5
    endloop
  endfacet
  facet normal 0.382683 0.92388 0
    outer loop
      vertex -0.141421 -1.14142 0.5
      vertex 0 -1.2 -0.5
      vertex -0.141421 -1.14142 -0.5
    endloop
  endfacet
  facet normal 0.92388 0.382683 0
    outer loop
      vertex 0.299999 1 0.5
      vertex 0.212132 1.21213 -0.5
      vertex 0.212132 1.21213 0.5
    endloop
  endfacet
  facet normal 0.92388 0.382683 0
    outer loop
      vertex 0.212132 1.21213 -0.5
      vertex 0.299999 1 0.5
      vertex 0.299999 1 -0.5
    endloop
  endfacet
  facet normal -0.92388 0.382683 0
    outer loop
      vertex -0.299999 1 -0.5
      vertex -0.212132 1.21213 0.5
      vertex -0.212132 1.21213 -0.5
    endloop
  endfacet
  facet normal -0.92388 0.382683 0
    outer loop
      vertex -0.212132 1.21213 0.5
      vertex -0.299999 1 -0.5
      vertex -0.299999 1 0.5
    endloop
  endfacet
  facet normal 0 0 -1
    outer loop
      vertex 0.2 1 -0.5
      vertex 0.299999 1 -0.5
      vertex 0.212132 0.787868 -0.5
    endloop
  endfacet
  facet normal 0 0 -1
    outer loop
      vertex 0.299999 1 -0.5
      vertex 0.2 1 -0.5
      vertex 0.212132 1.21213 -0.5
    endloop
  endfacet
  facet normal 0 0 -1
    outer loop
      vertex 0.212132 0.787868 -0.5
      vertex 0.141421 0.858579 -0.5
      vertex 0.2 1 -0.5
    endloop
  endfacet
  facet normal 0 0 -1
    outer loop
      vertex 0 0.700001 -0.5
      vertex 0.141421 0.858579 -0.5
      vertex 0.212132 0.787868 -0.5
    endloop
  endfacet
  facet normal 0 0 -1
    outer loop
      vertex 0 0.700001 -0.5
      vertex 0 0.8 -0.5
      vertex 0.141421 0.858579 -0.5
    endloop
  endfacet
  facet normal 0 0 -1
    outer loop
      vertex 0 0.700001 -0.5
      vertex -0.141421 0.858579 -0.5
      vertex 0 0.8 -0.5
    endloop
  endfacet
  facet normal -0 0 -1
    outer loop
      vertex -0.141421 0.858579 -0.5
      vertex -0.212132 0.787868 -0.5
      vertex -0.2 1 -0.5
    endloop
  endfacet
  facet normal 0 0 -1
    outer loop
      vertex -0.212132 0.787868 -0.5
      vertex -0.141421 0.858579 -0.5
      vertex 0 0.700001 -0.5
    endloop
  endfacet
  facet normal 0 0 -1
    outer loop
      vertex 0.141421 1.14142 -0.5
      vertex 0.212132 1.21213 -0.5
      vertex 0.2 1 -0.5
    endloop
  endfacet
  facet normal 0 0 -1
    outer loop
      vertex 0 1.2 -0.5
      vertex 0.212132 1.21213 -0.5
      vertex 0.141421 1.14142 -0.5
    endloop
  endfacet
  facet normal 0 0 -1
    outer loop
      vertex 0 1.2 -0.5
      vertex 0 1.3 -0.5
      vertex 0.212132 1.21213 -0.5
    endloop
  endfacet
  facet normal 0 0 -1
    outer loop
      vertex -0.141421 1.14142 -0.5
      vertex 0 1.3 -0.5
      vertex 0 1.2 -0.5
    endloop
  endfacet
  facet normal 0 0 -1
    outer loop
      vertex -0.141421 1.14142 -0.5
      vertex -0.212132 1.21213 -0.5
      vertex 0 1.3 -0.5
    endloop
  endfacet
  facet normal 0 0 -1
    outer loop
      vertex -0.2 1 -0.5
      vertex -0.212132 1.21213 -0.5
      vertex -0.141421 1.14142 -0.5
    endloop
  endfacet
  facet normal 0 0 -1
    outer loop
      vertex -0.299999 1 -0.5
      vertex -0.2 1 -0.5
      vertex -0.212132 0.787868 -0.5
    endloop
  endfacet
  facet normal 0 0 -1
    outer loop
      vertex -0.2 1 -0.5
      vertex -0.299999 1 -0.5
      vertex -0.212132 1.21213 -0.5
    endloop
  endfacet
  facet normal -0.382683 0.92388 0
    outer loop
      vertex 0 1.3 -0.5
      vertex -0.212132 1.21213 0.5
      vertex 0 1.3 0.5
    endloop
  endfacet
  facet normal -0.382683 0.92388 0
    outer loop
      vertex -0.212132 1.21213 0.5
      vertex 0 1.3 -0.5
      vertex -0.212132 1.21213 -0.5
    endloop
  endfacet
  facet normal 0.382683 0.92388 -0
    outer loop
      vertex 0.212132 1.21213 -0.5
      vertex 0 1.3 0.5
      vertex 0.212132 1.21213 0.5
    endloop
  endfacet
  facet normal 0.382683 0.92388 0
    outer loop
      vertex 0 1.3 0.5
      vertex 0.212132 1.21213 -0.5
      vertex 0 1.3 -0.5
    endloop
  endfacet
  facet normal 0 0 1
    outer loop
      vertex 0.2 1 0.5
      vertex 0.299999 1 0.5
      vertex 0.212132 1.21213 0.5
    endloop
  endfacet
  facet normal 0 0 1
    outer loop
      vertex 0.299999 1 0.5
      vertex 0.2 1 0.5
      vertex 0.212132 0.787868 0.5
    endloop
  endfacet
  facet normal 0 0 1
    outer loop
      vertex 0.212132 1.21213 0.5
      vertex 0.141421 1.14142 0.5
      vertex 0.2 1 0.5
    endloop
  endfacet
  facet normal 0 0 1
    outer loop
      vertex 0 1.3 0.5
      vertex 0.141421 1.14142 0.5
      vertex 0.212132 1.21213 0.5
    endloop
  endfacet
  facet normal 0 0 1
    outer loop
      vertex 0 1.3 0.5
      vertex 0 1.2 0.5
      vertex 0.141421 1.14142 0.5
    endloop
  endfacet
  facet normal 0 0 1
    outer loop
      vertex 0 1.3 0.5
      vertex -0.141421 1.14142 0.5
      vertex 0 1.2 0.5
    endloop
  endfacet
  facet normal 0 0 1
    outer loop
      vertex -0.141421 1.14142 0.5
      vertex -0.212132 1.21213 0.5
      vertex -0.2 1 0.5
    endloop
  endfacet
  facet normal -0 0 1
    outer loop
      vertex -0.212132 1.21213 0.5
      vertex -0.141421 1.14142 0.5
      vertex 0 1.3 0.5
    endloop
  endfacet
  facet normal -0 0 1
    outer loop
      vertex 0.141421 0.858579 0.5
      vertex 0.212132 0.787868 0.5
      vertex 0.2 1 0.5
    endloop
  endfacet
  facet normal -0 0 1
    outer loop
      vertex 0 0.8 0.5
      vertex 0.212132 0.787868 0.5
      vertex 0.141421 0.858579 0.5
    endloop
  endfacet
  facet normal 0 0 1
    outer loop
      vertex 0 0.8 0.5
      vertex 0 0.700001 0.5
      vertex 0.212132 0.787868 0.5
    endloop
  endfacet
  facet normal 0 0 1
    outer loop
      vertex -0.141421 0.858579 0.5
      vertex 0 0.700001 0.5
      vertex 0 0.8 0.5
    endloop
  endfacet
  facet normal 0 0 1
    outer loop
      vertex -0.141421 0.858579 0.5
      vertex -0.212132 0.787868 0.5
      vertex 0 0.700001 0.5
    endloop
  endfacet
  facet normal 0 0 1
    outer loop
      vertex -0.2 1 0.5
      vertex -0.212132 0.787868 0.5
      vertex -0.141421 0.858579 0.5
    endloop
  endfacet
  facet normal 0 0 1
    outer loop
      vertex -0.299999 1 0.5
      vertex -0.2 1 0.5
      vertex -0.212132 1.21213 0.5
    endloop
  endfacet
  facet normal 0 0 1
    outer loop
      vertex -0.2 1 0.5
      vertex -0.299999 1 0.5
      vertex -0.212132 0.787868 0.5
    endloop
  endfacet
  facet normal -0.92388 -0.382683 0
    outer loop
      vertex -0.212132 0.787868 -0.5
      vertex -0.299999 1 0.5
      vertex -0.299999 1 -0.5
    endloop
  endfacet
  facet normal -0.92388 -0.382683 0
    outer loop
      vertex -0.299999 1 0.5
      vertex -0.212132 0.787868 -0.5
      vertex -0.212132 0.787868 0.5
    endloop
  endfacet
  facet normal 0.92388 -0.382683 0
    outer loop
      vertex 0.212132 0.787868 0.5
      vertex 0.299999 1 -0.5
      vertex 0.299999 1 0.5
    endloop
  endfacet
  facet normal 0.92388 -0.382683 0
    outer loop
      vertex 0.299999 1 -0.5
      vertex 0.212132 0.787868 0.5
      vertex 0.212132 0.787868 -0.5
    endloop
  endfacet
  facet normal 0.382683 -0.92388 0
    outer loop
      vertex 0 0.700001 -0.5
      vertex 0.212132 0.787868 0.5
      vertex 0 0.700001 0.5
    endloop
  endfacet
  facet normal 0.382683 -0.92388 0
    outer loop
      vertex 0.212132 0.787868 0.5
      vertex 0 0.700001 -0.5
      vertex 0.212132 0.787868 -0.5
    endloop
  endfacet
  facet normal -0.382683 -0.92388 0
    outer loop
      vertex -0.212132 0.787868 -0.5
      vertex 0 0.700001 0.5
      vertex -0.212132 0.787868 0.5
    endloop
  endfacet
  facet normal -0.382683 -0.92388 -0
    outer loop
      vertex 0 0.700001 0.5
      vertex -0.212132 0.787868 -0.5
      vertex 0 0.700001 -0.5
    endloop
  endfacet
  facet normal -0.92388 -0.382683 0
    outer loop
      vertex 0.2 1 -0.5
      vertex 0.141421 1.14142 0.5
      vertex 0.141421 1.14142 -0.5
    endloop
  endfacet
  facet normal -0.92388 -0.382683 0
    outer loop
      vertex 0.141421 1.14142 0.5
      vertex 0.2 1 -0.5
      vertex 0.2 1 0.5
    endloop
  endfacet
  facet normal 0.92388 -0.382683 0
    outer loop
      vertex -0.2 1 0.5
      vertex -0.141421 1.14142 -0.5
      vertex -0.141421 1.14142 0.5
    endloop
  endfacet
  facet normal 0.92388 -0.382683 0
    outer loop
      vertex -0.141421 1.14142 -0.5
      vertex -0.2 1 0.5
      vertex -0.2 1 -0.5
    endloop
  endfacet
  facet normal 0.382683 -0.92388 0
    outer loop
      vertex -0.141421 1.14142 -0.5
      vertex 0 1.2 0.5
      vertex -0.141421 1.14142 0.5
    endloop
  endfacet
  facet normal 0.382683 -0.92388 0
    outer loop
      vertex 0 1.2 0.5
      vertex -0.141421 1.14142 -0.5
      vertex 0 1.2 -0.5
    endloop
  endfacet
  facet normal -0.382683 -0.92388 0
    outer loop
      vertex 0 1.2 -0.5
      vertex 0.141421 1.14142 0.5
      vertex 0 1.2 0.5
    endloop
  endfacet
  facet normal -0.382683 -0.92388 -0
    outer loop
      vertex 0.141421 1.14142 0.5
      vertex 0 1.2 -0.5
      vertex 0.141421 1.14142 -0.5
    endloop
  endfacet
  facet normal 0.92388 0.382683 0
    outer loop
      vertex -0.141421 0.858579 0.5
      vertex -0.2 1 -0.5
      vertex -0.2 1 0.5
    endloop
  endfacet
  facet normal 0.92388 0.382683 0
    outer loop
      vertex -0.2 1 -0.5
      vertex -0.141421 0.858579 0.5
      vertex -0.141421 0.858579 -0.5
    endloop
  endfacet
  facet normal -0.92388 0.382683 0
    outer loop
      vertex 0.141421 0.858579 -0.5
      vertex 0.2 1 0.5
      vertex 0.2 1 -0.5
    endloop
  endfacet
  facet normal -0.92388 0.382683 0
    outer loop
      vertex 0.2 1 0.5
      vertex 0.141421 0.858579 -0.5
      vertex 0.141421 0.858579 0.5
    endloop
  endfacet
  facet normal -0.382683 0.92388 0
    outer loop
      vertex 0.141421 0.858579 -0.5
      vertex 0 0.8 0.5
      vertex 0.141421 0.858579 0.5
    endloop
  endfacet
  facet normal -0.382683 0.92388 0
    outer loop
      vertex 0 0.8 0.5
      vertex 0.141421 0.858579 -0.5
      vertex 0 0.8 -0.5
    endloop
  endfacet
  facet normal 0.382683 0.92388 -0
    outer loop
      vertex 0 0.8 -0.5
      vertex -0.141421 0.858579 0.5
      vertex 0 0.8 0.5
    endloop
  endfacet
  facet normal 0.382683 0.92388 0
    outer loop
      vertex -0.141421 0.858579 0.5
      vertex 0 0.8 -0.5
      vertex -0.141421 0.858579 -0.5
    endloop
  endfacet
  facet normal 0.92388 0.382683 0
    outer loop
      vertex 1.3 0 0.5
      vertex 1.21213 0.212132 -0.5
      vertex 1.21213 0.212132 0.5
    endloop
  endfacet
  facet normal 0.92388 0.382683 0
    outer loop
      vertex 1.21213 0.212132 -0.5
      vertex 1.3 0 0.5
      vertex 1.3 0 -0.5
    endloop
  endfacet
  facet normal -0.92388 0.382683 0
    outer loop
      vertex 0.700001 0 -0.5
      vertex 0.787868 0.212132 0.5
      vertex 0.787868 0.212132 -0.5
    endloop
  endfacet
  facet normal -0.92388 0.382683 0
    outer loop
      vertex 0.787868 0.212132 0.5
      vertex 0.700001 0 -0.5
      vertex 0.700001 0 0.5
    endloop
  endfacet
  facet normal 0 0 -1
    outer loop
      vertex 1.2 0 -0.5
      vertex 1.3 0 -0.5
      vertex 1.21213 -0.212132 -0.5
    endloop
  endfacet
  facet normal 0 0 -1
    outer loop
      vertex 1.3 0 -0.5
      vertex 1.2 0 -0.5
      vertex 1.21213 0.212132 -0.5
    endloop
  endfacet
  facet normal 0 0 -1
    outer loop
      vertex 1.21213 -0.212132 -0.5
      vertex 1.14142 -0.141421 -0.5
      vertex 1.2 0 -0.5
    endloop
  endfacet
  facet normal 0 0 -1
    outer loop
      vertex 1 -0.299999 -0.5
      vertex 1.14142 -0.141421 -0.5
      vertex 1.21213 -0.212132 -0.5
    endloop
  endfacet
  facet normal 0 0 -1
    outer loop
      vertex 1 -0.299999 -0.5
      vertex 1 -0.2 -0.5
      vertex 1.14142 -0.141421 -0.5
    endloop
  endfacet
  facet normal 0 0 -1
    outer loop
      vertex 1 -0.299999 -0.5
      vertex 0.858579 -0.141421 -0.5
      vertex 1 -0.2 -0.5
    endloop
  endfacet
  facet normal -0 0 -1
    outer loop
      vertex 0.858579 -0.141421 -0.5
      vertex 0.787868 -0.212132 -0.5
      vertex 0.8 0 -0.5
    endloop
  endfacet
  facet normal 0 0 -1
    outer loop
      vertex 0.787868 -0.212132 -0.5
      vertex 0.858579 -0.141421 -0.5
      vertex 1 -0.299999 -0.5
    endloop
  endfacet
  facet normal 0 0 -1
    outer loop
      vertex 1.14142 0.141421 -0.5
      vertex 1.21213 0.212132 -0.5
      vertex 1.2 0 -0.5
    endloop
  endfacet
  facet normal 0 0 -1
    outer loop
      vertex 1 0.2 -0.5
      vertex 1.21213 0.212132 -0.5
      vertex 1.14142 0.141421 -0.5
    endloop
  endfacet
  facet normal 0 0 -1
    outer loop
      vertex 1 0.2 -0.5
      vertex 1 0.299999 -0.5
      vertex 1.21213 0.212132 -0.5
    endloop
  endfacet
  facet normal 0 0 -1
    outer loop
      vertex 0.858579 0.141421 -0.5
      vertex 1 0.299999 -0.5
      vertex 1 0.2 -0.5
    endloop
  endfacet
  facet normal 0 0 -1
    outer loop
      vertex 0.858579 0.141421 -0.5
      vertex 0.787868 0.212132 -0.5
      vertex 1 0.299999 -0.5
    endloop
  endfacet
  facet normal 0 0 -1
    outer loop
      vertex 0.8 0 -0.5
      vertex 0.787868 0.212132 -0.5
      vertex 0.858579 0.141421 -0.5
    endloop
  endfacet
  facet normal 0 0 -1
    outer loop
      vertex 0.700001 0 -0.5
      vertex 0.8 0 -0.5
      vertex 0.787868 -0.212132 -0.5
    endloop
  endfacet
  facet normal 0 0 -1
    outer loop
      vertex 0.8 0 -0.5
      vertex 0.700001 0 -0.5
      vertex 0.787868 0.212132 -0.5
    endloop
  endfacet
  facet normal -0.382683 0.92388 0
    outer loop
      vertex 1 0.299999 -0.5
      vertex 0.787868 0.212132 0.5
      vertex 1 0.299999 0.5
    endloop
  endfacet
  facet normal -0.382683 0.92388 0
    outer loop
      vertex 0.787868 0.212132 0.5
      vertex 1 0.299999 -0.5
      vertex 0.787868 0.212132 -0.5
    endloop
  endfacet
  facet normal 0.382683 0.92388 -0
    outer loop
      vertex 1.21213 0.212132 -0.5
      vertex 1 0.299999 0.5
      vertex 1.21213 0.212132 0.5
    endloop
  endfacet
  facet normal 0.382683 0.92388 0
    outer loop
      vertex 1 0.299999 0.5
      vertex 1.21213 0.212132 -0.5
      vertex 1 0.299999 -0.5
    endloop
  endfacet
  facet normal 0 0 1
    outer loop
      vertex 1.2 0 0.5
      vertex 1.3 0 0.5
      vertex 1.21213 0.212132 0.5
    endloop
  endfacet
  facet normal 0 0 1
    outer loop
      vertex 1.3 0 0.5
      vertex 1.2 0 0.5
      vertex 1.21213 -0.212132 0.5
    endloop
  endfacet
  facet normal 0 0 1
    outer loop
      vertex 1.21213 0.212132 0.5
      vertex 1.14142 0.141421 0.5
      vertex 1.2 0 0.5
    endloop
  endfacet
  facet normal 0 0 1
    outer loop
      vertex 1 0.299999 0.5
      vertex 1.14142 0.141421 0.5
      vertex 1.21213 0.212132 0.5
    endloop
  endfacet
  facet normal 0 0 1
    outer loop
      vertex 1 0.299999 0.5
      vertex 1 0.2 0.5
      vertex 1.14142 0.141421 0.5
    endloop
  endfacet
  facet normal 0 0 1
    outer loop
      vertex 1 0.299999 0.5
      vertex 0.858579 0.141421 0.5
      vertex 1 0.2 0.5
    endloop
  endfacet
  facet normal 0 0 1
    outer loop
      vertex 0.858579 0.141421 0.5
      vertex 0.787868 0.212132 0.5
      vertex 0.8 0 0.5
    endloop
  endfacet
  facet normal -0 0 1
    outer loop
      vertex 0.787868 0.212132 0.5
      vertex 0.858579 0.141421 0.5
      vertex 1 0.299999 0.5
    endloop
  endfacet
  facet normal -0 0 1
    outer loop
      vertex 1.14142 -0.141421 0.5
      vertex 1.21213 -0.212132 0.5
      vertex 1.2 0 0.5
    endloop
  endfacet
  facet normal -0 0 1
    outer loop
      vertex 1 -0.2 0.5
      vertex 1.21213 -0.212132 0.5
      vertex 1.14142 -0.141421 0.5
    endloop
  endfacet
  facet normal 0 0 1
    outer loop
      vertex 1 -0.2 0.5
      vertex 1 -0.299999 0.5
      vertex 1.21213 -0.212132 0.5
    endloop
  endfacet
  facet normal 0 0 1
    outer loop
      vertex 0.858579 -0.141421 0.5
      vertex 1 -0.299999 0.5
      vertex 1 -0.2 0.5
    endloop
  endfacet
  facet normal 0 0 1
    outer loop
      vertex 0.858579 -0.141421 0.5
      vertex 0.787868 -0.212132 0.5
      vertex 1 -0.299999 0.5
    endloop
  endfacet
  facet normal 0 0 1
    outer loop
      vertex 0.8 0 0.5
      vertex 0.787868 -0.212132 0.5
      vertex 0.858579 -0.141421 0.5
    endloop
  endfacet
  facet normal 0 0 1
    outer loop
      vertex 0.700001 0 0.5
      vertex 0.8 0 0.5
      vertex 0.787868 0.212132 0.5
    endloop
  endfacet
  facet normal 0 0 1
    outer loop
      vertex 0.8 0 0.5
      vertex 0.700001 0 0.5
      vertex 0.787868 -0.212132 0.5
    endloop
  endfacet
  facet normal -0.92388 -0.382683 0
    outer loop
      vertex 0.787868 -0.212132 -0.5
      vertex 0.700001 0 0.5
      vertex 0.700001 0 -0.5
    endloop
  endfacet
  facet normal -0.92388 -0.382683 0
    outer loop
      vertex 0.700001 0 0.5
      vertex 0.787868 -0.212132 -0.5
      vertex 0.787868 -0.212132 0.5
    endloop
  endfacet
  facet normal 0.92388 -0.382683 0
    outer loop
      vertex 1.21213 -0.212132 0.5
      vertex 1.3 0 -0.5
      vertex 1.3 0 0.5
    endloop
  endfacet
  facet normal 0.92388 -0.382683 0
    outer loop
      vertex 1.3 0 -0.5
      vertex 1.21213 -0.212132 0.5
      vertex 1.21213 -0.212132 -0.5
    endloop
  endfacet
  facet normal 0.382683 -0.92388 0
    outer loop
      vertex 1 -0.299999 -0.5
      vertex 1.21213 -0.212132 0.5
      vertex 1 -0.299999 0.5
    endloop
  endfacet
  facet normal 0.382683 -0.92388 0
    outer loop
      vertex 1.21213 -0.212132 0.5
      vertex 1 -0.299999 -0.5
      vertex 1.21213 -0.212132 -0.5
    endloop
  endfacet
  facet normal -0.382683 -0.92388 0
    outer loop
      vertex 0.787868 -0.212132 -0.5
      vertex 1 -0.299999 0.5
      vertex 0.787868 -0.212132 0.5
    endloop
  endfacet
  facet normal -0.382683 -0.92388 -0
    outer loop
      vertex 1 -0.299999 0.5
      vertex 0.787868 -0.212132 -0.5
      vertex 1 -0.299999 -0.5
    endloop
  endfacet
  facet normal -0.92388 -0.382683 0
    outer loop
      vertex 1.2 0 -0.5
      vertex 1.14142 0.141421 0.5
      vertex 1.14142 0.141421 -0.5
    endloop
  endfacet
  facet normal -0.92388 -0.382683 0
    outer loop
      vertex 1.14142 0.141421 0.5
      vertex 1.2 0 -0.5
      vertex 1.2 0 0.5
    endloop
  endfacet
  facet normal 0.92388 -0.382683 0
    outer loop
      vertex 0.8 0 0.5
      vertex 0.858579 0.141421 -0.5
      vertex 0.858579 0.141421 0.5
    endloop
  endfacet
  facet normal 0.92388 -0.382683 0
    outer loop
      vertex 0.858579 0.141421 -0.5
      vertex 0.8 0 0.5
      vertex 0.8 0 -0.5
    endloop
  endfacet
  facet normal 0.382683 -0.92388 0
    outer loop
      vertex 0.858579 0.141421 -0.5
      vertex 1 0.2 0.5
      vertex 0.858579 0.141421 0.5
    endloop
  endfacet
  facet normal 0.382683 -0.92388 0
    outer loop
      vertex 1 0.2 0.5
      vertex 0.858579 0.141421 -0.5
      vertex 1 0.2 -0.5
    endloop
  endfacet
  facet normal -0.382683 -0.92388 0
    outer loop
      vertex 1 0.2 -0.5
      vertex 1.14142 0.141421 0.5
      vertex 1 0.2 0.5
    endloop
  endfacet
  facet normal -0.382683 -0.92388 -0
    outer loop
      vertex 1.14142 0.141421 0.5
      vertex 1 0.2 -0.5
      vertex 1.14142 0.141421 -0.5
    endloop
  endfacet
  facet normal 0.92388 0.382683 0
    outer loop
      vertex 0.858579 -0.141421 0.5
      vertex 0.8 0 -0.5
      vertex 0.8 0 0.5
    endloop
  endfacet
  facet normal 0.92388 0.382683 0
    outer loop
      vertex 0.8 0 -0.5
      vertex 0.858579 -0.141421 0.5
      vertex 0.858579 -0.141421 -0.5
    endloop
  endfacet
  facet normal -0.92388 0.382683 0
    outer loop
      vertex 1.14142 -0.141421 -0.5
      vertex 1.2 0 0.5
      vertex 1.2 0 -0.5
    endloop
  endfacet
  facet normal -0.92388 0.382683 0
    outer loop
      vertex 1.2 0 0.5
      vertex 1.14142 -0.141421 -0.5
      vertex 1.14142 -0.141421 0.5
    endloop
  endfacet
  facet normal -0.382683 0.92388 0
    outer loop
      vertex 1.14142 -0.141421 -0.5
      vertex 1 -0.2 0.5
      vertex 1.14142 -0.141421 0.5
    endloop
  endfacet
  facet normal -0.382683 0.92388 0
    outer loop
      vertex 1 -0.2 0.5
      vertex 1.14142 -0.141421 -0.5
      vertex 1 -0.2 -0.5
    endloop
  endfacet
  facet normal 0.382683 0.92388 -0
    outer loop
      vertex 1 -0.2 -0.5
      vertex 0.858579 -0.141421 0.5
      vertex 1 -0.2 0.5
    endloop
  endfacet
  facet normal 0.382683 0.92388 0
    outer loop
      vertex 0.858579 -0.141421 0.5
      vertex 1 -0.2 -0.5
      vertex 0.858579 -0.141421 -0.5
    endloop
  endfacet
  facet normal 0.92388 0.382683 0
    outer loop
      vertex -0.700001 0 0.5
      vertex -0.787868 0.212132 -0.5
      vertex -0.787868 0.212132 0.5
    endloop
  endfacet
  facet normal 0.92388 0.382683 0
    outer loop
      vertex -0.787868 0.212132 -0.5
      vertex -0.700001 0 0.5
      vertex -0.700001 0 -0.5
    endloop
  endfacet
  facet normal -0.92388 0.382683 0
    outer loop
      vertex -1.3 0 -0.5
      vertex -1.21213 0.212132 0.5
      vertex -1.21213 0.212132 -0.5
    endloop
  endfacet
  facet normal -0.92388 0.382683 0
    outer loop
      vertex -1.21213 0.212132 0.5
      vertex -1.3 0 -0.5
      vertex -1.3 0 0.5
    endloop
  endfacet
  facet normal 0 0 -1
    outer loop
      vertex -0.8 0 -0.5
      vertex -0.700001 0 -0.5
      vertex -0.787868 -0.212132 -0.5
    endloop
  endfacet
  facet normal 0 0 -1
    outer loop
      vertex -0.700001 0 -0.5
      vertex -0.8 0 -0.5
      vertex -0.787868 0.212132 -0.5
    endloop
  endfacet
  facet normal 0 0 -1
    outer loop
      vertex -0.787868 -0.212132 -0.5
      vertex -0.858579 -0.141421 -0.5
      vertex -0.8 0 -0.5
    endloop
  endfacet
  facet normal 0 0 -1
    outer loop
      vertex -1 -0.299999 -0.5
      vertex -0.858579 -0.141421 -0.5
      vertex -0.787868 -0.212132 -0.5
    endloop
  endfacet
  facet normal 0 0 -1
    outer loop
      vertex -1 -0.299999 -0.5
      vertex -1 -0.2 -0.5
      vertex -0.858579 -0.141421 -0.5
    endloop
  endfacet
  facet normal 0 0 -1
    outer loop
      vertex -1 -0.299999 -0.5
      vertex -1.14142 -0.141421 -0.5
      vertex -1 -0.2 -0.5
    endloop
  endfacet
  facet normal -0 0 -1
    outer loop
      vertex -1.14142 -0.141421 -0.5
      vertex -1.21213 -0.212132 -0.5
      vertex -1.2 0 -0.5
    endloop
  endfacet
  facet normal 0 0 -1
    outer loop
      vertex -1.21213 -0.212132 -0.5
      vertex -1.14142 -0.141421 -0.5
      vertex -1 -0.299999 -0.5
    endloop
  endfacet
  facet normal 0 0 -1
    outer loop
      vertex -0.858579 0.141421 -0.5
      vertex -0.787868 0.212132 -0.5
      vertex -0.8 0 -0.5
    endloop
  endfacet
  facet normal 0 0 -1
    outer loop
      vertex -1 0.2 -0.5
      vertex -0.787868 0.212132 -0.5
      vertex -0.858579 0.141421 -0.5
    endloop
  endfacet
  facet normal 0 0 -1
    outer loop
      vertex -1 0.2 -0.5
      vertex -1 0.299999 -0.5
      vertex -0.787868 0.212132 -0.5
    endloop
  endfacet
  facet normal 0 0 -1
    outer loop
      vertex -1.14142 0.141421 -0.5
      vertex -1 0.299999 -0.5
      vertex -1 0.2 -0.5
    endloop
  endfacet
  facet normal 0 0 -1
    outer loop
      vertex -1.14142 0.141421 -0.5
      vertex -1.21213 0.212132 -0.5
      vertex -1 0.299999 -0.5
    endloop
  endfacet
  facet normal 0 0 -1
    outer loop
      vertex -1.2 0 -0.5
      vertex -1.21213 0.212132 -0.5
      vertex -1.14142 0.141421 -0.5
    endloop
  endfacet
  facet normal 0 0 -1
    outer loop
      vertex -1.3 0 -0.5
      vertex -1.2 0 -0.5
      vertex -1.21213 -0.212132 -0.5
    endloop
  endfacet
  facet normal 0 0 -1
    outer loop
      vertex -1.2 0 -0.5
      vertex -1.3 0 -0.5
      vertex -1.21213 0.212132 -0.5
    endloop
  endfacet
  facet normal -0.382683 0.92388 0
    outer loop
      vertex -1 0.299999 -0.5
      vertex -1.21213 0.212132 0.5
      vertex -1 0.299999 0.5
    endloop
  endfacet
  facet normal -0.382683 0.92388 0
    outer loop
      vertex -1.21213 0.212132 0.5
      vertex -1 0.299999 -0.5
      vertex -1.21213 0.212132 -0.5
    endloop
  endfacet
  facet normal 0.382683 0.92388 -0
    outer loop
      vertex -0.787868 0.212132 -0.5
      vertex -1 0.299999 0.5
      vertex -0.787868 0.212132 0.5
    endloop
  endfacet
  facet normal 0.382683 0.92388 0
    outer loop
      vertex -1 0.299999 0.5
      vertex -0.787868 0.212132 -0.5
      vertex -1 0.299999 -0.5
    endloop
  endfacet
  facet normal 0 0 1
    outer loop
      vertex -0.8 0 0.5
      vertex -0.700001 0 0.5
      vertex -0.787868 0.212132 0.5
    endloop
  endfacet
  facet normal 0 0 1
    outer loop
      vertex -0.700001 0 0.5
      vertex -0.8 0 0.5
      vertex -0.787868 -0.212132 0.5
    endloop
  endfacet
  facet normal 0 0 1
    outer loop
      vertex -0.787868 0.212132 0.5
      vertex -0.858579 0.141421 0.5
      vertex -0.8 0 0.5
    endloop
  endfacet
  facet normal 0 0 1
    outer loop
      vertex -1 0.299999 0.5
      vertex -0.858579 0.141421 0.5
      vertex -0.787868 0.212132 0.5
    endloop
  endfacet
  facet normal 0 0 1
    outer loop
      vertex -1 0.299999 0.5
      vertex -1 0.2 0.5
      vertex -0.858579 0.141421 0.5
    endloop
  endfacet
  facet normal 0 0 1
    outer loop
      vertex -1 0.299999 0.5
      vertex -1.14142 0.141421 0.5
      vertex -1 0.2 0.5
    endloop
  endfacet
  facet normal 0 0 1
    outer loop
      vertex -1.14142 0.141421 0.5
      vertex -1.21213 0.212132 0.5
      vertex -1.2 0 0.5
    endloop
  endfacet
  facet normal -0 0 1
    outer loop
      vertex -1.21213 0.212132 0.5
      vertex -1.14142 0.141421 0.5
      vertex -1 0.299999 0.5
    endloop
  endfacet
  facet normal -0 0 1
    outer loop
      vertex -0.858579 -0.141421 0.5
      vertex -0.787868 -0.212132 0.5
      vertex -0.8 0 0.5
    endloop
  endfacet
  facet normal -0 0 1
    outer loop
      vertex -1 -0.2 0.5
      vertex -0.787868 -0.212132 0.5
      vertex -0.858579 -0.141421 0.5
    endloop
  endfacet
  facet normal 0 0 1
    outer loop
      vertex -1 -0.2 0.5
      vertex -1 -0.299999 0.5
      vertex -0.787868 -0.212132 0.5
    endloop
  endfacet
  facet normal 0 0 1
    outer loop
      vertex -1.14142 -0.141421 0.5
      vertex -1 -0.299999 0.5
      vertex -1 -0.2 0.5
    endloop
  endfacet
  facet normal 0 0 1
    outer loop
      vertex -1.14142 -0.141421 0.5
      vertex -1.21213 -0.212132 0.5
      vertex -1 -0.299999 0.5
    endloop
  endfacet
  facet normal 0 0 1
    outer loop
      vertex -1.2 0 0.5
      vertex -1.21213 -0.212132 0.5
      vertex -1.14142 -0.141421 0.5
    endloop
  endfacet
  facet normal 0 0 1
    outer loop
      vertex -1.3 0 0.5
      vertex -1.2 0 0.5
      vertex -1.21213 0.212132 0.5
    endloop
  endfacet
  facet normal 0 0 1
    outer loop
      vertex -1.2 0 0.5
      vertex -1.3 0 0.5
      vertex -1.21213 -0.212132 0.5
    endloop
  endfacet
  facet normal -0.92388 -0.382683 0
    outer loop
      vertex -1.21213 -0.212132 -0.5
      vertex -1.3 0 0.5
      vertex -1.3 0 -0.5
    endloop
  endfacet
  facet normal -0.92388 -0.382683 0
    outer loop
      vertex -1.3 0 0.5
      vertex -1.21213 -0.212132 -0.5
      vertex -1.21213 -0.212132 0.5
    endloop
  endfacet
  facet normal 0.92388 -0.382683 0
    outer loop
      vertex -0.787868 -0.212132 0.5
      vertex -0.700001 0 -0.5
      vertex -0.700001 0 0.5
    endloop
  endfacet
  facet normal 0.92388 -0.382683 0
    outer loop
      vertex -0.700001 0 -0.5
      vertex -0.787868 -0.212132 0.5
      vertex -0.787868 -0.212132 -0.5
    endloop
  endfacet
  facet normal 0.382683 -0.92388 0
    outer loop
      vertex -1 -0.299999 -0.5
      vertex -0.787868 -0.212132 0.5
      vertex -1 -0.299999 0.5
    endloop
  endfacet
  facet normal 0.382683 -0.92388 0
    outer loop
      vertex -0.787868 -0.212132 0.5
      vertex -1 -0.299999 -0.5
      vertex -0.787868 -0.212132 -0.5
    endloop
  endfacet
  facet normal -0.382683 -0.92388 0
    outer loop
      vertex -1.21213 -0.212132 -0.5
      vertex -1 -0.299999 0.5
      vertex -1.21213 -0.212132 0.5
    endloop
  endfacet
  facet normal -0.382683 -0.92388 -0
    outer loop
      vertex -1 -0.299999 0.5
      vertex -1.21213 -0.212132 -0.5
      vertex -1 -0.299999 -0.5
    endloop
  endfacet
  facet normal -0.92388 -0.382683 0
    outer loop
      vertex -0.8 0 -0.5
      vertex -0.858579 0.141421 0.5
      vertex -0.858579 0.141421 -0.5
    endloop
  endfacet
  facet normal -0.92388 -0.382683 0
    outer loop
      vertex -0.858579 0.141421 0.5
      vertex -0.8 0 -0.5
      vertex -0.8 0 0.5
    endloop
  endfacet
  facet normal 0.92388 -0.382683 0
    outer loop
      vertex -1.2 0 0.5
      vertex -1.14142 0.141421 -0.5
      vertex -1.14142 0.141421 0.5
    endloop
  endfacet
  facet normal 0.92388 -0.382683 0
    outer loop
      vertex -1.14142 0.141421 -0.5
      vertex -1.2 0 0.5
      vertex -1.2 0 -0.5
    endloop
  endfacet
  facet normal 0.382683 -0.92388 0
    outer loop
      vertex -1.14142 0.141421 -0.5
      vertex -1 0.2 0.5
      vertex -1.14142 0.141421 0.5
    endloop
  endfacet
  facet normal 0.382683 -0.92388 0
    outer loop
      vertex -1 0.2 0.5
      vertex -1.14142 0.141421 -0.5
      vertex -1 0.2 -0.5
    endloop
  endfacet
  facet normal -0.382683 -0.92388 0
    outer loop
      vertex -1 0.2 -0.5
      vertex -0.858579 0.141421 0.5
      vertex -1 0.2 0.5
    endloop
  endfacet
  facet normal -0.382683 -0.92388 -0
    outer loop
      vertex -0.858579 0.141421 0.5
      vertex -1 0.2 -0.5
      vertex -0.858579 0.141421 -0.5
    endloop
  endfacet
  facet normal 0.92388 0.382683 0
    outer loop
      vertex -1.14142 -0.141421 0.5
      vertex -1.2 0 -0.5
      vertex -1.2 0 0.5
    endloop
  endfacet
  facet normal 0.92388 0.382683 0
    outer loop
      vertex -1.2 0 -0.5
      vertex -1.14142 -0.141421 0.5
      vertex -1.14142 -0.141421 -0.5
    endloop
  endfacet
  facet normal -0.92388 0.382683 0
    outer loop
      vertex -0.858579 -0.141421 -0.5
      vertex -0.8 0 0.5
      vertex -0.8 0 -0.5
    endloop
  endfacet
  facet normal -0.92388 0.382683 0
    outer loop
      vertex -0.8 0 0.5
      vertex -0.858579 -0.141421 -0.5
      vertex -0.858579 -0.141421 0.5
    endloop
  endfacet
  facet normal -0.382683 0.92388 0
    outer loop
      vertex -0.858579 -0.141421 -0.5
      vertex -1 -0.2 0.5
      vertex -0.858579 -0.141421 0.5
    endloop
  endfacet
  facet normal -0.382683 0.92388 0
    outer loop
      vertex -1 -0.2 0.5
      vertex -0.858579 -0.141421 -0.5
      vertex -1 -0.2 -0.5
    endloop
  endfacet
  facet normal 0.382683 0.92388 -0
    outer loop
      vertex -1 -0.2 -0.5
      vertex -1.14142 -0.141421 0.5
      vertex -1 -0.2 0.5
    endloop
  endfacet
  facet normal 0.382683 0.92388 0
    outer loop
      vertex -1.14142 -0.141421 0.5
      vertex -1 -0.2 -0.5
      vertex -1.14142 -0.141421 -0.5
    endloop
  endfacet
endsolid OpenSCAD_Model
