solid OpenSCAD_Model
  facet normal 0.923879 0.382684 0
    outer loop
      vertex 48 0 17.5
      vertex 45.6569 5.65685 -17.5
      vertex 45.6569 5.65685 17.5
    endloop
  endfacet
  facet normal 0.923879 0.382684 0
    outer loop
      vertex 45.6569 5.65685 -17.5
      vertex 48 0 17.5
      vertex 48 0 -17.5
    endloop
  endfacet
  facet normal -0.382684 -0.923879 0
    outer loop
      vertex 34.3431 -5.65685 -17.5
      vertex 40 -8 17.5
      vertex 34.3431 -5.65685 17.5
    endloop
  endfacet
  facet normal -0.382684 -0.923879 -0
    outer loop
      vertex 40 -8 17.5
      vertex 34.3431 -5.65685 -17.5
      vertex 40 -8 -17.5
    endloop
  endfacet
  facet normal -0.382684 0.923879 0
    outer loop
      vertex 40 8 -17.5
      vertex 34.3431 5.65685 17.5
      vertex 40 8 17.5
    endloop
  endfacet
  facet normal -0.382684 0.923879 0
    outer loop
      vertex 34.3431 5.65685 17.5
      vertex 40 8 -17.5
      vertex 34.3431 5.65685 -17.5
    endloop
  endfacet
  facet normal 0.382684 0.923879 -0
    outer loop
      vertex 45.6569 5.65685 -17.5
      vertex 40 8 17.5
      vertex 45.6569 5.65685 17.5
    endloop
  endfacet
  facet normal 0.382684 0.923879 0
    outer loop
      vertex 40 8 17.5
      vertex 45.6569 5.65685 -17.5
      vertex 40 8 -17.5
    endloop
  endfacet
  facet normal 0 0 1
    outer loop
      vertex 45.6569 5.65685 17.5
      vertex 45.6569 -5.65685 17.5
      vertex 48 0 17.5
    endloop
  endfacet
  facet normal 0 0 1
    outer loop
      vertex 40 8 17.5
      vertex 45.6569 -5.65685 17.5
      vertex 45.6569 5.65685 17.5
    endloop
  endfacet
  facet normal 0 0 1
    outer loop
      vertex 40 8 17.5
      vertex 40 -8 17.5
      vertex 45.6569 -5.65685 17.5
    endloop
  endfacet
  facet normal -0 0 1
    outer loop
      vertex 34.3431 5.65685 17.5
      vertex 40 -8 17.5
      vertex 40 8 17.5
    endloop
  endfacet
  facet normal 0 0 1
    outer loop
      vertex 34.3431 5.65685 17.5
      vertex 34.3431 -5.65685 17.5
      vertex 40 -8 17.5
    endloop
  endfacet
  facet normal 0 -0 1
    outer loop
      vertex 34.3431 -5.65685 17.5
      vertex 34.3431 5.65685 17.5
      vertex 32 0 17.5
    endloop
  endfacet
  facet normal -0.923879 0.382684 0
    outer loop
      vertex 32 0 -17.5
      vertex 34.3431 5.65685 17.5
      vertex 34.3431 5.65685 -17.5
    endloop
  endfacet
  facet normal -0.923879 0.382684 0
    outer loop
      vertex 34.3431 5.65685 17.5
      vertex 32 0 -17.5
      vertex 32 0 17.5
    endloop
  endfacet
  facet normal 0 0 -1
    outer loop
      vertex 45.6569 -5.65685 -17.5
      vertex 45.6569 5.65685 -17.5
      vertex 48 0 -17.5
    endloop
  endfacet
  facet normal 0 0 -1
    outer loop
      vertex 40 -8 -17.5
      vertex 45.6569 5.65685 -17.5
      vertex 45.6569 -5.65685 -17.5
    endloop
  endfacet
  facet normal 0 0 -1
    outer loop
      vertex 40 -8 -17.5
      vertex 40 8 -17.5
      vertex 45.6569 5.65685 -17.5
    endloop
  endfacet
  facet normal 0 0 -1
    outer loop
      vertex 34.3431 -5.65685 -17.5
      vertex 40 8 -17.5
      vertex 40 -8 -17.5
    endloop
  endfacet
  facet normal 0 0 -1
    outer loop
      vertex 34.3431 -5.65685 -17.5
      vertex 34.3431 5.65685 -17.5
      vertex 40 8 -17.5
    endloop
  endfacet
  facet normal 0 -0 -1
    outer loop
      vertex 34.3431 5.65685 -17.5
      vertex 34.3431 -5.65685 -17.5
      vertex 32 0 -17.5
    endloop
  endfacet
  facet normal -0.923879 -0.382684 0
    outer loop
      vertex 34.3431 -5.65685 -17.5
      vertex 32 0 17.5
      vertex 32 0 -17.5
    endloop
  endfacet
  facet normal -0.923879 -0.382684 0
    outer loop
      vertex 32 0 17.5
      vertex 34.3431 -5.65685 -17.5
      vertex 34.3431 -5.65685 17.5
    endloop
  endfacet
  facet normal 0.382684 -0.923879 0
    outer loop
      vertex 40 -8 -17.5
      vertex 45.6569 -5.65685 17.5
      vertex 40 -8 17.5
    endloop
  endfacet
  facet normal 0.382684 -0.923879 0
    outer loop
      vertex 45.6569 -5.65685 17.5
      vertex 40 -8 -17.5
      vertex 45.6569 -5.65685 -17.5
    endloop
  endfacet
  facet normal 0.923879 -0.382684 0
    outer loop
      vertex 45.6569 -5.65685 17.5
      vertex 48 0 -17.5
      vertex 48 0 17.5
    endloop
  endfacet
  facet normal 0.923879 -0.382684 0
    outer loop
      vertex 48 0 -17.5
      vertex 45.6569 -5.65685 17.5
      vertex 45.6569 -5.65685 -17.5
    endloop
  endfacet
  facet normal 0.923879 0.382684 0
    outer loop
      vertex 2 0 17.5
      vertex 1.41421 1.41421 -17.5
      vertex 1.41421 1.41421 17.5
    endloop
  endfacet
  facet normal 0.923879 0.382684 0
    outer loop
      vertex 1.41421 1.41421 -17.5
      vertex 2 0 17.5
      vertex 2 0 -17.5
    endloop
  endfacet
  facet normal -0.923879 0.382684 0
    outer loop
      vertex -2 0 -17.5
      vertex -1.41421 1.41421 17.5
      vertex -1.41421 1.41421 -17.5
    endloop
  endfacet
  facet normal -0.923879 0.382684 0
    outer loop
      vertex -1.41421 1.41421 17.5
      vertex -2 0 -17.5
      vertex -2 0 17.5
    endloop
  endfacet
  facet normal 0.382684 0.923879 -0
    outer loop
      vertex 1.41421 1.41421 -17.5
      vertex 0 2 17.5
      vertex 1.41421 1.41421 17.5
    endloop
  endfacet
  facet normal 0.382684 0.923879 0
    outer loop
      vertex 0 2 17.5
      vertex 1.41421 1.41421 -17.5
      vertex 0 2 -17.5
    endloop
  endfacet
  facet normal 0 0 -1
    outer loop
      vertex 1.41421 -1.41421 -17.5
      vertex 1.41421 1.41421 -17.5
      vertex 2 0 -17.5
    endloop
  endfacet
  facet normal 0 0 -1
    outer loop
      vertex 0 -2 -17.5
      vertex 1.41421 1.41421 -17.5
      vertex 1.41421 -1.41421 -17.5
    endloop
  endfacet
  facet normal 0 0 -1
    outer loop
      vertex 0 -2 -17.5
      vertex 0 2 -17.5
      vertex 1.41421 1.41421 -17.5
    endloop
  endfacet
  facet normal 0 0 -1
    outer loop
      vertex -1.41421 -1.41421 -17.5
      vertex 0 2 -17.5
      vertex 0 -2 -17.5
    endloop
  endfacet
  facet normal 0 0 -1
    outer loop
      vertex -1.41421 -1.41421 -17.5
      vertex -1.41421 1.41421 -17.5
      vertex 0 2 -17.5
    endloop
  endfacet
  facet normal 0 -0 -1
    outer loop
      vertex -1.41421 1.41421 -17.5
      vertex -1.41421 -1.41421 -17.5
      vertex -2 0 -17.5
    endloop
  endfacet
  facet normal 0 0 1
    outer loop
      vertex 1.41421 1.41421 17.5
      vertex 1.41421 -1.41421 17.5
      vertex 2 0 17.5
    endloop
  endfacet
  facet normal 0 0 1
    outer loop
      vertex 0 2 17.5
      vertex 1.41421 -1.41421 17.5
      vertex 1.41421 1.41421 17.5
    endloop
  endfacet
  facet normal 0 0 1
    outer loop
      vertex 0 2 17.5
      vertex 0 -2 17.5
      vertex 1.41421 -1.41421 17.5
    endloop
  endfacet
  facet normal -0 0 1
    outer loop
      vertex -1.41421 1.41421 17.5
      vertex 0 -2 17.5
      vertex 0 2 17.5
    endloop
  endfacet
  facet normal 0 0 1
    outer loop
      vertex -1.41421 1.41421 17.5
      vertex -1.41421 -1.41421 17.5
      vertex 0 -2 17.5
    endloop
  endfacet
  facet normal 0 -0 1
    outer loop
      vertex -1.41421 -1.41421 17.5
      vertex -1.41421 1.41421 17.5
      vertex -2 0 17.5
    endloop
  endfacet
  facet normal -0.382684 0.923879 0
    outer loop
      vertex 0 2 -17.5
      vertex -1.41421 1.41421 17.5
      vertex 0 2 17.5
    endloop
  endfacet
  facet normal -0.382684 0.923879 0
    outer loop
      vertex -1.41421 1.41421 17.5
      vertex 0 2 -17.5
      vertex -1.41421 1.41421 -17.5
    endloop
  endfacet
  facet normal 0.382684 -0.923879 0
    outer loop
      vertex 0 -2 -17.5
      vertex 1.41421 -1.41421 17.5
      vertex 0 -2 17.5
    endloop
  endfacet
  facet normal 0.382684 -0.923879 0
    outer loop
      vertex 1.41421 -1.41421 17.5
      vertex 0 -2 -17.5
      vertex 1.41421 -1.41421 -17.5
    endloop
  endfacet
  facet normal -0.923879 -0.382684 0
    outer loop
      vertex -1.41421 -1.41421 -17.5
      vertex -2 0 17.5
      vertex -2 0 -17.5
    endloop
  endfacet
  facet normal -0.923879 -0.382684 0
    outer loop
      vertex -2 0 17.5
      vertex -1.41421 -1.41421 -17.5
      vertex -1.41421 -1.41421 17.5
    endloop
  endfacet
  facet normal -0.382684 -0.923879 0
    outer loop
      vertex -1.41421 -1.41421 -17.5
      vertex 0 -2 17.5
      vertex -1.41421 -1.41421 17.5
    endloop
  endfacet
  facet normal -0.382684 -0.923879 -0
    outer loop
      vertex 0 -2 17.5
      vertex -1.41421 -1.41421 -17.5
      vertex 0 -2 -17.5
    endloop
  endfacet
  facet normal 0.923879 -0.382684 0
    outer loop
      vertex 1.41421 -1.41421 17.5
      vertex 2 0 -17.5
      vertex 2 0 17.5
    endloop
  endfacet
  facet normal 0.923879 -0.382684 0
    outer loop
      vertex 2 0 -17.5
      vertex 1.41421 -1.41421 17.5
      vertex 1.41421 -1.41421 -17.5
    endloop
  endfacet
  facet normal 0.866026 0.499999 0
    outer loop
      vertex 9.13545 4.06737 15
      vertex 8.09017 5.87785 -15
      vertex 8.09017 5.87785 15
    endloop
  endfacet
  facet normal 0.866026 0.499999 0
    outer loop
      vertex 8.09017 5.87785 -15
      vertex 9.13545 4.06737 15
      vertex 9.13545 4.06737 -15
    endloop
  endfacet
  facet normal -0.951055 0.309021 0
    outer loop
      vertex -9.78148 2.07912 -15
      vertex -9.13545 4.06737 15
      vertex -9.13545 4.06737 -15
    endloop
  endfacet
  facet normal -0.951055 0.309021 0
    outer loop
      vertex -9.13545 4.06737 15
      vertex -9.78148 2.07912 -15
      vertex -9.78148 2.07912 15
    endloop
  endfacet
  facet normal 0.743147 0.669128 0
    outer loop
      vertex 8.09017 5.87785 15
      vertex 6.69131 7.43145 -15
      vertex 6.69131 7.43145 15
    endloop
  endfacet
  facet normal 0.743147 0.669128 0
    outer loop
      vertex 6.69131 7.43145 -15
      vertex 8.09017 5.87785 15
      vertex 8.09017 5.87785 -15
    endloop
  endfacet
  facet normal 0.406736 0.913546 -0
    outer loop
      vertex 5 8.66025 -15
      vertex 3.09017 9.51056 15
      vertex 5 8.66025 15
    endloop
  endfacet
  facet normal 0.406736 0.913546 0
    outer loop
      vertex 3.09017 9.51056 15
      vertex 5 8.66025 -15
      vertex 3.09017 9.51056 -15
    endloop
  endfacet
  facet normal -0.406736 0.913546 0
    outer loop
      vertex -3.09017 9.51056 -15
      vertex -5 8.66025 15
      vertex -3.09017 9.51056 15
    endloop
  endfacet
  facet normal -0.406736 0.913546 0
    outer loop
      vertex -5 8.66025 15
      vertex -3.09017 9.51056 -15
      vertex -5 8.66025 -15
    endloop
  endfacet
  facet normal 0.994522 -0.104527 0
    outer loop
      vertex 9.78148 -2.07912 15
      vertex 10 0 -15
      vertex 10 0 15
    endloop
  endfacet
  facet normal 0.994522 -0.104527 0
    outer loop
      vertex 10 0 -15
      vertex 9.78148 -2.07912 15
      vertex 9.78148 -2.07912 -15
    endloop
  endfacet
  facet normal 0.587783 0.809019 -0
    outer loop
      vertex 6.69131 7.43145 -15
      vertex 5 8.66025 15
      vertex 6.69131 7.43145 15
    endloop
  endfacet
  facet normal 0.587783 0.809019 0
    outer loop
      vertex 5 8.66025 15
      vertex 6.69131 7.43145 -15
      vertex 5 8.66025 -15
    endloop
  endfacet
  facet normal 0 1 -0
    outer loop
      vertex 1.04528 9.94522 -15
      vertex -1.04528 9.94522 15
      vertex 1.04528 9.94522 15
    endloop
  endfacet
  facet normal 0 1 0
    outer loop
      vertex -1.04528 9.94522 15
      vertex 1.04528 9.94522 -15
      vertex -1.04528 9.94522 -15
    endloop
  endfacet
  facet normal -0.994522 0.104527 0
    outer loop
      vertex -10 0 -15
      vertex -9.78148 2.07912 15
      vertex -9.78148 2.07912 -15
    endloop
  endfacet
  facet normal -0.994522 0.104527 0
    outer loop
      vertex -9.78148 2.07912 15
      vertex -10 0 -15
      vertex -10 0 15
    endloop
  endfacet
  facet normal -0.866026 0.499999 0
    outer loop
      vertex -9.13545 4.06737 -15
      vertex -8.09017 5.87785 15
      vertex -8.09017 5.87785 -15
    endloop
  endfacet
  facet normal -0.866026 0.499999 0
    outer loop
      vertex -8.09017 5.87785 15
      vertex -9.13545 4.06737 -15
      vertex -9.13545 4.06737 15
    endloop
  endfacet
  facet normal -0.587783 0.809019 0
    outer loop
      vertex -5 8.66025 -15
      vertex -6.69131 7.43145 15
      vertex -5 8.66025 15
    endloop
  endfacet
  facet normal -0.587783 0.809019 0
    outer loop
      vertex -6.69131 7.43145 15
      vertex -5 8.66025 -15
      vertex -6.69131 7.43145 -15
    endloop
  endfacet
  facet normal -0.207914 0.978147 0
    outer loop
      vertex -1.04528 9.94522 -15
      vertex -3.09017 9.51056 15
      vertex -1.04528 9.94522 15
    endloop
  endfacet
  facet normal -0.207914 0.978147 0
    outer loop
      vertex -3.09017 9.51056 15
      vertex -1.04528 9.94522 -15
      vertex -3.09017 9.51056 -15
    endloop
  endfacet
  facet normal -0.743147 0.669128 0
    outer loop
      vertex -8.09017 5.87785 -15
      vertex -6.69131 7.43145 15
      vertex -6.69131 7.43145 -15
    endloop
  endfacet
  facet normal -0.743147 0.669128 0
    outer loop
      vertex -6.69131 7.43145 15
      vertex -8.09017 5.87785 -15
      vertex -8.09017 5.87785 15
    endloop
  endfacet
  facet normal 0.994522 0.104527 0
    outer loop
      vertex 10 0 15
      vertex 9.78148 2.07912 -15
      vertex 9.78148 2.07912 15
    endloop
  endfacet
  facet normal 0.994522 0.104527 0
    outer loop
      vertex 9.78148 2.07912 -15
      vertex 10 0 15
      vertex 10 0 -15
    endloop
  endfacet
  facet normal 0.951055 -0.309021 0
    outer loop
      vertex 9.13545 -4.06737 15
      vertex 9.78148 -2.07912 -15
      vertex 9.78148 -2.07912 15
    endloop
  endfacet
  facet normal 0.951055 -0.309021 0
    outer loop
      vertex 9.78148 -2.07912 -15
      vertex 9.13545 -4.06737 15
      vertex 9.13545 -4.06737 -15
    endloop
  endfacet
  facet normal -0.866026 -0.499999 0
    outer loop
      vertex -8.09017 -5.87785 -15
      vertex -9.13545 -4.06737 15
      vertex -9.13545 -4.06737 -15
    endloop
  endfacet
  facet normal -0.866026 -0.499999 0
    outer loop
      vertex -9.13545 -4.06737 15
      vertex -8.09017 -5.87785 -15
      vertex -8.09017 -5.87785 15
    endloop
  endfacet
  facet normal 0.587783 -0.809019 0
    outer loop
      vertex 5 -8.66025 -15
      vertex 6.69131 -7.43145 15
      vertex 5 -8.66025 15
    endloop
  endfacet
  facet normal 0.587783 -0.809019 0
    outer loop
      vertex 6.69131 -7.43145 15
      vertex 5 -8.66025 -15
      vertex 6.69131 -7.43145 -15
    endloop
  endfacet
  facet normal 0.951055 0.309021 0
    outer loop
      vertex 9.78148 2.07912 15
      vertex 9.13545 4.06737 -15
      vertex 9.13545 4.06737 15
    endloop
  endfacet
  facet normal 0.951055 0.309021 0
    outer loop
      vertex 9.13545 4.06737 -15
      vertex 9.78148 2.07912 15
      vertex 9.78148 2.07912 -15
    endloop
  endfacet
  facet normal 0.207914 0.978147 -0
    outer loop
      vertex 3.09017 9.51056 -15
      vertex 1.04528 9.94522 15
      vertex 3.09017 9.51056 15
    endloop
  endfacet
  facet normal 0.207914 0.978147 0
    outer loop
      vertex 1.04528 9.94522 15
      vertex 3.09017 9.51056 -15
      vertex 1.04528 9.94522 -15
    endloop
  endfacet
  facet normal 0 0 1
    outer loop
      vertex 9.78148 2.07912 15
      vertex 4.6194 1.91342 15
      vertex 5 0 15
    endloop
  endfacet
  facet normal 0 0 1
    outer loop
      vertex 6.69131 7.43145 15
      vertex 3.53553 3.53553 15
      vertex 4.6194 1.91342 15
    endloop
  endfacet
  facet normal 0 0 1
    outer loop
      vertex 1.91342 4.6194 15
      vertex 5 8.66025 15
      vertex 3.09017 9.51056 15
    endloop
  endfacet
  facet normal 0 0 1
    outer loop
      vertex 5 8.66025 15
      vertex 1.91342 4.6194 15
      vertex 3.53553 3.53553 15
    endloop
  endfacet
  facet normal 0 0 1
    outer loop
      vertex 1.04528 9.94522 15
      vertex 1.91342 4.6194 15
      vertex 3.09017 9.51056 15
    endloop
  endfacet
  facet normal 0 0 1
    outer loop
      vertex 1.04528 9.94522 15
      vertex 0 5 15
      vertex 1.91342 4.6194 15
    endloop
  endfacet
  facet normal -0 0 1
    outer loop
      vertex -1.04528 9.94522 15
      vertex 0 5 15
      vertex 1.04528 9.94522 15
    endloop
  endfacet
  facet normal 0 0 1
    outer loop
      vertex -1.04528 9.94522 15
      vertex -1.91342 4.6194 15
      vertex 0 5 15
    endloop
  endfacet
  facet normal -0 0 1
    outer loop
      vertex -3.09017 9.51056 15
      vertex -1.91342 4.6194 15
      vertex -1.04528 9.94522 15
    endloop
  endfacet
  facet normal -0 0 1
    outer loop
      vertex -5 8.66025 15
      vertex -1.91342 4.6194 15
      vertex -3.09017 9.51056 15
    endloop
  endfacet
  facet normal 0 0 1
    outer loop
      vertex -1.91342 4.6194 15
      vertex -5 8.66025 15
      vertex -3.53553 3.53553 15
    endloop
  endfacet
  facet normal -0 0 1
    outer loop
      vertex -6.69131 7.43145 15
      vertex -3.53553 3.53553 15
      vertex -5 8.66025 15
    endloop
  endfacet
  facet normal -0 0 1
    outer loop
      vertex -8.09017 5.87785 15
      vertex -3.53553 3.53553 15
      vertex -6.69131 7.43145 15
    endloop
  endfacet
  facet normal 0 0 1
    outer loop
      vertex -3.53553 3.53553 15
      vertex -8.09017 5.87785 15
      vertex -4.6194 1.91342 15
    endloop
  endfacet
  facet normal -0 0 1
    outer loop
      vertex -9.13545 4.06737 15
      vertex -4.6194 1.91342 15
      vertex -8.09017 5.87785 15
    endloop
  endfacet
  facet normal 0 0 1
    outer loop
      vertex -5 0 15
      vertex -6.69131 -7.43145 15
      vertex -5 -8.66025 15
    endloop
  endfacet
  facet normal -0 0 1
    outer loop
      vertex -9.78148 2.07912 15
      vertex -4.6194 1.91342 15
      vertex -9.13545 4.06737 15
    endloop
  endfacet
  facet normal 0 0 1
    outer loop
      vertex -5 0 15
      vertex -8.09017 -5.87785 15
      vertex -6.69131 -7.43145 15
    endloop
  endfacet
  facet normal 0 0 1
    outer loop
      vertex -4.6194 1.91342 15
      vertex -9.78148 2.07912 15
      vertex -5 0 15
    endloop
  endfacet
  facet normal 0 0 1
    outer loop
      vertex -5 0 15
      vertex -9.13545 -4.06737 15
      vertex -8.09017 -5.87785 15
    endloop
  endfacet
  facet normal 0 0 1
    outer loop
      vertex -10 0 15
      vertex -5 0 15
      vertex -9.78148 2.07912 15
    endloop
  endfacet
  facet normal 0 0 1
    outer loop
      vertex -5 0 15
      vertex -9.78148 -2.07912 15
      vertex -9.13545 -4.06737 15
    endloop
  endfacet
  facet normal 0 0 1
    outer loop
      vertex -5 0 15
      vertex -10 0 15
      vertex -9.78148 -2.07912 15
    endloop
  endfacet
  facet normal 0 0 1
    outer loop
      vertex 5 0 15
      vertex 10 0 15
      vertex 9.78148 2.07912 15
    endloop
  endfacet
  facet normal 0 0 1
    outer loop
      vertex 4.6194 1.91342 15
      vertex 9.78148 2.07912 15
      vertex 9.13545 4.06737 15
    endloop
  endfacet
  facet normal 0 0 1
    outer loop
      vertex 10 0 15
      vertex 5 0 15
      vertex 9.78148 -2.07912 15
    endloop
  endfacet
  facet normal 0 0 1
    outer loop
      vertex 4.6194 1.91342 15
      vertex 9.13545 4.06737 15
      vertex 8.09017 5.87785 15
    endloop
  endfacet
  facet normal -0 0 1
    outer loop
      vertex 4.6194 -1.91342 15
      vertex 9.78148 -2.07912 15
      vertex 5 0 15
    endloop
  endfacet
  facet normal 0 0 1
    outer loop
      vertex 4.6194 1.91342 15
      vertex 8.09017 5.87785 15
      vertex 6.69131 7.43145 15
    endloop
  endfacet
  facet normal 0 0 1
    outer loop
      vertex 9.78148 -2.07912 15
      vertex 4.6194 -1.91342 15
      vertex 9.13545 -4.06737 15
    endloop
  endfacet
  facet normal 0 0 1
    outer loop
      vertex 3.53553 3.53553 15
      vertex 6.69131 7.43145 15
      vertex 5 8.66025 15
    endloop
  endfacet
  facet normal 0 0 1
    outer loop
      vertex 9.13545 -4.06737 15
      vertex 4.6194 -1.91342 15
      vertex 8.09017 -5.87785 15
    endloop
  endfacet
  facet normal -0 0 1
    outer loop
      vertex 3.53553 -3.53553 15
      vertex 8.09017 -5.87785 15
      vertex 4.6194 -1.91342 15
    endloop
  endfacet
  facet normal 0 0 1
    outer loop
      vertex 8.09017 -5.87785 15
      vertex 3.53553 -3.53553 15
      vertex 6.69131 -7.43145 15
    endloop
  endfacet
  facet normal 0 0 1
    outer loop
      vertex 6.69131 -7.43145 15
      vertex 3.53553 -3.53553 15
      vertex 5 -8.66025 15
    endloop
  endfacet
  facet normal -0 0 1
    outer loop
      vertex 1.91342 -4.6194 15
      vertex 5 -8.66025 15
      vertex 3.53553 -3.53553 15
    endloop
  endfacet
  facet normal 0 0 1
    outer loop
      vertex 5 -8.66025 15
      vertex 1.91342 -4.6194 15
      vertex 3.09017 -9.51056 15
    endloop
  endfacet
  facet normal 0 0 1
    outer loop
      vertex 1.91342 -4.6194 15
      vertex 1.04528 -9.94522 15
      vertex 3.09017 -9.51056 15
    endloop
  endfacet
  facet normal -0 0 1
    outer loop
      vertex 0 -5 15
      vertex 1.04528 -9.94522 15
      vertex 1.91342 -4.6194 15
    endloop
  endfacet
  facet normal 0 0 1
    outer loop
      vertex 0 -5 15
      vertex -1.04528 -9.94522 15
      vertex 1.04528 -9.94522 15
    endloop
  endfacet
  facet normal 0 0 1
    outer loop
      vertex -1.91342 -4.6194 15
      vertex -1.04528 -9.94522 15
      vertex 0 -5 15
    endloop
  endfacet
  facet normal 0 0 1
    outer loop
      vertex -1.91342 -4.6194 15
      vertex -3.09017 -9.51056 15
      vertex -1.04528 -9.94522 15
    endloop
  endfacet
  facet normal 0 0 1
    outer loop
      vertex -5 -8.66025 15
      vertex -1.91342 -4.6194 15
      vertex -3.53553 -3.53553 15
    endloop
  endfacet
  facet normal 0 0 1
    outer loop
      vertex -5 -8.66025 15
      vertex -3.53553 -3.53553 15
      vertex -4.6194 -1.91342 15
    endloop
  endfacet
  facet normal 0 0 1
    outer loop
      vertex -1.91342 -4.6194 15
      vertex -5 -8.66025 15
      vertex -3.09017 -9.51056 15
    endloop
  endfacet
  facet normal 0 0 1
    outer loop
      vertex -5 -8.66025 15
      vertex -4.6194 -1.91342 15
      vertex -5 0 15
    endloop
  endfacet
  facet normal 0.866026 -0.499999 0
    outer loop
      vertex 8.09017 -5.87785 15
      vertex 9.13545 -4.06737 -15
      vertex 9.13545 -4.06737 15
    endloop
  endfacet
  facet normal 0.866026 -0.499999 0
    outer loop
      vertex 9.13545 -4.06737 -15
      vertex 8.09017 -5.87785 15
      vertex 8.09017 -5.87785 -15
    endloop
  endfacet
  facet normal -0.994522 -0.104527 0
    outer loop
      vertex -9.78148 -2.07912 -15
      vertex -10 0 15
      vertex -10 0 -15
    endloop
  endfacet
  facet normal -0.994522 -0.104527 0
    outer loop
      vertex -10 0 15
      vertex -9.78148 -2.07912 -15
      vertex -9.78148 -2.07912 15
    endloop
  endfacet
  facet normal 0.207914 -0.978147 0
    outer loop
      vertex 1.04528 -9.94522 -15
      vertex 3.09017 -9.51056 15
      vertex 1.04528 -9.94522 15
    endloop
  endfacet
  facet normal 0.207914 -0.978147 0
    outer loop
      vertex 3.09017 -9.51056 15
      vertex 1.04528 -9.94522 -15
      vertex 3.09017 -9.51056 -15
    endloop
  endfacet
  facet normal 0.406736 -0.913546 0
    outer loop
      vertex 3.09017 -9.51056 -15
      vertex 5 -8.66025 15
      vertex 3.09017 -9.51056 15
    endloop
  endfacet
  facet normal 0.406736 -0.913546 0
    outer loop
      vertex 5 -8.66025 15
      vertex 3.09017 -9.51056 -15
      vertex 5 -8.66025 -15
    endloop
  endfacet
  facet normal -0.207914 -0.978147 0
    outer loop
      vertex -3.09017 -9.51056 -15
      vertex -1.04528 -9.94522 15
      vertex -3.09017 -9.51056 15
    endloop
  endfacet
  facet normal -0.207914 -0.978147 -0
    outer loop
      vertex -1.04528 -9.94522 15
      vertex -3.09017 -9.51056 -15
      vertex -1.04528 -9.94522 -15
    endloop
  endfacet
  facet normal 0 -1 0
    outer loop
      vertex -1.04528 -9.94522 -15
      vertex 1.04528 -9.94522 15
      vertex -1.04528 -9.94522 15
    endloop
  endfacet
  facet normal 0 -1 -0
    outer loop
      vertex 1.04528 -9.94522 15
      vertex -1.04528 -9.94522 -15
      vertex 1.04528 -9.94522 -15
    endloop
  endfacet
  facet normal 0 0 -1
    outer loop
      vertex 9.78148 -2.07912 -15
      vertex 4.6194 -1.91342 -15
      vertex 5 0 -15
    endloop
  endfacet
  facet normal 0 0 -1
    outer loop
      vertex 6.69131 -7.43145 -15
      vertex 3.53553 -3.53553 -15
      vertex 4.6194 -1.91342 -15
    endloop
  endfacet
  facet normal 0 0 -1
    outer loop
      vertex 1.91342 -4.6194 -15
      vertex 5 -8.66025 -15
      vertex 3.09017 -9.51056 -15
    endloop
  endfacet
  facet normal 0 0 -1
    outer loop
      vertex 5 -8.66025 -15
      vertex 1.91342 -4.6194 -15
      vertex 3.53553 -3.53553 -15
    endloop
  endfacet
  facet normal 0 0 -1
    outer loop
      vertex 1.04528 -9.94522 -15
      vertex 1.91342 -4.6194 -15
      vertex 3.09017 -9.51056 -15
    endloop
  endfacet
  facet normal 0 0 -1
    outer loop
      vertex 1.04528 -9.94522 -15
      vertex 0 -5 -15
      vertex 1.91342 -4.6194 -15
    endloop
  endfacet
  facet normal 0 0 -1
    outer loop
      vertex -1.04528 -9.94522 -15
      vertex 0 -5 -15
      vertex 1.04528 -9.94522 -15
    endloop
  endfacet
  facet normal 0 0 -1
    outer loop
      vertex -1.04528 -9.94522 -15
      vertex -1.91342 -4.6194 -15
      vertex 0 -5 -15
    endloop
  endfacet
  facet normal 0 0 -1
    outer loop
      vertex -3.09017 -9.51056 -15
      vertex -1.91342 -4.6194 -15
      vertex -1.04528 -9.94522 -15
    endloop
  endfacet
  facet normal 0 0 -1
    outer loop
      vertex -5 -8.66025 -15
      vertex -1.91342 -4.6194 -15
      vertex -3.09017 -9.51056 -15
    endloop
  endfacet
  facet normal -0 0 -1
    outer loop
      vertex -1.91342 -4.6194 -15
      vertex -5 -8.66025 -15
      vertex -3.53553 -3.53553 -15
    endloop
  endfacet
  facet normal 0 0 -1
    outer loop
      vertex -6.69131 -7.43145 -15
      vertex -3.53553 -3.53553 -15
      vertex -5 -8.66025 -15
    endloop
  endfacet
  facet normal 0 0 -1
    outer loop
      vertex -8.09017 -5.87785 -15
      vertex -3.53553 -3.53553 -15
      vertex -6.69131 -7.43145 -15
    endloop
  endfacet
  facet normal -0 0 -1
    outer loop
      vertex -3.53553 -3.53553 -15
      vertex -8.09017 -5.87785 -15
      vertex -4.6194 -1.91342 -15
    endloop
  endfacet
  facet normal 0 0 -1
    outer loop
      vertex -9.13545 -4.06737 -15
      vertex -4.6194 -1.91342 -15
      vertex -8.09017 -5.87785 -15
    endloop
  endfacet
  facet normal 0 0 -1
    outer loop
      vertex -5 0 -15
      vertex -6.69131 7.43145 -15
      vertex -5 8.66025 -15
    endloop
  endfacet
  facet normal 0 0 -1
    outer loop
      vertex -9.78148 -2.07912 -15
      vertex -4.6194 -1.91342 -15
      vertex -9.13545 -4.06737 -15
    endloop
  endfacet
  facet normal 0 0 -1
    outer loop
      vertex -5 0 -15
      vertex -8.09017 5.87785 -15
      vertex -6.69131 7.43145 -15
    endloop
  endfacet
  facet normal -0 0 -1
    outer loop
      vertex -4.6194 -1.91342 -15
      vertex -9.78148 -2.07912 -15
      vertex -5 0 -15
    endloop
  endfacet
  facet normal 0 0 -1
    outer loop
      vertex -5 0 -15
      vertex -9.13545 4.06737 -15
      vertex -8.09017 5.87785 -15
    endloop
  endfacet
  facet normal 0 0 -1
    outer loop
      vertex -10 0 -15
      vertex -5 0 -15
      vertex -9.78148 -2.07912 -15
    endloop
  endfacet
  facet normal 0 0 -1
    outer loop
      vertex -5 0 -15
      vertex -9.78148 2.07912 -15
      vertex -9.13545 4.06737 -15
    endloop
  endfacet
  facet normal 0 0 -1
    outer loop
      vertex -5 0 -15
      vertex -10 0 -15
      vertex -9.78148 2.07912 -15
    endloop
  endfacet
  facet normal 0 0 -1
    outer loop
      vertex 5 0 -15
      vertex 10 0 -15
      vertex 9.78148 -2.07912 -15
    endloop
  endfacet
  facet normal 0 0 -1
    outer loop
      vertex 4.6194 -1.91342 -15
      vertex 9.78148 -2.07912 -15
      vertex 9.13545 -4.06737 -15
    endloop
  endfacet
  facet normal 0 0 -1
    outer loop
      vertex 10 0 -15
      vertex 5 0 -15
      vertex 9.78148 2.07912 -15
    endloop
  endfacet
  facet normal 0 0 -1
    outer loop
      vertex 4.6194 -1.91342 -15
      vertex 9.13545 -4.06737 -15
      vertex 8.09017 -5.87785 -15
    endloop
  endfacet
  facet normal 0 0 -1
    outer loop
      vertex 4.6194 1.91342 -15
      vertex 9.78148 2.07912 -15
      vertex 5 0 -15
    endloop
  endfacet
  facet normal 0 0 -1
    outer loop
      vertex 4.6194 -1.91342 -15
      vertex 8.09017 -5.87785 -15
      vertex 6.69131 -7.43145 -15
    endloop
  endfacet
  facet normal -0 0 -1
    outer loop
      vertex 9.78148 2.07912 -15
      vertex 4.6194 1.91342 -15
      vertex 9.13545 4.06737 -15
    endloop
  endfacet
  facet normal 0 0 -1
    outer loop
      vertex 3.53553 -3.53553 -15
      vertex 6.69131 -7.43145 -15
      vertex 5 -8.66025 -15
    endloop
  endfacet
  facet normal -0 0 -1
    outer loop
      vertex 9.13545 4.06737 -15
      vertex 4.6194 1.91342 -15
      vertex 8.09017 5.87785 -15
    endloop
  endfacet
  facet normal 0 0 -1
    outer loop
      vertex 3.53553 3.53553 -15
      vertex 8.09017 5.87785 -15
      vertex 4.6194 1.91342 -15
    endloop
  endfacet
  facet normal -0 0 -1
    outer loop
      vertex 8.09017 5.87785 -15
      vertex 3.53553 3.53553 -15
      vertex 6.69131 7.43145 -15
    endloop
  endfacet
  facet normal -0 0 -1
    outer loop
      vertex 6.69131 7.43145 -15
      vertex 3.53553 3.53553 -15
      vertex 5 8.66025 -15
    endloop
  endfacet
  facet normal 0 0 -1
    outer loop
      vertex 1.91342 4.6194 -15
      vertex 5 8.66025 -15
      vertex 3.53553 3.53553 -15
    endloop
  endfacet
  facet normal -0 0 -1
    outer loop
      vertex 5 8.66025 -15
      vertex 1.91342 4.6194 -15
      vertex 3.09017 9.51056 -15
    endloop
  endfacet
  facet normal 0 0 -1
    outer loop
      vertex 1.91342 4.6194 -15
      vertex 1.04528 9.94522 -15
      vertex 3.09017 9.51056 -15
    endloop
  endfacet
  facet normal 0 0 -1
    outer loop
      vertex 0 5 -15
      vertex 1.04528 9.94522 -15
      vertex 1.91342 4.6194 -15
    endloop
  endfacet
  facet normal 0 0 -1
    outer loop
      vertex 0 5 -15
      vertex -1.04528 9.94522 -15
      vertex 1.04528 9.94522 -15
    endloop
  endfacet
  facet normal 0 0 -1
    outer loop
      vertex -1.91342 4.6194 -15
      vertex -1.04528 9.94522 -15
      vertex 0 5 -15
    endloop
  endfacet
  facet normal 0 0 -1
    outer loop
      vertex -1.91342 4.6194 -15
      vertex -3.09017 9.51056 -15
      vertex -1.04528 9.94522 -15
    endloop
  endfacet
  facet normal 0 0 -1
    outer loop
      vertex -5 8.66025 -15
      vertex -1.91342 4.6194 -15
      vertex -3.53553 3.53553 -15
    endloop
  endfacet
  facet normal 0 0 -1
    outer loop
      vertex -5 8.66025 -15
      vertex -3.53553 3.53553 -15
      vertex -4.6194 1.91342 -15
    endloop
  endfacet
  facet normal 0 0 -1
    outer loop
      vertex -1.91342 4.6194 -15
      vertex -5 8.66025 -15
      vertex -3.09017 9.51056 -15
    endloop
  endfacet
  facet normal 0 0 -1
    outer loop
      vertex -5 8.66025 -15
      vertex -4.6194 1.91342 -15
      vertex -5 0 -15
    endloop
  endfacet
  facet normal -0.951055 -0.309021 0
    outer loop
      vertex -9.13545 -4.06737 -15
      vertex -9.78148 -2.07912 15
      vertex -9.78148 -2.07912 -15
    endloop
  endfacet
  facet normal -0.951055 -0.309021 0
    outer loop
      vertex -9.78148 -2.07912 15
      vertex -9.13545 -4.06737 -15
      vertex -9.13545 -4.06737 15
    endloop
  endfacet
  facet normal -0.743147 -0.669128 0
    outer loop
      vertex -6.69131 -7.43145 -15
      vertex -8.09017 -5.87785 15
      vertex -8.09017 -5.87785 -15
    endloop
  endfacet
  facet normal -0.743147 -0.669128 0
    outer loop
      vertex -8.09017 -5.87785 15
      vertex -6.69131 -7.43145 -15
      vertex -6.69131 -7.43145 15
    endloop
  endfacet
  facet normal 0.743147 -0.669128 0
    outer loop
      vertex 6.69131 -7.43145 15
      vertex 8.09017 -5.87785 -15
      vertex 8.09017 -5.87785 15
    endloop
  endfacet
  facet normal 0.743147 -0.669128 0
    outer loop
      vertex 8.09017 -5.87785 -15
      vertex 6.69131 -7.43145 15
      vertex 6.69131 -7.43145 -15
    endloop
  endfacet
  facet normal -0.587783 -0.809019 0
    outer loop
      vertex -6.69131 -7.43145 -15
      vertex -5 -8.66025 15
      vertex -6.69131 -7.43145 15
    endloop
  endfacet
  facet normal -0.587783 -0.809019 -0
    outer loop
      vertex -5 -8.66025 15
      vertex -6.69131 -7.43145 -15
      vertex -5 -8.66025 -15
    endloop
  endfacet
  facet normal -0.406736 -0.913546 0
    outer loop
      vertex -5 -8.66025 -15
      vertex -3.09017 -9.51056 15
      vertex -5 -8.66025 15
    endloop
  endfacet
  facet normal -0.406736 -0.913546 -0
    outer loop
      vertex -3.09017 -9.51056 15
      vertex -5 -8.66025 -15
      vertex -3.09017 -9.51056 -15
    endloop
  endfacet
  facet normal -0.980785 -0.195089 0
    outer loop
      vertex 5 0 -15
      vertex 4.6194 1.91342 15
      vertex 4.6194 1.91342 -15
    endloop
  endfacet
  facet normal -0.980785 -0.195089 0
    outer loop
      vertex 4.6194 1.91342 15
      vertex 5 0 -15
      vertex 5 0 15
    endloop
  endfacet
  facet normal 0.980785 -0.195089 0
    outer loop
      vertex -5 0 15
      vertex -4.6194 1.91342 -15
      vertex -4.6194 1.91342 15
    endloop
  endfacet
  facet normal 0.980785 -0.195089 0
    outer loop
      vertex -4.6194 1.91342 -15
      vertex -5 0 15
      vertex -5 0 -15
    endloop
  endfacet
  facet normal -0.195089 -0.980785 0
    outer loop
      vertex 0 5 -15
      vertex 1.91342 4.6194 15
      vertex 0 5 15
    endloop
  endfacet
  facet normal -0.195089 -0.980785 -0
    outer loop
      vertex 1.91342 4.6194 15
      vertex 0 5 -15
      vertex 1.91342 4.6194 -15
    endloop
  endfacet
  facet normal -0.831467 -0.555574 0
    outer loop
      vertex 4.6194 1.91342 -15
      vertex 3.53553 3.53553 15
      vertex 3.53553 3.53553 -15
    endloop
  endfacet
  facet normal -0.831467 -0.555574 0
    outer loop
      vertex 3.53553 3.53553 15
      vertex 4.6194 1.91342 -15
      vertex 4.6194 1.91342 15
    endloop
  endfacet
  facet normal -0.195089 0.980785 0
    outer loop
      vertex 1.91342 -4.6194 -15
      vertex 0 -5 15
      vertex 1.91342 -4.6194 15
    endloop
  endfacet
  facet normal -0.195089 0.980785 0
    outer loop
      vertex 0 -5 15
      vertex 1.91342 -4.6194 -15
      vertex 0 -5 -15
    endloop
  endfacet
  facet normal -0.555574 -0.831467 0
    outer loop
      vertex 1.91342 4.6194 -15
      vertex 3.53553 3.53553 15
      vertex 1.91342 4.6194 15
    endloop
  endfacet
  facet normal -0.555574 -0.831467 -0
    outer loop
      vertex 3.53553 3.53553 15
      vertex 1.91342 4.6194 -15
      vertex 3.53553 3.53553 -15
    endloop
  endfacet
  facet normal 0.555574 -0.831467 0
    outer loop
      vertex -3.53553 3.53553 -15
      vertex -1.91342 4.6194 15
      vertex -3.53553 3.53553 15
    endloop
  endfacet
  facet normal 0.555574 -0.831467 0
    outer loop
      vertex -1.91342 4.6194 15
      vertex -3.53553 3.53553 -15
      vertex -1.91342 4.6194 -15
    endloop
  endfacet
  facet normal 0.831467 -0.555574 0
    outer loop
      vertex -4.6194 1.91342 15
      vertex -3.53553 3.53553 -15
      vertex -3.53553 3.53553 15
    endloop
  endfacet
  facet normal 0.831467 -0.555574 0
    outer loop
      vertex -3.53553 3.53553 -15
      vertex -4.6194 1.91342 15
      vertex -4.6194 1.91342 -15
    endloop
  endfacet
  facet normal 0.195089 -0.980785 0
    outer loop
      vertex -1.91342 4.6194 -15
      vertex 0 5 15
      vertex -1.91342 4.6194 15
    endloop
  endfacet
  facet normal 0.195089 -0.980785 0
    outer loop
      vertex 0 5 15
      vertex -1.91342 4.6194 -15
      vertex 0 5 -15
    endloop
  endfacet
  facet normal 0.555574 0.831467 -0
    outer loop
      vertex -1.91342 -4.6194 -15
      vertex -3.53553 -3.53553 15
      vertex -1.91342 -4.6194 15
    endloop
  endfacet
  facet normal 0.555574 0.831467 0
    outer loop
      vertex -3.53553 -3.53553 15
      vertex -1.91342 -4.6194 -15
      vertex -3.53553 -3.53553 -15
    endloop
  endfacet
  facet normal 0.980785 0.195089 0
    outer loop
      vertex -4.6194 -1.91342 15
      vertex -5 0 -15
      vertex -5 0 15
    endloop
  endfacet
  facet normal 0.980785 0.195089 0
    outer loop
      vertex -5 0 -15
      vertex -4.6194 -1.91342 15
      vertex -4.6194 -1.91342 -15
    endloop
  endfacet
  facet normal -0.555574 0.831467 0
    outer loop
      vertex 3.53553 -3.53553 -15
      vertex 1.91342 -4.6194 15
      vertex 3.53553 -3.53553 15
    endloop
  endfacet
  facet normal -0.555574 0.831467 0
    outer loop
      vertex 1.91342 -4.6194 15
      vertex 3.53553 -3.53553 -15
      vertex 1.91342 -4.6194 -15
    endloop
  endfacet
  facet normal -0.831467 0.555574 0
    outer loop
      vertex 3.53553 -3.53553 -15
      vertex 4.6194 -1.91342 15
      vertex 4.6194 -1.91342 -15
    endloop
  endfacet
  facet normal -0.831467 0.555574 0
    outer loop
      vertex 4.6194 -1.91342 15
      vertex 3.53553 -3.53553 -15
      vertex 3.53553 -3.53553 15
    endloop
  endfacet
  facet normal 0.195089 0.980785 -0
    outer loop
      vertex 0 -5 -15
      vertex -1.91342 -4.6194 15
      vertex 0 -5 15
    endloop
  endfacet
  facet normal 0.195089 0.980785 0
    outer loop
      vertex -1.91342 -4.6194 15
      vertex 0 -5 -15
      vertex -1.91342 -4.6194 -15
    endloop
  endfacet
  facet normal 0.831467 0.555574 0
    outer loop
      vertex -3.53553 -3.53553 15
      vertex -4.6194 -1.91342 -15
      vertex -4.6194 -1.91342 15
    endloop
  endfacet
  facet normal 0.831467 0.555574 0
    outer loop
      vertex -4.6194 -1.91342 -15
      vertex -3.53553 -3.53553 15
      vertex -3.53553 -3.53553 -15
    endloop
  endfacet
  facet normal -0.980785 0.195089 0
    outer loop
      vertex 4.6194 -1.91342 -15
      vertex 5 0 15
      vertex 5 0 -15
    endloop
  endfacet
  facet normal -0.980785 0.195089 0
    outer loop
      vertex 5 0 15
      vertex 4.6194 -1.91342 -15
      vertex 4.6194 -1.91342 15
    endloop
  endfacet
endsolid OpenSCAD_Model
